<?xml version="1.0" standalone="no"?>
<!DOCTYPE svg PUBLIC "-//W3C//DTD SVG 1.1//EN" "http://www.w3.org/Graphics/SVG/1.1/DTD/svg11.dtd" >
<svg>
<metadata>
Created by FontForge 20090914 at Mon Dec 26 07:42:35 2016
 By www-data
Copyright (c) 12.98   3.04    m klein   
</metadata>
<defs>
<font id="OptimusPrincepsSemiBold" horiz-adv-x="361" >
  <font-face 
    font-family="OptimusPrincepsSemiBold"
    font-weight="600"
    font-stretch="normal"
    units-per-em="1000"
    panose-1="2 0 8 5 6 0 0 2 0 4"
    ascent="800"
    descent="-200"
    x-height="604"
    cap-height="741.004"
    bbox="1.94012 -253 1441 891.998"
    underline-thickness="20"
    underline-position="-123"
    unicode-range="U+0005-U+E000"
  />
<missing-glyph horiz-adv-x="1000" 
 />
    <glyph glyph-name=".notdef" horiz-adv-x="1000" 
 />
    <glyph glyph-name="breve" horiz-adv-x="284" 
d="M264 822l-20.998 6.99707c-12.667 -13.333 -27.167 -25.166 -43.5 -35.499s-33.5 -15.5 -51.5 -15.5c-16 0 -30.667 4.66699 -44 14s-24.666 21.333 -33.999 36c-4.66699 4.66699 -10.334 5.33398 -17.001 2.00098c-6.66699 -4.66699 -13.834 -10.834 -21.501 -18.501
s-11.5 -16.167 -11.5 -25.5c0 -10 4.16699 -18.333 12.5 -25s18.166 -11.667 29.499 -15s22.833 -5.66602 34.5 -6.99902s20.834 -2 27.501 -2c14 0 28.667 1.33301 44 4s29.666 7.33398 42.999 14.001s25 15.5 35 26.5s16 24.5 18 40.5z" />
    <glyph glyph-name="dotaccent" horiz-adv-x="138" 
d="M120 688c0 14 -5.16797 26.5 -15.501 37.5s-23.166 16.5 -38.499 16.5c-14 0 -25.5 -3.83301 -34.5 -11.5s-13.5 -18.167 -13.5 -31.5c0 -6 1.16699 -12.333 3.5 -19s5.5 -13 9.5 -19s9 -10.833 15 -14.5s13 -5.5 21 -5.5c13.333 0 25.5 4.5 36.5 13.5
s16.5 20.167 16.5 33.5z" />
    <glyph glyph-name="ring" horiz-adv-x="215" 
d="M196 677c0 19.333 -7.16992 35.0029 -21.5029 47.0029s-31.166 18 -50.499 18c-12.667 0 -25.167 -2.16699 -37.5 -6.5s-23.5 -10.333 -33.5 -18s-18.167 -17 -24.5 -28s-9.5 -23.167 -9.5 -36.5c0 -15.333 4.83301 -28.5 14.5 -39.5s23.167 -16.5 40.5 -16.5
c7.33301 0 14.333 1.16699 21 3.5s13.334 5.16602 20.001 8.49902c9.33301 0.666992 18.833 2.5 28.5 5.5s18.334 7.16699 26.001 12.5s14 12.166 19 20.499s7.5 18.166 7.5 29.499zM134.997 668.003c0 -5.33301 -2.16895 -11.167 -6.50195 -17.5
s-9.16602 -9.5 -14.499 -9.5c-9.33301 0 -18 3.16699 -26 9.5s-12 14.833 -12 25.5c0 8 3 14.833 9 20.5s12.667 8.5 20 8.5c8.66699 0 15.834 -3.83301 21.501 -11.5s8.5 -16.167 8.5 -25.5z" />
    <glyph glyph-name="hungarumlaut" unicode="&#xa;" horiz-adv-x="283" 
d="M262 818c-3.33301 7.33301 -8.83105 15.4951 -16.498 24.4951s-17.5 13.5 -29.5 13.5c-6.66699 0 -13.334 -2.5 -20.001 -7.5s-13.167 -11.167 -19.5 -18.5s-12.5 -15.666 -18.5 -24.999l-17 -27l-13 -20.5c-4 -6.33301 -7 -10.833 -9 -13.5
c-4 -3.33301 -3.83301 -7.16602 0.5 -11.499s9.16602 -4.83301 14.499 -1.5c3.33301 2.66699 7 5.33398 11 8.00098l13 9c7.33301 6 15.333 12.167 24 18.5l25.5 18c8.33301 5.66699 16.333 10.334 24 14.001s14.5 5.83398 20.5 6.50098zM157.002 825.995
c-4 6 -9.33301 11.666 -16 16.999s-14.667 8 -24 8s-17.5 -2.16699 -24.5 -6.5s-13.333 -10 -19 -17s-11 -14.833 -16 -23.5s-9.5 -17 -13.5 -25l-12 -23c-3.33301 -6.66699 -6 -10.667 -8 -12c-4.66699 -3.33301 -4.66699 -7.16602 0 -11.499s9.66699 -4.83301 15 -1.5
c5.33301 4 11 8 17 12s11.667 8.33301 17 13h-1l39 29c12.667 9.33301 26.667 19 42 29z" />
    <glyph glyph-name="ogonek" horiz-adv-x="210" 
d="M186 -87l-9.99316 15.001c-20.667 -5.33301 -38.834 -2.16602 -54.501 9.50098s-23.5 28.834 -23.5 51.501c0 16 4.66699 30.167 14 42.5s20.666 21.833 33.999 28.5c6 2 7.83301 5.66699 5.5 11s-6.83301 7.33301 -13.5 6c-12.667 -3.33301 -26 -7.83301 -40 -13.5
s-26.833 -12.834 -38.5 -21.501s-21.334 -18.834 -29.001 -30.501s-11.5 -25.5 -11.5 -41.5c0 -12 2.66699 -22.833 8 -32.5s12.166 -18.167 20.499 -25.5s18.166 -13 29.499 -17s23 -6 35 -6c13.333 0 26.166 2.16699 38.499 6.5s24.166 10.166 35.499 17.499z" />
    <glyph glyph-name="caron" horiz-adv-x="272" 
d="M249 824l-12.0029 14.998c-9.33301 -2.66699 -19 -7.33398 -29 -14.001s-19 -13.334 -27 -20.001l-20.5 -15c-6.33301 -4.66699 -12.166 -7.66699 -17.499 -9c-9.33301 2.66699 -18 7.66699 -26 15l-26 23c-4.66699 3.33301 -9 7 -13 11s-8.33301 7.66699 -13 11
c-2 1.33301 -4.66699 2 -8 2c-2.66699 0 -5 -0.666992 -7 -2c-5.33301 -4.66699 -10.666 -10 -15.999 -16s-9.66602 -11.667 -12.999 -17c-1.33301 -1.33301 -1.5 -3.16602 -0.5 -5.49902s2.5 -4.16602 4.5 -5.49902l54 -41c18 -13.333 35.667 -25.666 53 -36.999
c4 -2 8.66699 -1.66699 14 1c18 15.333 35.833 31.833 53.5 49.5s34.167 35.834 49.5 54.501z" />
    <glyph glyph-name="Lslash" 
 />
    <glyph glyph-name="Zcaron" 
 />
    <glyph glyph-name="space" unicode=" " horiz-adv-x="244" 
 />
    <glyph glyph-name="exclam" unicode="!" horiz-adv-x="139" 
d="M119 685l-13.999 10c-8 -1.33301 -17.167 -4.83301 -27.5 -10.5s-20 -12.667 -29 -21s-16.5 -17.333 -22.5 -27s-9 -18.834 -9 -27.501c0 -10.667 0.5 -27.5 1.5 -50.5s2.33301 -48.833 4 -77.5s3.66699 -58.667 6 -90s5.16602 -60.833 8.49902 -88.5
s6.83301 -51.834 10.5 -72.501s7.83398 -35 12.501 -43c3.33301 -4 7.66602 -5.5 12.999 -4.5s8.33301 3.83301 9 8.5c3.33301 40.667 6.33301 81.834 9 123.501s5.66699 82.834 9 123.501l9.5 124zM121.001 92c0 14.667 -5.16797 27.5 -15.501 38.5
s-23.166 16.5 -38.499 16.5c-14 0 -25.5 -4 -34.5 -12s-13.5 -18.333 -13.5 -31c0 -6 1.16699 -12.5 3.5 -19.5s5.5 -13.333 9.5 -19s9 -10.5 15 -14.5s13 -6 21 -6c13.333 0 25.5 4.5 36.5 13.5s16.5 20.167 16.5 33.5z" />
    <glyph glyph-name="quotedbl" unicode="&#x22;" horiz-adv-x="237" 
d="M217 759c0 11.333 -4.16797 21.001 -12.501 29.001s-18.833 12 -31.5 12c-9.33301 0 -17 -1.66699 -23 -5s-10.667 -7.5 -14 -12.5s-5.66602 -10.167 -6.99902 -15.5s-2 -10 -2 -14v-14c0 -4.66699 0.333008 -9 1 -13l17 -206c0.666992 -6 4.16699 -11 10.5 -15
s12.5 -6 18.5 -6c12 0 19.333 4 22 12s4 15.333 4 22v4l9 110c0 1.33301 0.166992 3.66602 0.5 6.99902s0.833008 6.66602 1.5 9.99902c0.666992 2.66699 1 5.33398 1 8.00098v6l2 32l2 32c0.666992 2 1 4.33301 1 7v10zM109.999 759.001
c0 11.333 -4.16895 20.999 -12.502 28.999s-19.166 12 -32.499 12c-9.33301 0 -16.833 -1.66699 -22.5 -5s-10.167 -7.5 -13.5 -12.5s-5.66602 -10.167 -6.99902 -15.5s-2 -10 -2 -14v-14c0 -4.66699 0.333008 -9 1 -13l17 -206c0.666992 -6 4.16699 -11 10.5 -15
s12.166 -6 17.499 -6c12.667 0 20.334 4 23.001 12s4 15.333 4 22v4l8 110c0 1.33301 0.166992 3.66602 0.5 6.99902s0.833008 6.66602 1.5 9.99902c0.666992 2.66699 1 5.33398 1 8.00098v6c0.666992 10.667 1.5 21.334 2.5 32.001s1.83301 21.334 2.5 32.001
c0.666992 2 1 4.33301 1 7v10z" />
    <glyph glyph-name="numbersign" unicode="#" horiz-adv-x="507" 
d="M484 479c1.33301 6 -2.66113 8.99609 -11.9941 8.99609h-58c7.33301 30 13.166 59.833 17.499 89.5s8.16602 59.167 11.499 88.5c0.666992 2.66699 0 4.83398 -2 6.50098s-4.66699 2.83398 -8 3.50098l-45 7c-3.33301 0.666992 -6.33301 0.333984 -9 -0.999023
s-4.33398 -3 -5.00098 -5l-18.5 -95l-18.5 -95c-23.333 -0.666992 -44.333 -1.5 -63 -2.5s-39.334 -1.83301 -62.001 -2.5c2.66699 13.333 4.83398 25.5 6.50098 36.5s3.83398 23.167 6.50098 36.5c3.33301 19.333 6.16602 38.333 8.49902 57s4.83301 37.334 7.5 56.001
c1.33301 6 -1.66699 9 -9 9l-45 6c-3.33301 0.666992 -6.33301 0.333984 -9 -0.999023s-4.33398 -3 -5.00098 -5c-6.66699 -33.333 -12.834 -66.333 -18.501 -99s-11.834 -65.334 -18.501 -98.001l-57 -2c-6 0 -9.66699 -2.66699 -11 -8l-8 -42
c-1.33301 -6.66699 2.33398 -10 11.001 -10c7.33301 -0.666992 16.333 -1 27 -1c11.333 0 20.666 -0.333008 27.999 -1c-4.66699 -26 -8.5 -51 -11.5 -75s-6.83301 -49 -11.5 -75l-61 -2c-2 0 -4.16699 -0.833008 -6.5 -2.5s-3.83301 -3.5 -4.5 -5.5l-8 -44
c-0.666992 -2 0.333008 -4 3 -6s5.66699 -3 9 -3c9.33301 -0.666992 19 -1.5 29 -2.5s19.667 -1.83301 29 -2.5l-15 -115c0 -1.33301 -0.166992 -3.16602 -0.5 -5.49902s-0.5 -4.16602 -0.5 -5.49902c-2 -12 -3.83301 -24 -5.5 -36s-3.16699 -24 -4.5 -36
c-1.33301 -5.33301 1.66699 -8.66602 9 -9.99902l25 -7c8.66699 -1.33301 13.667 1 15 7l19 85c0.666992 3.33301 1.66699 7.66602 3 12.999l11.5 51c3.66699 16.667 6.83398 33.334 9.50098 50.001c0 1.33301 0.166992 2.66602 0.5 3.99902s0.5 2.66602 0.5 3.99902
c21.333 -1.33301 43.166 -2.16602 65.499 -2.49902s44.5 -1.16602 66.5 -2.49902l-27 -190c-0.666992 -2.66699 0 -4.83398 2 -6.50098s4.66699 -2.83398 8 -3.50098l26 -4c6 0 9.66699 2 11 6c0.666992 1.33301 1.33398 3 2.00098 5s0.666992 2.66699 0 2
c1.33301 1.33301 2.16602 2.33301 2.49902 3s0.5 2 0.5 4l28 124l5 30c1.33301 4.66699 2.33301 9.5 3 14.5s1.66699 9.83301 3 14.5l69 -2c2 0 4.16699 0.666992 6.5 2s3.83301 3 4.5 5l12 69c1.33301 7.33301 -2.66699 11 -12 11c-10 0 -20.167 -0.166992 -30.5 -0.5
s-20.5 -0.5 -30.5 -0.5c5.33301 23.333 9.5 45.166 12.5 65.499s6.83301 41.833 11.5 64.5l63 -1c6 0 9.66699 2.33301 11 7zM325.006 404.996l-11.5 -65.002c-3.66699 -20 -7.16699 -41.667 -10.5 -65c-22 -1.33301 -43.5 -2.16602 -64.5 -2.49902
s-42.167 -1.16602 -63.5 -2.49902l14 72l13 70z" />
    <glyph glyph-name="dollar" unicode="$" horiz-adv-x="379" 
d="M358 224c0 41.333 -12.5039 77.8389 -37.5039 109.506s-56.167 55.5 -93.5 71.5c0.666992 4.66699 0.833984 8.16699 0.500977 10.5s-0.166016 5.83301 0.500977 10.5l8 94.5c2.66699 31 6.33398 62.5 11.001 94.5c16.667 -3.33301 30.667 -11 42 -23s17 -26.667 17 -44
l-2 -17c0 -5.33301 3.16699 -8.33301 9.5 -9s10.5 1.33301 12.5 6c6 14 9.83301 28.333 11.5 43s2.5 29 2.5 43v12c0 4 -0.333008 7.66699 -1 11c0 3.33301 -2.33301 5.66602 -7 6.99902c-11.333 5.33301 -24.166 10.166 -38.499 14.499s-28.5 6.16602 -42.5 5.49902
c1.33301 5.33301 1.83301 9.16602 1.5 11.499s-0.166016 6.83301 0.500977 13.5c0.666992 6 1.16699 12 1.5 18s1.16602 12 2.49902 18c0.666992 3.33301 -0.166016 5.83301 -2.49902 7.5s-5.16602 2.5 -8.49902 2.5c-9.33301 0.666992 -16.833 -0.666016 -22.5 -3.99902
s-10 -7.83301 -13 -13.5s-5 -11.834 -6 -18.501s-1.5 -13.334 -1.5 -20.001v-19c-23.333 0.666992 -44.666 -2.33301 -63.999 -9s-36 -16.667 -50 -30s-25 -29.333 -33 -48s-12 -39.667 -12 -63c0 -40 12.167 -74.833 36.5 -104.5s54.5 -51.5 90.5 -65.5l-8 -115.5
c-2.66699 -37 -6 -75.167 -10 -114.5c-12.667 1.33301 -24.334 5.16602 -35.001 11.499s-20 14.5 -28 24.5s-14.167 21.167 -18.5 33.5s-6.5 24.833 -6.5 37.5v7c0 4 -2 6.66699 -6 8s-8 1 -12 -1l-14 -11c-5.33301 -12.667 -8.66602 -26.167 -9.99902 -40.5
s-2 -27.5 -2 -39.5v-15c0 -4.66699 0.333008 -9.33398 1 -14.001c0 -1.33301 0.666992 -2.66602 2 -3.99902s2.66602 -2.33301 3.99902 -3c17.333 -10 36.166 -18.667 56.499 -26s40.833 -12.666 61.5 -15.999c-1.33301 -6 -1.83301 -10.333 -1.5 -13
s0.166016 -6.66699 -0.500977 -12s-1.16699 -10.833 -1.5 -16.5s-1.16602 -11.167 -2.49902 -16.5c-1.33301 -7.33301 2.66699 -11 12 -11l10 -1c14.667 0 23.667 5 27 15s5.66602 21.333 6.99902 34c0.666992 4 1.16699 8.16699 1.5 12.5s0.833008 7.83301 1.5 10.5
c22 2.66699 42.5 8.16699 61.5 16.5s35.833 19.333 50.5 33s26.167 29.667 34.5 48s12.5 39.166 12.5 62.499zM196.996 615.006c-3.33301 -30 -6.5 -59.999 -9.5 -89.999s-5.5 -60 -7.5 -90c-16.667 10.667 -30.667 24.667 -42 42s-17 36.333 -17 57
c0 23.333 7.33301 42.166 22 56.499s32.667 22.5 54 24.5zM278.996 204.007c0 -23.333 -7.16797 -43.167 -21.501 -59.5s-32.166 -26.833 -53.499 -31.5l3.5 50l3.5 50c1.33301 15.333 2.5 31.166 3.5 47.499s2.16699 32.5 3.5 48.5
c17.333 -11.333 31.833 -26.166 43.5 -44.499s17.5 -38.5 17.5 -60.5z" />
    <glyph glyph-name="percent" unicode="%" horiz-adv-x="670" 
d="M645 214c0 18.667 -2.83301 36.833 -8.5 54.5s-14.167 33.5 -25.5 47.5s-25.166 25.167 -41.499 33.5s-35.166 12.5 -56.499 12.5c-22 0 -41.833 -3.83301 -59.5 -11.5s-33 -18.334 -46 -32.001s-23 -29.5 -30 -47.5s-10.5 -37.333 -10.5 -58
c0 -19.333 3 -38.166 9 -56.499s14.833 -34.5 26.5 -48.5s26 -25.167 43 -33.5s36.5 -12.5 58.5 -12.5c21.333 0 40.666 4.16699 57.999 12.5s32.166 19.5 44.499 33.5s21.833 30.167 28.5 48.5s10 37.5 10 57.5zM492 657.999l-12 10.9971
c-8.66699 -1.33301 -21.667 -2.5 -39 -3.5l-61 -3.5c-26 -2 -53.333 -4 -82 -6s-55.834 -4.16699 -81.501 -6.5s-47.834 -4.83301 -66.501 -7.5s-30.667 -5 -36 -7c-28 -11.333 -49.833 -27.5 -65.5 -48.5s-23.5 -46.167 -23.5 -75.5
c0 -19.333 3.83301 -38.666 11.5 -57.999s18.167 -36.833 31.5 -52.5s29 -28.5 47 -38.5s37.333 -15 58 -15s39.834 5.33301 57.501 16s32.834 24.167 45.501 40.5s22.5 34.333 29.5 54s10.5 38.834 10.5 57.501s-3.16699 36.167 -9.5 52.5s-16.166 30.5 -29.499 42.5
c25.333 4 48.5 6.66699 69.5 8s44.167 2 69.5 2h6l-95.5 -216l-96.5 -213l-27.5 -60l-27.5 -60c-2 -3.33301 -1.83301 -6.33301 0.5 -9s5.83301 -4 10.5 -4c1.33301 0 3.16602 -0.166992 5.49902 -0.5s4.5 -0.5 6.5 -0.5c6.66699 -0.666992 15.334 -0.166992 26.001 1.5
s18.667 6.5 24 14.5c4.66699 6.66699 9.66699 15.334 15 26.001s10.5 22 15.5 34l15.5 37l15 37c3.33301 7.33301 6.16602 14.333 8.49902 21l6.5 18c30 68.667 58.5 137.167 85.5 205.5zM575 225.996c0 -23.333 -4.33301 -46.668 -13 -70.001s-22.667 -41.666 -42 -54.999
c-14 2.66699 -26.5 8.33398 -37.5 17.001s-20.167 19 -27.5 31s-13 25.167 -17 39.5s-6 28.833 -6 43.5c0 12 1.5 23.5 4.5 34.5s7.66699 20.833 14 29.5s14.166 15.667 23.499 21s20.333 8 33 8c12 0 22.333 -3 31 -9s15.834 -13.833 21.501 -23.5
s9.66699 -20.334 12 -32.001s3.5 -23.167 3.5 -34.5zM242 510.994c0 -23.333 -4.33398 -46.0029 -13.001 -68.0029s-22.667 -38.667 -42 -50c-15.333 0.666992 -28.5 4.83398 -39.5 12.501s-20.167 17.334 -27.5 29.001s-12.833 24.834 -16.5 39.501s-5.5 29 -5.5 43
c0 12 1.33301 23.833 4 35.5s7 22 13 31s13.667 16.333 23 22s20.333 8.5 33 8.5s23.5 -3.16699 32.5 -9.5s16.333 -14.5 22 -24.5s9.83398 -21 12.501 -33s4 -24 4 -36z" />
    <glyph glyph-name="ampersand" unicode="&#x26;" horiz-adv-x="727" 
d="M697 69l-6.00098 14.0029c-40 5.33301 -76.833 18.166 -110.5 38.499s-64.5 44.5 -92.5 72.5c8 11.333 15.667 25 23 41s14.166 32.667 20.499 50s11.833 34.333 16.5 51l12 44c1.33301 4 -0.666992 7.33301 -6 10c-12 6.66699 -26 11.667 -42 15s-31.333 5 -46 5
c-16.667 0 -31.334 -2 -44.001 -6c-5.33301 -1.33301 -7.66602 -4.33301 -6.99902 -9s4 -7.33398 10 -8.00098c16.667 -2 30.334 -7.5 41.001 -16.5s16 -22.833 16 -41.5c0 -18 -3.83301 -36.167 -11.5 -54.5s-15.834 -35.5 -24.501 -51.5
c-5.33301 5.33301 -9.5 9.33301 -12.5 12l-15.5 14l-75.5 70.5c-27.667 26.333 -53.5 53.5 -77.5 81.5s-44 55.833 -60 83.5s-24 53.5 -24 77.5c0 26 8.33301 47.667 25 65s37.334 26 62.001 26c12.667 0 25.167 -2.33301 37.5 -7s23.333 -11.167 33 -19.5
s17.334 -18.5 23.001 -30.5s8.5 -25 8.5 -39v-7c0 -1.33301 -0.333008 -3.66602 -1 -6.99902c-0.666992 -2.66699 0 -4.66699 2 -6s4.16699 -2.33301 6.5 -3s4.83301 -0.5 7.5 0.5s4.66699 2.5 6 4.5c5.33301 12 9 24.333 11 37s3 25.667 3 39c0 10 -0.5 20 -1.5 30
s-2.83301 19.667 -5.5 29c-1.33301 2.66699 -4 4.66699 -8 6c-16 6.66699 -33.167 11.5 -51.5 14.5s-36.166 4.5 -53.499 4.5c-23.333 0 -46.333 -4.33301 -69 -13s-43 -20.5 -61 -35.5s-32.5 -32.833 -43.5 -53.5s-16.5 -43.334 -16.5 -68.001c0 -19.333 4 -37.5 12 -54.5
s19 -32.167 33 -45.5c-15.333 -13.333 -29.833 -26.833 -43.5 -40.5s-25.667 -28 -36 -43s-18.666 -31.333 -24.999 -49s-9.5 -37.167 -9.5 -58.5c0 -29.333 6.16699 -55.333 18.5 -78s28.666 -42 48.999 -58s43.333 -28.167 69 -36.5s51.834 -12.5 78.501 -12.5
c18 0 35.333 2.33301 52 7s33 10.667 49 18s31.333 15.666 46 24.999s28.667 19 42 29c8 -7.33301 17.5 -15.166 28.5 -23.499s22.5 -16 34.5 -23s24.167 -13 36.5 -18s24.166 -7.5 35.499 -7.5h6h29c13.333 0 26.666 0.166992 39.999 0.5s25.5 1.16602 36.5 2.49902
s17.833 3.33301 20.5 6zM392.999 161.003c-17.333 -19.333 -36.667 -34.667 -58 -46s-44.333 -17 -69 -17c-21.333 0 -41.333 4.33301 -60 13s-35.334 20.334 -50.001 35.001s-26.167 31.667 -34.5 51s-12.5 39.666 -12.5 60.999c0 26 4.83301 49.667 14.5 71
s22.834 41.333 39.501 60c32.667 -40.667 68.667 -80.5 108 -119.5s80 -75.167 122 -108.5z" />
    <glyph glyph-name="quotesingle" unicode="'" horiz-adv-x="128" 
d="M109 759c0 11.333 -4.50098 21 -13.501 29s-19.833 12 -32.5 12c-9.33301 0 -17 -1.66699 -23 -5s-10.667 -7.5 -14 -12.5s-5.66602 -10.167 -6.99902 -15.5s-2 -10 -2 -14c0 -2 0.166992 -4 0.5 -6s0.5 -4 0.5 -6v-15c3.33301 -34 6.5 -68.167 9.5 -102.5
s6.16699 -68.833 9.5 -103.5c0.666992 -6 4 -11 10 -15s12 -6 18 -6c12 0 19.167 4.33301 21.5 13s3.5 16.334 3.5 23.001l10 113v6c0 3.33301 0.333008 6.66602 1 9.99902c0 2 0.166992 4.33301 0.5 7s0.5 4.66699 0.5 6l6 65l-11 8c8 0 12 3 12 9z" />
    <glyph glyph-name="parenleft" unicode="(" horiz-adv-x="238" 
d="M216 24c-36 49.333 -64.833 102.499 -86.5 159.499s-32.5 116.833 -32.5 179.5s10.833 122.5 32.5 179.5s50.5 110.5 86.5 160.5c4 3.33301 3.5 6.83301 -1.5 10.5s-10.167 3.83398 -15.5 0.500977c-24.667 -23.333 -47.834 -48.5 -69.501 -75.5s-40.667 -55.5 -57 -85.5
s-29.166 -61.5 -38.499 -94.5s-14 -67.167 -14 -102.5c0 -34 4.66699 -67 14 -99s22 -62.5 38 -91.5s34.833 -56.333 56.5 -82s45.167 -49.5 70.5 -71.5z" />
    <glyph glyph-name="parenright" unicode=")" horiz-adv-x="243" 
d="M223 370c0 34.667 -4.66895 68.002 -14.002 100.002s-22.166 62.667 -38.499 92s-35.5 57 -57.5 83s-45.333 50.333 -70 73l-18 -12c36 -50 65 -104 87 -162s33 -118.667 33 -182c0 -62.667 -11.167 -122.334 -33.5 -179.001s-52.166 -109.667 -89.499 -159
c-4 -4 -3.5 -7.83301 1.5 -11.5s10.167 -3.83398 15.5 -0.500977c25.333 22.667 49.166 47.5 71.499 74.5s41.833 55.667 58.5 86s29.834 62 39.501 95s14.5 67.167 14.5 102.5z" />
    <glyph glyph-name="asterisk" unicode="*" horiz-adv-x="291" 
d="M300 602c-1.33301 8.66699 -4.16895 19.332 -8.50195 31.999s-11.166 22 -20.499 28c-5.33301 2 -10.333 1.33301 -15 -2c-6.66699 -7.33301 -16 -16 -28 -26s-22.667 -16.333 -32 -19c0.666992 3.33301 1.5 6.66602 2.5 9.99902s2.16699 6.66602 3.5 9.99902
c3.33301 11.333 6.33301 22 9 32s4 21.333 4 34c0 6.66699 -1.33301 13.667 -4 21c-2.66699 5.33301 -7 7.33301 -13 6c-11.333 -2 -22.166 -4.83301 -32.499 -8.5s-20.166 -9.16699 -29.499 -16.5c-4 -2.66699 -5.33301 -5.66699 -4 -9l10 -25
c3.33301 -8 6.33301 -16.5 9 -25.5s4.33398 -17.167 5.00098 -24.5c-2 1.33301 -4 2.83301 -6 4.5s-4.33301 3.16699 -7 4.5c-12 8.66699 -24.667 16.834 -38 24.501s-25 11.5 -35 11.5c-2.66699 0 -5.16699 -0.166992 -7.5 -0.5s-5.16602 -1.5 -8.49902 -3.5
s-5 -4.33301 -5 -7c0 -5.33301 0.166992 -10.166 0.5 -14.499s0.833008 -8.83301 1.5 -13.5c0.666992 -5.33301 1.16699 -10.166 1.5 -14.499s0.5 -8.83301 0.5 -13.5c0 -4 4 -6.66699 12 -8l12 -1h11c4 0 8 0.333008 12 1c8 0.666992 15.667 1 23 1c8 0 14.667 -1 20 -3
c-2.66699 -2.66699 -4.33398 -4.16699 -5.00098 -4.5s-3.33398 -2.5 -8.00098 -6.5c-7.33301 -6 -15 -12.667 -23 -20l-22.5 -21.5c-7 -7 -12.833 -13.833 -17.5 -20.5s-7 -12.334 -7 -17.001c0 -5.33301 3.33301 -8.66602 10 -9.99902
c9.33301 -2 18.833 -3.83301 28.5 -5.5s19.5 -2.5 29.5 -2.5h4c6.66699 0 10.667 2.66699 12 8c2 12.667 5.16699 25.5 9.5 38.5s10.166 24.5 17.499 34.5c1.33301 -3.33301 2.5 -6 3.5 -8s2.16699 -5 3.5 -9c2.66699 -8 5.66699 -16.167 9 -24.5s7 -16 11 -23
s8.5 -12.667 13.5 -17s10.833 -6.5 17.5 -6.5c6 0 11.333 2 16 6s8.66699 8.83301 12 14.5s6 11.167 8 16.5l5 13c-2.66699 8 -7.5 14.833 -14.5 20.5s-14.833 11.167 -23.5 16.5c-6 4.66699 -11.667 8.83398 -17 12.501s-9 8.16699 -11 13.5
c11.333 0.666992 22.333 1.16699 33 1.5s21.334 1.16602 32.001 2.49902c3.33301 0.666992 6.66602 1 9.99902 1c4 0 7.66699 0.333008 11 1z" />
    <glyph glyph-name="plus" unicode="+" horiz-adv-x="759" 
d="M733 391v38c0 5.33301 -4 8 -12 8h-314v324c0 6 -3.66699 9 -11 9h-36c-8 0 -12 -3 -12 -9v-324h-310c-8 0 -12 -2.66699 -12 -8v-38c0 -6 4 -9 12 -9h310v-321c0 -6 4 -9 12 -9h36c7.33301 0 11 3 11 9v321h314c8 0 12 3 12 9z" />
    <glyph glyph-name="comma" unicode="," horiz-adv-x="137" 
d="M119 119c0 14 -3.99805 25.667 -11.998 35s-17.667 17.333 -29 24l-9 1c-4.66699 -1.33301 -10 -3.66602 -16 -6.99902s-11.5 -7.5 -16.5 -12.5s-9.33301 -10.333 -13 -16s-5.5 -11.167 -5.5 -16.5c0 -1.33301 2 -4 6 -8c14.667 -13.333 22 -29.333 22 -48
c0 -10 -1.33301 -18.833 -4 -26.5s-5.66699 -15.834 -9 -24.501v1c-2 -5.33301 -3.5 -9.5 -4.5 -12.5s-2.16699 -6.16699 -3.5 -9.5c-1.33301 -4.66699 0.666992 -8 6 -10s10.333 -1.33301 15 2c7.33301 8 15.166 17 23.499 27s16.166 20.667 23.499 32
s13.5 22.833 18.5 34.5s7.5 23.167 7.5 34.5z" />
    <glyph glyph-name="hyphen" unicode="-" horiz-adv-x="352" 
d="M287 351c-2.66699 0.666992 -10.166 1.33398 -22.499 2.00098s-27 1.16699 -44 1.5s-35.167 0.666016 -54.5 0.999023s-37.666 0.5 -54.999 0.5h-44h-22c-2 0 -4.16699 -0.5 -6.5 -1.5s-3.83301 -2.16699 -4.5 -3.5c-4 -11.333 -7 -22.166 -9 -32.499
s-3.66699 -20.5 -5 -30.5c-0.666992 -3.33301 0.666016 -5.83301 3.99902 -7.5s7.33301 -2.16699 12 -1.5c20.667 8 42.667 14.333 66 19s46.666 9 69.999 13l58 10c19.333 3.33301 38 7.66602 56 12.999z" />
    <glyph glyph-name="period" unicode="." horiz-adv-x="201" 
d="M154 113c0 13.333 -5.5 26.166 -16.5 38.499s-24.167 18.5 -39.5 18.5c-16 0 -28.5 -5 -37.5 -15s-13.5 -21.667 -13.5 -35c0 -12.667 4.16699 -25.5 12.5 -38.5s20.166 -19.5 35.499 -19.5c6.66699 0 13.5 1.33301 20.5 4s13.333 6.33398 19 11.001s10.334 10 14.001 16
s5.5 12.667 5.5 20z" />
    <glyph glyph-name="slash" unicode="/" horiz-adv-x="479" 
d="M454 666l-4 11.999l-36 15c-2 1.33301 -4.5 1.5 -7.5 0.5s-5.16699 -2.16699 -6.5 -3.5l-40.5 -65l-40.5 -65l-147 -234.5l-148 -234.5c0 -0.666992 -0.333008 -1.66699 -1 -3s-0.666992 -2.66602 0 -3.99902c2 -8.66699 7.5 -16.167 16.5 -22.5s17.5 -10.5 25.5 -12.5
c2 -0.666992 4.33301 -0.5 7 0.5s4.66699 2.16699 6 3.5l189.5 306z" />
    <glyph glyph-name="zero" unicode="0" horiz-adv-x="493" 
d="M470 410c0 31.333 -3.83496 62.5 -11.502 93.5s-19.667 58.667 -36 83s-37.666 44 -63.999 59s-58.166 22.5 -95.499 22.5c-42 0 -78 -8.33301 -108 -25s-54.833 -38.834 -74.5 -66.501s-34.167 -58.834 -43.5 -93.501s-14 -70 -14 -106c0 -35.333 4.83301 -72 14.5 -110
s24.334 -72.833 44.001 -104.5s44.667 -58.167 75 -79.5s66.5 -32.666 108.5 -33.999l4 1c33.333 16 62.666 37.333 87.999 64s46.333 56.167 63 88.5s29.167 66.333 37.5 102s12.5 70.834 12.5 105.501zM374.998 382c0 -22 -1.83594 -46.833 -5.50293 -74.5
s-9.5 -55 -17.5 -82s-18.667 -52.167 -32 -75.5s-30 -41 -50 -53c-29.333 8.66699 -54.166 24.167 -74.499 46.5s-36.666 48 -48.999 77s-21.333 59.333 -27 91s-8.5 61.5 -8.5 89.5c0 19.333 1.66699 41.666 5 66.999s9.5 49.333 18.5 72s21.167 41.834 36.5 57.501
s35 23.5 59 23.5c28.667 0 52.334 -8 71.001 -24s33.5 -36 44.5 -60s18.667 -50 23 -78s6.5 -53.667 6.5 -77z" />
    <glyph glyph-name="one" unicode="1" horiz-adv-x="339" 
d="M316 75c-4.66699 5.33301 -10.3252 8.66602 -16.9922 9.99902s-14.334 2.66602 -23.001 3.99902c-6 0.666992 -12 1.66699 -18 3s-11.5 3.83301 -16.5 7.5s-9.16699 9 -12.5 16s-5 16.833 -5 29.5v112c0 36.667 0.333008 74 1 112s1 75.333 1 112v111v15v30
c0 10 -0.666992 19.667 -2 29c-0.666992 3.33301 -2.83398 5.5 -6.50098 6.5s-7.5 0.833008 -11.5 -0.5c-32 -17.333 -63.333 -35.666 -94 -54.999s-59.667 -40.666 -87 -63.999c-4.66699 -2.66699 -5.83398 -6 -3.50098 -10s6.16602 -5.66699 11.499 -5
c9.33301 1.33301 18.666 3.83301 27.999 7.5l26 10.5c8 4 15.333 7.5 22 10.5s12.667 4.5 18 4.5s9.66602 -1.66699 12.999 -5v-426c0 -11.333 -1.66699 -20.333 -5 -27s-7.83301 -11.667 -13.5 -15s-12 -5.66602 -19 -6.99902s-14.5 -2.33301 -22.5 -3
c-5.33301 -0.666992 -11.333 -1.33398 -18 -2.00098s-12.667 -1.66699 -18 -3c-6 -0.666992 -8.83301 -3.5 -8.5 -8.5s3.83301 -7.83301 10.5 -8.5c43.333 -1.33301 86.666 -2.5 129.999 -3.5s86.666 -1.5 129.999 -1.5z" />
    <glyph glyph-name="two" unicode="2" horiz-adv-x="439" 
d="M416 206l-22 2.99805c-7.33301 -18.667 -15.5 -33.667 -24.5 -45s-19.333 -20 -31 -26s-24.5 -9.83301 -38.5 -11.5s-30 -2.5 -48 -2.5h-82h-35c28 20.667 57.167 46 87.5 76s57.833 62.333 82.5 97s45 70.334 61 107.001s24 72.667 24 108c0 31.333 -6.5 57 -19.5 77
s-29.667 35.667 -50 47s-43.5 19.166 -69.5 23.499s-52 6.5 -78 6.5c-18 0 -37.333 -3 -58 -9s-38.667 -12.667 -54 -20c-4.66699 -1.33301 -7 -3.66602 -7 -6.99902c-0.666992 -4.66699 -1.16699 -9.5 -1.5 -14.5s-0.5 -10.167 -0.5 -15.5
c0 -14.667 0.833008 -29.334 2.5 -44.001s5.16699 -29.667 10.5 -45c2 -4.66699 6.16699 -6.66699 12.5 -6s9.5 3.33398 9.5 8.00098c0.666992 29.333 9 54.666 25 75.999s38.667 32 68 32c17.333 0 33.5 -3.66699 48.5 -11s28 -17.333 39 -30s19.5 -27 25.5 -43
s9 -32.333 9 -49c0 -26 -6 -52.667 -18 -80s-27.5 -54.5 -46.5 -81.5s-40 -53.667 -63 -80l-68.5 -75.5l-44 -48c-14 -15.333 -26.333 -29.666 -37 -42.999c-3.33301 -3.33301 -4 -6.66602 -2 -9.99902s5.66699 -5 11 -5h326c10 0 18.5 6.16699 25.5 18.5
s12.833 26.5 17.5 42.5s8 31.833 10 47.5s3 26.5 3 32.5z" />
    <glyph glyph-name="three" unicode="3" horiz-adv-x="415" 
d="M393 266c0 20 -3.33496 37.6621 -10.002 52.9951s-15.834 28.833 -27.501 40.5s-25.167 21.5 -40.5 29.5s-31.666 15 -48.999 21c10 8 19.833 17 29.5 27s18.334 20.5 26.001 31.5s14 22.833 19 35.5s7.5 25.667 7.5 39c0 18.667 -3.33301 35.834 -10 51.501
s-16 29.334 -28 41.001s-26 20.667 -42 27s-33.333 9.5 -52 9.5c-24.667 0 -51.334 -3.33301 -80.001 -10s-54.334 -15 -77.001 -25c-4.66699 -1.33301 -7 -3.66602 -7 -6.99902c-1.33301 -9.33301 -2.33301 -18.666 -3 -27.999s-1 -18.666 -1 -27.999
c0 -8 0.333008 -15.667 1 -23s2 -14.666 4 -21.999c1.33301 -4.66699 5.33301 -7 12 -7s10.334 2.66699 11.001 8c2.66699 27.333 12.5 49.5 29.5 66.5s38.833 25.5 65.5 25.5c13.333 0 26 -2.33301 38 -7s22.667 -11.167 32 -19.5s16.666 -18.5 21.999 -30.5s8 -25 8 -39
c0 -18.667 -3 -34.5 -9 -47.5s-13.667 -23.833 -23 -32.5s-19.333 -15.834 -30 -21.501s-21 -10.5 -31 -14.5l-26 -12c-7.33301 -3.33301 -12.666 -7.33301 -15.999 -12l8 -14c17.333 -3.33301 35.5 -9.16602 54.5 -17.499s36.333 -18.666 52 -30.999
s28.5 -26.833 38.5 -43.5s15 -35 15 -55c0 -18 -4.66699 -35 -14 -51s-21.166 -30 -35.499 -42s-30.5 -21.333 -48.5 -28s-35.667 -10 -53 -10c-30.667 0 -53.167 10.667 -67.5 32s-22.166 46.666 -23.499 75.999c-0.666992 5.33301 -4 8.33301 -10 9
s-10.333 -1.33301 -13 -6c-6 -15.333 -10.333 -31.333 -13 -48s-4 -33.667 -4 -51c0 -1.33301 0.166992 -3 0.5 -5s0.5 -4 0.5 -6v-11c0 -2.66699 1.66699 -4.66699 5 -6c15.333 -12.667 32.666 -22.167 51.999 -28.5s39.333 -9.5 60 -9.5c28 0 57 6.16699 87 18.5
s57.333 29 82 50s44.834 45.167 60.501 72.5s23.5 55.666 23.5 84.999z" />
    <glyph glyph-name="four" unicode="4" horiz-adv-x="496" 
d="M473 280c0 4 -0.163086 7.33496 -0.496094 10.002s-0.833008 5.33398 -1.5 8.00098l-15 6c-14.667 -5.33301 -29.334 -8 -44.001 -8c-12 0 -22.333 1.33301 -31 4v365c0 4 -2.5 6.66699 -7.5 8s-9.5 0.333008 -13.5 -3c-12.667 -12.667 -28.834 -29.834 -48.501 -51.501
l-63.5 -71.5l-70 -82l-67 -83.5c-20.667 -27 -38.834 -52 -54.501 -75s-26.5 -42.167 -32.5 -57.5c-2 -3.33301 -1.83301 -6 0.5 -8s5.5 -3 9.5 -3h264c-0.666992 -9.33301 -0.833984 -17 -0.500977 -23s0.5 -13.333 0.5 -22v-27c0 -10 -0.5 -20.833 -1.5 -32.5
s-3.16699 -21.834 -6.5 -30.501v1c-3.33301 -7.33301 -8.66602 -12 -15.999 -14s-14.333 -3.33301 -21 -4c-8.66699 -1.33301 -15.834 -2.33301 -21.501 -3s-9.83398 -3.66699 -12.501 -9c-2 -3.33301 -1.83301 -6.33301 0.5 -9s5.5 -4 9.5 -4h71l146 1
c6 0 9.83301 2.16699 11.5 6.5s-0.166016 7.83301 -5.49902 10.5c-9.33301 4.66699 -17.666 8 -24.999 10s-14 3.66699 -20 5c-4.66699 0.666992 -8.66699 1.66699 -12 3s-6.16602 4.33301 -8.49902 9s-4 11.5 -5 20.5s-1.5 21.5 -1.5 37.5v17c0 6 0.333008 12 1 18
c0.666992 6.66699 1.16699 13.167 1.5 19.5s0.166016 13.166 -0.500977 20.499h9c8 0 16.833 0.166992 26.5 0.5s18.667 1.66602 27 3.99902s15.166 6.33301 20.499 12s8 13.834 8 24.501zM296.004 299.002h-186l48 60l45.5 57.5l45.5 57l47 58.5v-233z" />
    <glyph glyph-name="five" unicode="5" horiz-adv-x="386" 
d="M365 646l-11.998 8.99805c-8 0 -15 -1 -21 -3c-6.66699 -2.66699 -11 -4 -13 -4h-222c-2 0 -4.16699 -0.666992 -6.5 -2s-3.83301 -3 -4.5 -5c-6.66699 -34 -11.667 -69 -15 -105s-5.66602 -72 -6.99902 -108c0 -4.66699 3.66699 -7.66699 11 -9
c46.667 -6 85 -18.833 115 -38.5s56.667 -51.167 80 -94.5c4 -7.33301 7.33301 -15.666 10 -24.999s4 -19 4 -29c0 -18.667 -4.5 -36 -13.5 -52s-20.5 -30 -34.5 -42s-29.833 -21.5 -47.5 -28.5s-35.167 -10.5 -52.5 -10.5c-29.333 0 -50.666 10 -63.999 30
s-19.333 44.333 -18 73c0 5.33301 -3.5 8.16602 -10.5 8.49902s-11.5 -1.83398 -13.5 -6.50098c-4 -13.333 -6.5 -27.5 -7.5 -42.5s-1.5 -29.833 -1.5 -44.5v-23c0 -7.33301 0.333008 -14.666 1 -21.999c0 -4 2.66699 -6.66699 8 -8c14 -5.33301 29.5 -9.16602 46.5 -11.499
s33.167 -3.5 48.5 -3.5c30.667 0 59.834 4.66699 87.501 14s52.167 23 73.5 41s38.333 39.667 51 65s19 54 19 86s-6.16699 62.5 -18.5 91.5s-29 54.5 -50 76.5s-45.833 39.333 -74.5 52s-59.334 18.667 -92.001 18c1.33301 16 2.5 31.667 3.5 47s2.5 31.333 4.5 48h161
c11.333 0 19.166 -4.33301 23.499 -13s7.5 -17 9.5 -25c1.33301 -2.66699 2.66602 -6 3.99902 -10s3.33301 -7.66699 6 -11c3.33301 -2.66699 7.16602 -3.66699 11.499 -3s7.16602 3 8.49902 7c8 36.667 12 74.334 12 113.001z" />
    <glyph glyph-name="six" unicode="6" horiz-adv-x="442" 
d="M420 235c0 20.667 -3.00293 41.835 -9.00293 63.502s-15 41.5 -27 59.5s-27.167 32.833 -45.5 44.5s-39.833 17.5 -64.5 17.5c-22.667 0 -44 -4.66699 -64 -14s-38.333 -20.333 -55 -33c-5.33301 -3.33301 -6.33301 -7 -3 -11s7.66602 -5.33301 12.999 -4
c9.33301 3.33301 18.833 6.33301 28.5 9s19.834 4 30.501 4c20 0 37.5 -4.5 52.5 -13.5s27.5 -20.833 37.5 -35.5s17.5 -31.334 22.5 -50.001s7.5 -37.334 7.5 -56.001c0 -14 -1.5 -28.333 -4.5 -43s-8 -28.334 -15 -41.001s-16 -23 -27 -31s-24.167 -12 -39.5 -12
c-23.333 0 -44.5 5.16699 -63.5 15.5s-35.167 24 -48.5 41s-23.833 36.167 -31.5 57.5s-11.5 43 -11.5 65c0 36 6.66699 72.5 20 109.5s30.833 72.333 52.5 106s46.5 64.834 74.5 93.501s56.667 53 86 73l-12 15c-37.333 -16 -74.166 -38 -110.499 -66
s-68.666 -59.667 -96.999 -95s-51.166 -73.5 -68.499 -114.5s-26 -82.5 -26 -124.5c0 -31.333 6.33301 -60.833 19 -88.5s29.667 -52 51 -73s46.166 -37.667 74.499 -50s58.166 -18.5 89.499 -18.5c27.333 0 51.333 6 72 18s37.834 27.5 51.501 46.5
s23.834 40.333 30.501 64s10 47.5 10 71.5z" />
    <glyph glyph-name="seven" unicode="7" horiz-adv-x="419" 
d="M396 635l-11.001 12.999c-12 0 -24.667 -0.166992 -38 -0.5s-27.333 -0.833008 -42 -1.5c-16 -0.666992 -32 -1.16699 -48 -1.5s-32 -0.5 -48 -0.5c-29.333 0 -57.833 1 -85.5 3s-52.834 6 -75.501 12c-9.33301 1.33301 -14 -1.33398 -14 -8.00098l-2 -18
c-0.666992 -6 -1.66699 -12.333 -3 -19c-2 -12.667 -3.66699 -25.334 -5 -38.001s-2 -25.667 -2 -39c0 -5.33301 0.333008 -10.666 1 -15.999s2.66699 -10.666 6 -15.999c2.66699 -4 6.66699 -5.5 12 -4.5s8.33301 3.83301 9 8.5c1.33301 10 4 19.667 8 29
s9.33301 17.666 16 24.999s14.167 13.333 22.5 18s17.5 7 27.5 7h171h8c2.66699 0 4.66699 0.333008 6 1h7c-21.333 -35.333 -44.166 -75.333 -68.499 -120s-47.833 -90.667 -70.5 -138s-42.667 -94.333 -60 -141s-29 -90 -35 -130
c-0.666992 -3.33301 0.333008 -6.16602 3 -8.49902s6.33398 -2.83301 11.001 -1.5c4.66699 0.666992 11.5 2.66699 20.5 6s18.167 7.33301 27.5 12s17.666 9.83398 24.999 15.501s12 11.167 14 16.5c3.33301 11.333 6.5 22.833 9.5 34.5s6.16699 23.167 9.5 34.5l12 45.5
c4 15 7.66699 27.833 11 38.5c22.667 64 48.834 128.5 78.501 193.5s60.5 127.833 92.5 188.5z" />
    <glyph glyph-name="eight" unicode="8" horiz-adv-x="429" 
d="M407 243c0 38 -10.666 69.998 -31.999 95.998s-49 45.667 -83 59c25.333 14.667 46.5 33.667 63.5 57s25.5 49.666 25.5 78.999c0 19.333 -4.33301 37.5 -13 54.5s-20 31.833 -34 44.5s-30.167 22.667 -48.5 30s-36.833 11 -55.5 11c-22.667 0 -44.667 -5 -66 -15
s-40.166 -23 -56.499 -39s-29.5 -34.5 -39.5 -55.5s-15 -42.5 -15 -64.5c0 -29.333 9 -54.166 27 -74.499s39.333 -36.166 64 -47.499c-35.333 -14 -64.5 -35.167 -87.5 -63.5s-34.5 -62.166 -34.5 -101.499c0 -25.333 5.5 -48.333 16.5 -69s25.5 -38.167 43.5 -52.5
s38.5 -25.333 61.5 -33s46.5 -11.5 70.5 -11.5c26.667 0 51.667 5.5 75 16.5s43.666 25.5 60.999 43.5s31.166 38.833 41.499 62.5s15.5 48.167 15.5 73.5zM304.001 528.998c0 -22 -5.16797 -43.001 -15.501 -63.001s-25.166 -35 -44.499 -45
c-14.667 0 -28.667 3.66699 -42 11s-25 16.833 -35 28.5s-17.833 24.834 -23.5 39.501s-8.5 29.667 -8.5 45c0 25.333 9 45.333 27 60s39 22 63 22c12.667 0 24 -2.83301 34 -8.5s18.333 -13 25 -22s11.667 -19.5 15 -31.5s5 -24 5 -36zM322 219.997
c0 -13.333 -2.16699 -27.332 -6.5 -41.999s-10.5 -28 -18.5 -40s-17.667 -22 -29 -30s-24 -12 -38 -12c-19.333 0 -36.666 4 -51.999 12s-28.333 18.667 -39 32s-18.834 28.666 -24.501 45.999s-8.5 35.333 -8.5 54c0 34 9.16699 62 27.5 84s44.166 33 77.499 33
c17.333 0 32.833 -4 46.5 -12s25.334 -18.5 35.001 -31.5s17 -27.667 22 -44s7.5 -32.833 7.5 -49.5z" />
    <glyph glyph-name="nine" unicode="9" horiz-adv-x="430" 
d="M408 445c0 29.333 -5.83594 58.333 -17.5029 87s-27.667 54.167 -48 76.5s-44.166 40.333 -71.499 54s-56.666 20.5 -87.999 20.5c-26 0 -49.167 -6 -69.5 -18s-37.166 -27.5 -50.499 -46.5s-23.5 -40.333 -30.5 -64s-10.5 -46.834 -10.5 -69.501
c0 -20 3 -39.833 9 -59.5s14.667 -37.5 26 -53.5s25.666 -28.833 42.999 -38.5s37.666 -14.5 60.999 -14.5c24.667 0 47.834 4.83301 69.501 14.5s41.167 21.167 58.5 34.5l-13 15c-9.33301 -5.33301 -19.166 -10 -29.499 -14s-20.5 -6 -30.5 -6
c-19.333 0 -36.333 5.16699 -51 15.5s-27 23.333 -37 39s-17.667 33 -23 52s-8 37.167 -8 54.5c0 28 6.16699 50.833 18.5 68.5s32.5 26.5 60.5 26.5c24 0 45 -4.16699 63 -12.5s33.167 -19.833 45.5 -34.5s21.5 -32 27.5 -52s9 -41.333 9 -64c0 -36.667 -6 -74 -18 -112
s-28.333 -74.333 -49 -109s-44.5 -66.5 -71.5 -95.5s-55.5 -53.167 -85.5 -72.5c-5.33301 -2.66699 -6.33301 -6.66699 -3 -12s8 -6.66602 14 -3.99902c38 15.333 75 36.666 111 63.999s68 58.333 96 93s50.5 72.334 67.5 113.001s25.5 82 25.5 124z" />
    <glyph glyph-name="colon" unicode=":" horiz-adv-x="142" 
d="M124 409c0 13.333 -5.50098 26.168 -16.501 38.501s-24.167 18.5 -39.5 18.5c-16 0 -28.5 -5 -37.5 -15s-13.5 -22 -13.5 -36c0 -6 1 -12.333 3 -19s5 -12.834 9 -18.501s9 -10.5 15 -14.5s13 -6 21 -6c6.66699 0 13.5 1.33301 20.5 4s13.333 6.5 19 11.5
s10.334 10.5 14.001 16.5s5.5 12.667 5.5 20zM123.999 138.002c0 13.333 -5.5 26.166 -16.5 38.499s-24.167 18.5 -39.5 18.5c-16 0 -28.5 -5 -37.5 -15s-13.5 -21.667 -13.5 -35c0 -12 4.16699 -24.667 12.5 -38s20.166 -20 35.499 -20c6.66699 0 13.5 1.33301 20.5 4
s13.333 6.33398 19 11.001s10.334 10.167 14.001 16.5s5.5 12.833 5.5 19.5z" />
    <glyph glyph-name="semicolon" unicode=";" horiz-adv-x="143" 
d="M125 409c0 13.333 -5.50098 26.168 -16.501 38.501s-24.167 18.5 -39.5 18.5c-16 0 -28.5 -5 -37.5 -15s-13.5 -22 -13.5 -36c0 -6 1 -12.333 3 -19s5 -12.834 9 -18.501s9 -10.5 15 -14.5s13 -6 21 -6c6.66699 0 13.5 1.33301 20.5 4s13.333 6.5 19 11.5
s10.334 10.5 14.001 16.5s5.5 12.667 5.5 20zM116.999 119.002c0 13.333 -2.99902 25.8301 -8.99902 37.4971s-17.333 19.167 -34 22.5l-7 -1c-7.33301 -3.33301 -15.833 -8.16602 -25.5 -14.499s-14.5 -14.833 -14.5 -25.5c0 -5.33301 0.833008 -9.66602 2.5 -12.999
l6.5 -13c3.33301 -6 6.16602 -12.667 8.49902 -20s3.5 -15 3.5 -23c0 -12 -2 -23.167 -6 -33.5s-8.66699 -20.166 -14 -29.499c-2.66699 -3.33301 -3 -6.33301 -1 -9s5.66699 -4 11 -4c12 0 22.833 5 32.5 15s18 21.667 25 35s12.333 27 16 41s5.5 25.667 5.5 35z" />
    <glyph glyph-name="less" unicode="&#x3c;" horiz-adv-x="238" 
d="M214 220l0.00195312 13.0029c-2.66699 2 -7.33398 6.5 -14.001 13.5l-23 24l-27.5 28.5l-26 28l-19.5 22.5c-5.33301 6.33301 -8 10.166 -8 11.499c0 2.66699 5 10.334 15 23.001l35 43l42 50.5c13.333 16.333 22 28.166 26 35.499c2 4.66699 0.666992 8.5 -4 11.5
s-9.66699 2.83301 -15 -0.5l-88 -79.5c-28.667 -27 -57 -55.5 -85 -85.5c-2.66699 -2.66699 -2.66699 -6.33398 0 -11.001c22 -28 45.167 -55.833 69.5 -83.5s50.166 -53.834 77.499 -78.501c6.66699 -4.66699 12.334 -4 17.001 2c7.33301 11.333 16.666 22 27.999 32z" />
    <glyph glyph-name="equal" unicode="=" horiz-adv-x="352" 
d="M287 385c-2.66699 0.666992 -10.165 1.16699 -22.498 1.5s-27 0.666016 -44 0.999023s-35.167 0.666016 -54.5 0.999023s-37.666 0.5 -54.999 0.5h-44h-22c-2 0 -4.16699 -0.333008 -6.5 -1s-3.83301 -1.66699 -4.5 -3c-7.33301 -15.333 -12 -31.333 -14 -48
c-0.666992 -2.66699 0.666016 -4.66699 3.99902 -6s7.33301 -1.66602 12 -0.999023c20.667 6 42.667 10.833 66 14.5s46.666 6.83398 69.999 9.50098c19.333 2.66699 38.666 5.16699 57.999 7.5s38 5.83301 56 10.5zM287.002 315
c-2.66699 0.666992 -10.165 1.16699 -22.498 1.5s-27 0.666016 -44 0.999023s-35.167 0.666016 -54.5 0.999023s-37.666 0.5 -54.999 0.5h-44h-22c-2 0 -4.16699 -0.333008 -6.5 -1s-3.83301 -1.66699 -4.5 -3c-7.33301 -15.333 -12 -31.333 -14 -48
c-0.666992 -2.66699 0.666016 -4.66699 3.99902 -6s7.33301 -1.66602 12 -0.999023c20.667 6 42.667 10.833 66 14.5s46.666 6.83398 69.999 9.50098c19.333 2.66699 38.666 5.16699 57.999 7.5s38 5.83301 56 10.5z" />
    <glyph glyph-name="greater" unicode="&#x3e;" horiz-adv-x="239" 
d="M217 332c-20.667 28 -43.5 55.668 -68.5 83.001s-51.167 53.666 -78.5 78.999c-7.33301 4.66699 -13 4.33398 -17 -0.999023l-14.5 -18c-4.33301 -5.33301 -9.16602 -10 -14.499 -14c-6 -4.66699 -6.33301 -9.33398 -1 -14.001c4 -3.33301 12.333 -11.333 25 -24l40 -41
l37.5 -40c11 -12 16.5 -19 16.5 -21c0 -3.33301 -5.5 -11.833 -16.5 -25.5l-36.5 -46.5l-40 -48.5c-12.667 -15 -20.667 -25.833 -24 -32.5c-2.66699 -4 -1.66699 -7.66699 3 -11s9.66699 -3.33301 15 0c26.667 19.333 51.334 40.333 74.001 63l66 68
c5.33301 5.33301 10.666 11 15.999 17s10.666 11.667 15.999 17z" />
    <glyph glyph-name="question" unicode="?" horiz-adv-x="365" 
d="M344 562c0 20.667 -5.00195 39.8271 -15.002 57.4941s-23 33 -39 46s-34 23 -54 30s-39.667 10.5 -59 10.5c-14.667 0 -31 -1.83301 -49 -5.5s-35 -9.5 -51 -17.5s-29.333 -18.5 -40 -31.5s-16 -28.833 -16 -47.5c0 -12 2.33301 -23.667 7 -35s10.667 -22 18 -32
c2.66699 -3.33301 6.5 -4.66602 11.5 -3.99902s8.16699 3 9.5 7c2.66699 12 6 24 10 36s9 22.5 15 31.5s13.5 16.333 22.5 22s20.167 8.5 33.5 8.5c12.667 0 25.334 -1 38.001 -3s24 -5.66699 34 -11s18 -12.666 24 -21.999s9 -21.666 9 -36.999
c0 -18.667 -4.16699 -38.667 -12.5 -60s-18.5 -42.666 -30.5 -63.999s-24.667 -42 -38 -62l-36 -52l-21.5 -31.5c-5.66699 -8.33301 -8.5 -14.166 -8.5 -17.499c0 -7.33301 2.66699 -15.5 8 -24.5s12 -17.5 20 -25.5s16.5 -14.833 25.5 -20.5s17.5 -8.5 25.5 -8.5
c6 0 9.83301 1.83301 11.5 5.5s0.166992 6.83398 -4.5 9.50098c-11.333 9.33301 -17 20 -17 32c0 17.333 7.16699 36.333 21.5 57l47.5 66c12 14.667 23.833 30 35.5 46s22.334 32.333 32.001 49s17.5 33.167 23.5 49.5s9 32.5 9 48.5zM222.998 91.9932
c0 14.667 -5 27.5 -15 38.5s-23 16.5 -39 16.5c-14 0 -25.333 -4 -34 -12s-13 -18.333 -13 -31c0 -6 1 -12.5 3 -19.5s5 -13.333 9 -19s9 -10.5 15 -14.5s13 -6 21 -6c14 0 26.333 4.5 37 13.5s16 20.167 16 33.5z" />
    <glyph glyph-name="at" unicode="@" horiz-adv-x="714" 
d="M688 358c2 34.667 -2.66406 68.001 -13.9971 100.001s-29.833 60.333 -55.5 85s-58.5 44.334 -98.5 59.001s-87.333 22 -142 22c-56.667 0 -106.334 -8.83301 -149.001 -26.5s-78.667 -41.5 -108 -71.5s-51.833 -64.5 -67.5 -103.5s-24.5 -79.5 -26.5 -121.5
c-2 -34 1.16699 -64.667 9.5 -92s20.166 -51.833 35.499 -73.5s33.5 -40.167 54.5 -55.5s43.167 -28.166 66.5 -38.499s47.166 -17.833 71.499 -22.5s47.5 -7 69.5 -7c53.333 0 106 9.66699 158 29v-1l4 1h-5c10 2.66699 16.5 4.33398 19.5 5.00098
s5.16699 1.33398 6.5 2.00098c3.33301 0.666992 5.66602 2 6.99902 4s1.33301 3.66699 0 5l-8 25c-1.33301 4.66699 -5.66602 5.66699 -12.999 3c-5.33301 -2 -12.5 -4.83301 -21.5 -8.5s-19.833 -7.16699 -32.5 -10.5c-12 -3.33301 -25.667 -6.33301 -41 -9
s-31.666 -4 -48.999 -4c-40 0 -76.167 6.83301 -108.5 20.5s-59.5 32.667 -81.5 57s-38.5 53 -49.5 86s-15.5 68.833 -13.5 107.5c0.666992 12 2.66699 26.667 6 44s8.83301 35.5 16.5 54.5s18 38 31 57s29.667 36 50 51s44.5 27.167 72.5 36.5s60.667 14 98 14
c36.667 0 69.667 -5.5 99 -16.5s54.166 -27 74.499 -48s35.666 -46.833 45.999 -77.5s14.5 -65.334 12.5 -104.001c-1.33301 -26.667 -5.16602 -48.834 -11.499 -66.501s-13.833 -31.834 -22.5 -42.501s-17.667 -18.167 -27 -22.5s-18 -6.5 -26 -6.5
c-13.333 0 -24 4.83301 -32 14.5s-11.333 21.167 -10 34.5c0 2 0.166992 5 0.5 9s0.833008 8.33301 1.5 13l1 19l4.5 50c1.66699 18 3.5 34.667 5.5 50c0.666992 4.66699 1.16699 9.16699 1.5 13.5s0.833008 9.16602 1.5 14.499
c1.33301 5.33301 2.16602 10.166 2.49902 14.499s0.833008 8.83301 1.5 13.5c0 2.66699 -3.5 5.66699 -10.5 9s-14.833 6.33301 -23.5 9s-17.167 4.83398 -25.5 6.50098s-13.833 2.83398 -16.5 3.50098c-9.33301 1.33301 -17 2.16602 -23 2.49902s-9.66699 0.5 -11 0.5
c-31.333 0 -57.833 -5.83301 -79.5 -17.5s-39.5 -26.5 -53.5 -44.5s-24.5 -37.667 -31.5 -59s-11.167 -41.333 -12.5 -60c-1.33301 -26 1.5 -47.667 8.5 -65s16.167 -31.166 27.5 -41.499s23.666 -17.833 36.999 -22.5s25 -7 35 -7h15l37 25.5l38 26.5
c8 -13.333 19.833 -25.666 35.5 -36.999s35.5 -17 59.5 -17c20.667 0 41.334 4.66699 62.001 14s39.334 22.666 56.001 39.999s30.5 38.666 41.5 63.999s17.5 53.666 19.5 84.999zM421.003 386.001l-4 -67.999l-2 -37l-2 -33c-8 -7.33301 -17.167 -13.5 -27.5 -18.5
s-20.5 -7.5 -30.5 -7.5c-18.667 0 -35.334 9 -50.001 27s-21 44.667 -19 80c0.666992 12.667 3 25 7 37s9.16699 22.667 15.5 32s14 16.833 23 22.5s19.167 8.5 30.5 8.5c2.66699 0 6.5 -0.666992 11.5 -2s10.333 -3.5 16 -6.5s11.334 -7.33301 17.001 -13
s10.5 -12.834 14.5 -21.501z" />
    <glyph glyph-name="A" unicode="A" horiz-adv-x="805" 
d="M778 1l0.00195312 17.999c-19.333 1.33301 -37.5 6 -54.5 14s-30.167 21.667 -39.5 41l-42.5 95.5l-42.5 103.5l-40.5 105l-37.5 100c-8.66699 23.333 -17.834 46 -27.501 68s-18.5 43.667 -26.5 65c-1.33301 2.66699 -2.5 6 -3.5 10s-2.83301 8 -5.5 12
c-7.33301 20.667 -15.666 43 -24.999 67s-19.666 42.333 -30.999 55c-2.66699 3.33301 -5.66699 4 -9 2s-5.66602 -4.33301 -6.99902 -7l-73 -193l-71 -193l-47.5 -135.5c-15.667 -46.333 -32.167 -91.5 -49.5 -135.5c-3.33301 -8 -7.83301 -16.5 -13.5 -25.5
s-12.334 -17.333 -20.001 -25s-15.667 -14 -24 -19s-16.833 -7.5 -25.5 -7.5c-0.666992 0 -2.5 0.166992 -5.5 0.5s-5.16699 -0.5 -6.5 -2.5c-2.66699 -2.66699 -3.33398 -5.33398 -2.00098 -8.00098c0.666992 -1.33301 1.66699 -2.66602 3 -3.99902l2 -2l208 -1
c6.66699 0 10.167 2.5 10.5 7.5s-2.83398 8.16699 -9.50098 9.5c-10 1.33301 -20.167 3.83301 -30.5 7.5s-15.5 11.167 -15.5 22.5c0 8.66699 2.83301 23.834 8.5 45.501s12.5 44.667 20.5 69l24.5 71c8.33301 23 15.166 40.5 20.499 52.5h197l47.5 -126l48.5 -126l-35 -18
c-4 -3.33301 -5 -6.33301 -3 -9s5.66699 -4.33398 11 -5.00098c14 -1.33301 31.333 -1.66602 52 -0.999023s38.334 1 53.001 1c20 -0 39.667 -0.166992 59 -0.5s38.666 0.166992 57.999 1.5zM467.002 336.999h-161l40.5 120.5l38.5 120.5z" />
    <glyph glyph-name="B" unicode="B" horiz-adv-x="565" 
d="M541 218c0 24.667 -4.00293 47.8311 -12.0029 69.498s-19.167 41.167 -33.5 58.5s-31.333 32.5 -51 45.5s-40.834 23.167 -63.501 30.5c11.333 10.667 22.333 22.334 33 35.001s20.167 26 28.5 40s15 28.5 20 43.5s7.5 30.5 7.5 46.5c0 27.333 -6.66699 51 -20 71
s-30.166 36.667 -50.499 50s-43 23.166 -68 29.499s-49.167 9.5 -72.5 9.5c-15.333 0 -29.833 -0.5 -43.5 -1.5s-27.167 -2.16699 -40.5 -3.5c-14 -1.33301 -27.667 -2.5 -41 -3.5s-26.666 -1.5 -39.999 -1.5c-19.333 0 -38 2.33301 -56 7
c-5.33301 0.666992 -9.5 -0.666016 -12.5 -3.99902s-2.83301 -6.66602 0.5 -9.99902c5.33301 -7.33301 11.5 -11.833 18.5 -13.5s14.833 -3.16699 23.5 -4.5l12.5 -2c4.33301 -0.666992 8.33301 -2.5 12 -5.5s6.5 -7.5 8.5 -13.5s3 -14 3 -24v-552
c0 -16.667 -0.5 -30 -1.5 -40s-3.66699 -18 -8 -24s-10.666 -11 -18.999 -15s-19.5 -8.33301 -33.5 -13l4 -17h136h20c8 0 16.667 -0.333008 26 -1c12 -0.666992 24.333 -1.16699 37 -1.5s24.667 -0.5 36 -0.5s21.666 0.166992 30.999 0.5s17 1.16602 23 2.49902
c26 4.66699 50.333 13.5 73 26.5s42.334 28.833 59.001 47.5s29.834 39.834 39.501 63.501s14.5 48.5 14.5 74.5zM372.997 571.997c0 -28 -3.99902 -50.834 -11.999 -68.501s-19.333 -31.5 -34 -41.5s-31.834 -16.667 -51.501 -20s-41.5 -5 -65.5 -5v262
c14.667 4.66699 30.667 7 48 7c18 0 34.167 -3.66699 48.5 -11s26.333 -17.166 36 -29.499s17.167 -26.5 22.5 -42.5s8 -33 8 -51zM439.998 187.996c0 -19.333 -3.16699 -37.6689 -9.5 -55.002s-15.333 -32.666 -27 -45.999s-25.667 -23.833 -42 -31.5
s-34.166 -11.5 -53.499 -11.5c-9.33301 0 -19.833 1.66699 -31.5 5s-22.5 8.33301 -32.5 15s-18.333 14.5 -25 23.5s-10 19.167 -10 30.5v270c18.667 0 38.5 -0.833008 59.5 -2.5s39.5 -6.5 55.5 -14.5c16.667 -8 32.167 -18.5 46.5 -31.5s26.666 -27.5 36.999 -43.5
s18.333 -33.167 24 -51.5s8.5 -37.166 8.5 -56.499z" />
    <glyph glyph-name="C" unicode="C" horiz-adv-x="726" 
d="M700 148c0 12 -0.999023 23.6709 -2.99902 35.0039l-22 2c-12 -24.667 -23.833 -46.334 -35.5 -65.001s-25.167 -34.167 -40.5 -46.5s-33.166 -21.5 -53.499 -27.5s-44.833 -9 -73.5 -9c-50 0 -95.833 10.333 -137.5 31s-77.834 48.334 -108.501 83.001
s-54.5 74.334 -71.5 119.001s-25.5 91 -25.5 139c0 46 7.16699 87.833 21.5 125.5s34.666 69.667 60.999 96s58 46.833 95 61.5s78.5 22 124.5 22c28 0 54.333 -3.66699 79 -11s46.667 -18.333 66 -33s35.666 -32.834 48.999 -54.501s22.333 -46.834 27 -75.501
c1.33301 -5.33301 5 -8 11 -8c6.66699 0 10.667 2.66699 12 8c5.33301 30 9.66602 60.167 12.999 90.5s5.33301 60.833 6 91.5c0 6 -3.33301 9 -10 9c-16.667 1.33301 -33.667 3.16602 -51 5.49902s-34.666 4.83301 -51.999 7.5c-23.333 3.33301 -47 6.5 -71 9.5
s-48.333 4.5 -73 4.5c-21.333 0 -45.166 -1.33301 -71.499 -4s-52.5 -7.33398 -78.5 -14.001s-50.667 -15.334 -74 -26.001s-42.666 -24 -57.999 -40c-41.333 -42 -73.166 -90.167 -95.499 -144.5s-33.5 -110.833 -33.5 -169.5c0 -54.667 9.5 -104.5 28.5 -149.5
s45.167 -83.667 78.5 -116s73.166 -57.333 119.499 -75s96.833 -26.5 151.5 -26.5c43.333 0 86.166 2.16699 128.499 6.5s84.5 9.83301 126.5 16.5c4 0 7 1.66699 9 5c10 18 17.833 38.667 23.5 62s8.5 45 8.5 65z" />
    <glyph glyph-name="D" unicode="D" horiz-adv-x="802" 
d="M775 382l0.00292969 36.998c0 14 -0.666992 27.333 -2 40c-2 24.667 -9.33301 49 -22 73s-28.5 46.667 -47.5 68s-40.833 40.833 -65.5 58.5s-50.167 33 -76.5 46s-52.666 23.167 -78.999 30.5s-51.166 11 -74.499 11c-16.667 0 -34.334 -0.166992 -53.001 -0.5
s-36.667 -1.16602 -54 -2.49902c-18.667 -1.33301 -36.667 -2.5 -54 -3.5s-35 -1.5 -53 -1.5c-14.667 0 -28.834 0.333008 -42.501 1s-27.834 1.66699 -42.501 3l-35 2c-12 0.666992 -24 1 -36 1c-4 0 -7.16699 -1.33301 -9.5 -4s-2.5 -5.66699 -0.5 -9
c2 -5.33301 6 -8.83301 12 -10.5s13 -3.16699 21 -4.5c4.66699 -0.666992 9.66699 -1.66699 15 -3s10.333 -3.66602 15 -6.99902s8.5 -8 11.5 -14s4.5 -14 4.5 -24v-553c0 -14.667 -0.666992 -27.167 -2 -37.5s-4.16602 -19 -8.49902 -26s-10.5 -12.833 -18.5 -17.5
s-18.667 -8.33398 -32 -11.001c-6.66699 -1.33301 -9.5 -4.66602 -8.5 -9.99902s4.83301 -8 11.5 -8c26.667 1.33301 53.5 1.16602 80.5 -0.500977s53.833 -3.5 80.5 -5.5c22.667 -2 45.667 -3.66699 69 -5s46.666 -2 69.999 -2c64 0 122.167 7.83301 174.5 23.5
s97.166 39.5 134.499 71.5s66.166 72.333 86.499 121s30.5 106.334 30.5 173.001zM671.003 344.998c0 -50.667 -8.00391 -95.001 -24.0039 -133.001s-38.167 -69.5 -66.5 -94.5s-62.5 -43.833 -102.5 -56.5s-84 -19 -132 -19c-18 0 -38.167 1.83301 -60.5 5.5
s-41.166 10.834 -56.499 21.501c-3.33301 2.66699 -6.16602 7.66699 -8.49902 15s-4.16602 15.166 -5.49902 23.499s-2.16602 16.833 -2.49902 25.5s-0.5 15.667 -0.5 21v529c16 5.33301 32.167 9 48.5 11s33.166 3 50.499 3c52.667 0 101.167 -8.33301 145.5 -25
s82.333 -40.167 114 -70.5s56.334 -67.166 74.001 -110.499s26.5 -92 26.5 -146z" />
    <glyph glyph-name="E" unicode="E" horiz-adv-x="496" 
d="M473 131c0.666992 2.66699 -0.165039 4.83301 -2.49805 6.5s-4.83301 2.66699 -7.5 3s-5.33398 0.166016 -8.00098 -0.500977s-4.33398 -2.33398 -5.00098 -5.00098c-7.33301 -30 -21.5 -52.667 -42.5 -68s-45.833 -23 -74.5 -23c-22 0 -44.833 4.5 -68.5 13.5
s-41.5 23.833 -53.5 44.5v270h17h36c14.667 0 29.5 -0.5 44.5 -1.5s28.833 -2.66699 41.5 -5s21 -5.5 25 -9.5c3.33301 -2.66699 5.83301 -7 7.5 -13s3.5 -12 5.5 -18c1.33301 -4 3.16602 -8.66699 5.49902 -14s5.5 -10 9.5 -14c4 -3.33301 8.33301 -4.33301 13 -3s7 4 7 8
c2 26 5 51.333 9 76l4 30.5l4 30.5c0.666992 3.33301 -0.666016 6 -3.99902 8s-7 2.66699 -11 2c-3.33301 -0.666992 -7.83301 -2.16699 -13.5 -4.5s-12.167 -5.16602 -19.5 -8.49902c-6.66699 -3.33301 -13.334 -6.16602 -20.001 -8.49902s-11.667 -3.5 -15 -3.5h-147v267
c5.33301 -1.33301 8.83301 -1.66602 10.5 -0.999023s5.16699 1 10.5 1h21c7.33301 0 14.333 0.333008 21 1c6 0.666992 12 1 18 1h17c27.333 0 49.833 -4.83301 67.5 -14.5s27.834 -29.834 30.501 -60.501c0.666992 -5.33301 4.33398 -8 11.001 -8s10.667 2.66699 12 8
c0.666992 3.33301 1.33398 6 2.00098 8s1.33398 4.33301 2.00098 7c4 17.333 7.83301 35.333 11.5 54s6.5 37.334 8.5 56.001c0.666992 3.33301 -0.833008 5.83301 -4.5 7.5s-7.83398 1.83398 -12.501 0.500977c-8 -4.66699 -14 -7 -18 -7h-384c-5.33301 0 -9 -2 -11 -6
s-0.333008 -7.33301 5 -10c6.66699 -4.66699 13.334 -8.33398 20.001 -11.001s13.667 -4.66699 21 -6l13.5 -4c4.33301 -1.33301 8.33301 -3.5 12 -6.5s6.5 -7.16699 8.5 -12.5s3 -12.333 3 -21v-557c0 -11.333 -0.666992 -22.166 -2 -32.499s-4 -19.5 -8 -27.5
s-9.83301 -14.333 -17.5 -19s-17.834 -7.33398 -30.501 -8.00098c-6.66699 0 -10.167 -2.83301 -10.5 -8.5s2.83398 -8.5 9.50098 -8.5c24 -2.66699 49.667 -4.33398 77 -5.00098s55 -1 83 -1c15.333 0 30.666 0.166992 45.999 0.5s30.666 0.5 45.999 0.5h127l18 5
c5.33301 0 8.66602 2.33301 9.99902 7l3 24c2 16 4.16699 31.833 6.5 47.5s5.5 31.167 9.5 46.5z" />
    <glyph glyph-name="F" unicode="F" horiz-adv-x="488" 
d="M465 743l-15.9941 7.99902c-18 -7.33301 -35.667 -11 -53 -11h-105c-43.333 0 -86.166 0.166992 -128.499 0.5s-85.166 1.16602 -128.499 2.49902c-5.33301 0 -8.83301 -2.16699 -10.5 -6.5s0.166016 -7.83301 5.49902 -10.5c6.66699 -4 13.334 -7.16699 20.001 -9.5
s13 -4.16602 19 -5.49902c5.33301 -1.33301 10.166 -2.66602 14.499 -3.99902s8.16602 -3.5 11.499 -6.5s6 -7.33301 8 -13s3 -13.5 3 -23.5v-554c0 -16 -0.333008 -29.167 -1 -39.5s-3 -18.666 -7 -24.999s-10 -11.166 -18 -14.499s-19.333 -6.33301 -34 -9
c-6.66699 -1.33301 -9.83398 -4.5 -9.50098 -9.5s3.83301 -7.5 10.5 -7.5c40.667 -2 82 -3 124 -3c40.667 0 81 1 121 3l-2 17c-33.333 -1.33301 -54.833 5.5 -64.5 20.5s-14.5 38.5 -14.5 70.5v256c5.33301 -0.666992 9.66602 -1 12.999 -1h14
c7.33301 0 14.166 0.166992 20.499 0.5s13.166 0.833008 20.499 1.5c6.66699 0.666992 13 1.16699 19 1.5s12 0.5 18 0.5c26 0 46.167 -5.16699 60.5 -15.5s21.166 -29.833 20.499 -58.5c0 -2.66699 1.16699 -4.66699 3.5 -6s4.83301 -2.16602 7.5 -2.49902s5.16699 0 7.5 1
s3.83301 2.83301 4.5 5.5c5.33301 23.333 9.66602 47 12.999 71s5.66602 48.333 6.99902 73c0 4.66699 -2.33301 7.66699 -7 9s-9 0.333008 -13 -3c-3.33301 -4 -9 -8.83301 -17 -14.5s-14.667 -8.5 -20 -8.5h-172v256c10.667 0 19.667 0.666992 27 2
s16.333 2.66602 27 3.99902l35 4c11.333 1.33301 22.666 2 33.999 2c26 0 46.667 -5.66699 62 -17s23 -31.333 23 -60c0 -4 1.83301 -6.66699 5.5 -8s7.83398 -1 12.501 1c5.33301 4 9.66602 9.83301 12.999 17.5s5.83301 16.167 7.5 25.5s2.83398 19.166 3.50098 29.499
s1.33398 20.166 2.00098 29.499c0.666992 6.66699 1.16699 13 1.5 19s0.833008 11 1.5 15z" />
    <glyph glyph-name="G" unicode="G" horiz-adv-x="794" 
d="M758 353l-0.999023 16.999c-39.333 2 -78.5 3.33301 -117.5 4s-78.167 1 -117.5 1c-6 0 -9.83301 -2.16699 -11.5 -6.5s0.166016 -7.83301 5.49902 -10.5c6 -3.33301 12 -5.83301 18 -7.5l19 -5.5c9.33301 -3.33301 18.166 -7.66602 26.499 -12.999
s12.5 -14.666 12.5 -27.999v-221c-15.333 -15.333 -33.333 -25.166 -54 -29.499s-41 -6.5 -61 -6.5c-13.333 0 -28.166 1 -44.499 3s-32.5 4.83301 -48.5 8.5s-31.5 8.33398 -46.5 14.001s-28.167 12.5 -39.5 20.5c-24.667 17.333 -47.5 37.666 -68.5 60.999
s-39 48.833 -54 76.5s-26.833 56.5 -35.5 86.5s-13 60.667 -13 92c0 45.333 8 86.833 24 124.5s38.167 70 66.5 97s61.666 47.833 99.999 62.5s79.833 22 124.5 22c26 0 51 -3 75 -9s45.667 -15.5 65 -28.5s35.666 -29.5 48.999 -49.5s22.333 -44 27 -72
c0.666992 -3.33301 2.66699 -5.5 6 -6.5s7 -0.833008 11 0.5c5.33301 2.66699 9.83301 10.5 13.5 23.5s6.5 27.667 8.5 44s3.33301 33 4 50s1 30.833 1 41.5v13c0 2 -1 4 -3 6s-4.66699 3 -8 3c-13.333 1.33301 -26.166 3 -38.499 5l-38.5 6
c-28.667 4 -58.167 7.66699 -88.5 11s-60.5 5 -90.5 5c-56 0 -108.833 -7.83301 -158.5 -23.5s-93 -39 -130 -70s-66.333 -69.333 -88 -115s-32.5 -98.167 -32.5 -157.5c0 -49.333 8.16699 -97 24.5 -143s39.666 -87.167 69.999 -123.5s66.833 -66.333 109.5 -90
s90 -37.5 142 -41.5c28.667 -2 58 -3 88 -3c18.667 0 38.334 0.5 59.001 1.5s41.334 3.5 62.001 7.5s40.5 9.5 59.5 16.5s36.5 16.5 52.5 28.5c3.33301 1.33301 5 3.66602 5 6.99902v249c0 9.33301 1.66699 17 5 23s7.83301 10.833 13.5 14.5s12 6.66699 19 9
s14.5 4.16602 22.5 5.49902z" />
    <glyph glyph-name="H" unicode="H" horiz-adv-x="832" 
d="M801 15c-6 6 -12.8291 9.83398 -20.4961 11.501s-15.167 2.83398 -22.5 3.50098c-3.33301 0.666992 -7.5 1.16699 -12.5 1.5s-8.16699 1.16602 -9.5 2.49902c-2.66699 0.666992 -5.33398 4.66699 -8.00098 12s-5 15.5 -7 24.5s-3.66699 17.667 -5 26s-2 14.166 -2 17.499
v552c0 20.667 5.66699 34.167 17 40.5s25.666 11.166 42.999 14.499c6 1.33301 8.83301 4.5 8.5 9.5s-3.5 7.83301 -9.5 8.5c-38.667 2.66699 -77.5 4.33398 -116.5 5.00098s-78.167 1 -117.5 1c-3.33301 0 -6.33301 -1 -9 -3s-3.66699 -4.33301 -3 -7
c1.33301 -8.66699 6.83301 -14 16.5 -16s19.5 -3.33301 29.5 -4c3.33301 0 7 -0.666992 11 -2c10 -2.66699 16.667 -8.5 20 -17.5s5 -19.167 5 -30.5v-229h-397v230c0 17.333 5.83301 30.333 17.5 39s25.167 13.334 40.5 14.001c6 0 9.16699 2.83301 9.5 8.5
s-2.5 8.83398 -8.5 9.50098c-38.667 3.33301 -77.167 5.5 -115.5 6.5s-77.166 1.5 -116.499 1.5c-4.66699 0 -8.16699 -1.33301 -10.5 -4s-2.5 -5.66699 -0.5 -9c2.66699 -6.66699 7.16699 -11 13.5 -13s14.166 -3.33301 23.499 -4c4.66699 -0.666992 9.5 -1.5 14.5 -2.5
s9.5 -3 13.5 -6s7.16699 -7.83301 9.5 -14.5s3.5 -15.667 3.5 -27v-554c0 -16.667 -0.333008 -30 -1 -40s-3 -18 -7 -24s-10 -10.667 -18 -14s-19.333 -6.33301 -34 -9c-6 -1.33301 -8.83301 -4.5 -8.5 -9.5s3.5 -7.83301 9.5 -8.5c40.667 -2 82 -3 124 -3
c40.667 0 81 1 121 3c6.66699 0.666992 9.66699 4 9 10s-4.33398 8.66699 -11.001 8c-16.667 -1.33301 -30.167 -0.166016 -40.5 3.50098s-18.333 9.16699 -24 16.5s-9.5 16.833 -11.5 28.5s-3 25.5 -3 41.5v272h398v-275c0 -6.66699 -0.5 -14.834 -1.5 -24.501
s-3 -19.167 -6 -28.5s-6.83301 -17.333 -11.5 -24s-10.667 -10 -18 -10c-4 0 -9.33301 1.33301 -16 4c-5.33301 2 -9.83301 0.5 -13.5 -4.5s-2.5 -8.83301 3.5 -11.5c5.33301 -2.66699 12.666 -4.83398 21.999 -6.50098s19.333 -2.83398 30 -3.50098s20.667 -1 30 -1h24h141
c5.33301 0 9 1.5 11 4.5s1 6.16699 -3 9.5z" />
    <glyph glyph-name="I" unicode="I" horiz-adv-x="312" 
d="M288 16c-6 6 -12.6689 9.50195 -20.002 10.502s-14.666 1.5 -21.999 1.5c-3.33301 0 -7.66602 0.666992 -12.999 2s-9.66602 2.66602 -12.999 3.99902c-2 2.66699 -4.16699 7.83398 -6.5 15.501s-4.5 15.834 -6.5 24.501s-3.66699 16.834 -5 24.501s-2 13.167 -2 16.5
v551c0 20.667 5.66699 34.334 17 41.001s26 11.667 44 15c6.66699 1.33301 9.66699 4.5 9 9.5s-4.33398 7.83301 -11.001 8.5c-19.333 1.33301 -38.333 1.66602 -57 0.999023s-37.334 -1 -56.001 -1c-19.333 0 -38.5 0.166992 -57.5 0.5s-38.167 -0.166992 -57.5 -1.5
c-6 -0.666992 -9 -3.66699 -9 -9s3 -8.33301 9 -9c17.333 -2 32.333 -6.83301 45 -14.5s19 -21.5 19 -41.5v-546c0 -6.66699 -0.5 -14.834 -1.5 -24.501s-3 -19.167 -6 -28.5s-6.83301 -17.333 -11.5 -24s-10.667 -10 -18 -10c-2 0 -7.5 -1.16699 -16.5 -3.5
s-15.167 -2.83301 -18.5 -1.5c-2.66699 1.33301 -5.33398 1.16602 -8.00098 -0.500977s-4.66699 -3.83398 -6 -6.50098s-2 -5.33398 -2 -8.00098s1.33301 -4.66699 4 -6c4.66699 -2 18.834 -2.5 42.501 -1.5s50.167 1.5 79.5 1.5c18 0 35.667 -0.166992 53 -0.5
s33 -0.833008 47 -1.5s25.333 -1.16699 34 -1.5l13 -0.5c5.33301 0 8.83301 1.5 10.5 4.5s0.833984 6.16699 -2.49902 9.5z" />
    <glyph glyph-name="J" unicode="J" horiz-adv-x="350" 
d="M300 723l-0.999023 16.9971c-30.667 1.33301 -61.5 2.5 -92.5 3.5s-61.833 1.5 -92.5 1.5h-47c-5.33301 0 -8.83301 -1.5 -10.5 -4.5s-1.5 -6.16699 0.5 -9.5c4.66699 -7.33301 10.5 -11.833 17.5 -13.5s14.833 -2.5 23.5 -2.5c4.66699 0 9.16699 -0.333008 13.5 -1
s8.16602 -2.66699 11.499 -6s6.16602 -8.33301 8.49902 -15s3.5 -16 3.5 -28v-584c0 -12 -1 -27 -3 -45s-4.83301 -36.667 -8.5 -56s-8.16699 -37.666 -13.5 -54.999s-11 -31.333 -17 -42c-4 -5.33301 -10 -12.833 -18 -22.5s-16 -18.834 -24 -27.501l-31.5 -34.5
c-9.66699 -10.333 -15.167 -18.166 -16.5 -23.499c-2 -4 -1.16699 -7.5 2.5 -10.5s7.83398 -3.16699 12.501 -0.5c30 14.667 58.5 32.334 85.5 53.001s50.667 44.167 71 70.5s36.5 54.833 48.5 85.5s18 63.334 18 98.001v595c0 20.667 5.5 34.5 16.5 41.5
s25.167 12.167 42.5 15.5z" />
    <glyph glyph-name="K" unicode="K" horiz-adv-x="788" 
d="M756 9l-5.99805 16.9951c-25.333 -0.666992 -54 8.66602 -86 27.999s-64.667 43.666 -98 72.999s-66.5 61.333 -99.5 96l-91.5 98c-16.667 17.333 -32.167 34.333 -46.5 51s-27.5 30.667 -39.5 42c13.333 12.667 27.666 27.167 42.999 43.5l47 51.5l66.5 71.5
c23 24.333 46.167 46.666 69.5 66.999s46.5 37.333 69.5 51s45.167 21.834 66.5 24.501c6.66699 0.666992 10 3.66699 10 9s-3.33301 8.33301 -10 9c-15.333 1.33301 -30.333 1.33301 -45 0s-29.667 -2 -45 -2c-17.333 0 -34.166 -0.166992 -50.499 -0.5
s-32.833 0.166992 -49.5 1.5c-5.33301 0.666992 -9 -0.333008 -11 -3s-2 -5.66699 0 -9c4 -7.33301 6 -15.666 6 -24.999c0 -11.333 -4.66699 -24.166 -14 -38.499s-20.833 -29 -34.5 -44s-28.5 -29.667 -44.5 -44l-43 -39.5c-4.66699 -4 -9.5 -8.66699 -14.5 -14l-12.5 -13
l-39 -40c-15.333 -16 -28.666 -30.667 -39.999 -44l-2 118c-0.666992 40 -0.666992 78 0 114c0 16 5.66699 30.333 17 43s25 19.667 41 21c6.66699 0.666992 10 3.66699 10 9s-3.33301 8.33301 -10 9c-38.667 2.66699 -77.334 3.5 -116.001 2.5s-77.334 -1.5 -116.001 -1.5
c-5.33301 0 -9 -1.16699 -11 -3.5s-1.66699 -5.16602 1 -8.49902c4 -6.66699 9.16699 -10.834 15.5 -12.501s13.5 -3.16699 21.5 -4.5c4.66699 -0.666992 9.5 -1.5 14.5 -2.5s9.5 -3.16699 13.5 -6.5s7.16699 -8.16602 9.5 -14.499s3.5 -15.166 3.5 -26.499v-556
c0 -16 -0.5 -29.167 -1.5 -39.5s-3.5 -18.666 -7.5 -24.999s-10 -11.166 -18 -14.499s-19 -6.33301 -33 -9c-6.66699 -1.33301 -9.83398 -4.66602 -9.50098 -9.99902s3.83301 -8 10.5 -8c40 -1.33301 80 -1.16602 120 0.500977s80 2.5 120 2.5c5.33301 0 9 2.16699 11 6.5
s0.333008 7.5 -5 9.5c-9.33301 5.33301 -18 8.5 -26 9.5s-15.667 2.16699 -23 3.5c-5.33301 0.666992 -10.166 1.66699 -14.499 3s-7.83301 4.66602 -10.5 9.99902s-4.66699 13.5 -6 24.5s-2 26.5 -2 46.5v242c14 -13.333 28.333 -28.5 43 -45.5l48 -54.5l86 -94.5
c30 -32.333 60.5 -61.833 91.5 -88.5s62.333 -48.5 94 -65.5s63.167 -25.5 94.5 -25.5s60.666 8.33301 87.999 25z" />
    <glyph glyph-name="L" unicode="L" horiz-adv-x="526" 
d="M502 142c0.666992 2.66699 -0.00195312 4.83496 -2.00195 6.50195s-4.16699 2.66699 -6.5 3s-5 0.166016 -8 -0.500977s-5.16699 -2 -6.5 -4c-14.667 -30.667 -35.667 -55.334 -63 -74.001s-57.333 -28 -90 -28c-33.333 0 -61.333 10 -84 30s-34 47.667 -34 83v508
c0 16.667 5 29.667 15 39s22.667 13.333 38 12l14 -1c6 -0.666992 9.5 1.83301 10.5 7.5s-1.16699 9.16699 -6.5 10.5c-16.667 5.33301 -34.167 7.5 -52.5 6.5s-36.5 -1.5 -54.5 -1.5h-137c-4.66699 0 -8.16699 -1.33301 -10.5 -4s-2.5 -5.66699 -0.5 -9
c2.66699 -6.66699 7.33398 -11 14.001 -13s14.334 -3.33301 23.001 -4c4.66699 -0.666992 9.5 -1.5 14.5 -2.5s9.5 -3 13.5 -6s7.33301 -7.83301 10 -14.5s4 -15.667 4 -27v-552c0 -11.333 -0.833008 -22 -2.5 -32s-4.5 -19 -8.5 -27s-9.66699 -14.5 -17 -19.5
s-17 -7.83301 -29 -8.5c-6.66699 0 -10.167 -2.83301 -10.5 -8.5s2.83398 -8.83398 9.50098 -9.50098c18 -1.33301 36 -1 54 1s36.667 3 56 3c18.667 0 37 -0.333008 55 -1s36.333 -0.666992 55 0c18 0.666992 36 1 54 1h53c19.333 0 38.833 -0.166992 58.5 -0.5
s39.5 -1.5 59.5 -3.5c1.33301 17.333 2.66602 35.833 3.99902 55.5s3.33301 41.834 6 66.501c0 3.33301 0.166992 6.33301 0.5 9s0.833008 5.66699 1.5 9z" />
    <glyph glyph-name="M" unicode="M" horiz-adv-x="1040" 
d="M1003 17c-7.33301 3.33301 -14.501 5.83008 -21.501 7.49707l-19.5 4.5c-10.667 2 -20.834 4.83301 -30.501 8.5s-18.5 12.167 -26.5 25.5c-4 6.66699 -7.83301 17.334 -11.5 32.001s-7.16699 31.834 -10.5 51.501s-6.33301 41 -9 64l-8 70c-2.66699 23.667 -5 47 -7 70
s-3.66699 44.167 -5 63.5c-1.33301 14.667 -2.5 28.167 -3.5 40.5s-1.83301 22.166 -2.5 29.499l-14.5 132.5l-15.5 132.5c-0.666992 4.66699 -3.5 7.33398 -8.5 8.00098s-9.16699 -0.666016 -12.5 -3.99902c-18 -27.333 -34 -55.333 -48 -84l-41 -85l-20 -44l-42 -90
l-41 -89l-48 -104l-50 -104c-7.33301 13.333 -15.666 30.166 -24.999 50.499l-39 82.5l-45 93l-48 98l-47 95l-43 83c-13.333 24.667 -25.333 45.834 -36 63.501s-19.334 29.5 -26.001 35.5c-4 3.33301 -8 4.33301 -12 3s-6.33301 -4 -7 -8
c-1.33301 -10 -3.16602 -26.167 -5.49902 -48.5l-8.5 -78.5c-3.33301 -34 -7.16602 -71.167 -11.499 -111.5l-13 -122.5c-4.33301 -41.333 -8.83301 -81.833 -13.5 -121.5l-13 -107.5c-4 -32 -7.83301 -58.5 -11.5 -79.5s-6.5 -33.833 -8.5 -38.5
c-4 -8.66699 -8.83301 -13.834 -14.5 -15.501s-12.167 -3.16699 -19.5 -4.5l-15.5 -3c-7 -1.33301 -10.5 -1.66602 -10.5 -0.999023c-3.33301 -2.66699 -4.5 -5.83398 -3.5 -9.50098s4.16699 -5.83398 9.5 -6.50098c34 -2 68.167 -2.66699 102.5 -2s68.5 1 102.5 1
c6.66699 0 10.5 2.16699 11.5 6.5s-1.16699 7.5 -6.5 9.5c-8.66699 4 -16.167 7.33301 -22.5 10s-12.166 5 -17.499 7h1c-6.66699 2.66699 -11.667 5 -15 7s-5.83301 4.66699 -7.5 8s-2.66699 8 -3 14s-0.5 14.667 -0.5 26v29c0 46 2.66699 92.833 8 140.5
s11.333 94.5 18 140.5c2.66699 18 5.16699 36.333 7.5 55s4.16602 37.334 5.49902 56.001c8 -14.667 14.667 -27.667 20 -39l15 -33l14.5 -33.5c5 -11.667 11.167 -25.167 18.5 -40.5l86.5 -183c29.667 -60 65.167 -118 106.5 -174c3.33301 -2.66699 7 -4 11 -4
s7 1.66699 9 5l37 77.5l36 76.5l84 177l87 175c1.33301 -14.667 2.66602 -27.667 3.99902 -39l4 -33.5l4 -33.5c1.33301 -11.333 3 -24.333 5 -39c6 -48 11.333 -98.5 16 -151.5s7 -103.5 7 -151.5c0 -8.66699 -0.166992 -17.167 -0.5 -25.5s-1.83301 -16.833 -4.5 -25.5
c-1.33301 -3.33301 -0.833008 -6.16602 1.5 -8.49902s5.5 -3.5 9.5 -3.5c34 -2 67.833 -2.66699 101.5 -2s67.834 1 102.501 1z" />
    <glyph glyph-name="N" unicode="N" horiz-adv-x="854" 
d="M807 711l-2.00195 17.0039c-24 1.33301 -48 1.83301 -72 1.5s-47.667 -0.5 -71 -0.5h-72c-5.33301 0 -8.83301 -1.66699 -10.5 -5s-0.5 -6.33301 3.5 -9c3.33301 -4 7.83301 -6.66699 13.5 -8s12.167 -2.66602 19.5 -3.99902l18 -4
c6 -1.33301 11.5 -4.16602 16.5 -8.49902s9.16699 -10.833 12.5 -19.5s5 -20.667 5 -36c0 -73.333 1.16699 -146.333 3.5 -219s3.5 -145.667 3.5 -219c0 -5.33301 -0.166992 -10.5 -0.5 -15.5s-0.5 -10.167 -0.5 -15.5l-541 574c-5.33301 4 -10.666 4 -15.999 0
c-4 -4 -7.33301 -7.83301 -10 -11.5s-4 -8.16699 -4 -13.5v-630c0 -16.667 -4.83301 -30.167 -14.5 -40.5s-22.167 -17.166 -37.5 -20.499l-14 -3c-6 -1.33301 -9.5 -4.33301 -10.5 -9s1.5 -7.66699 7.5 -9c16 -3.33301 33 -3.83301 51 -1.5s35.667 3.16602 53 2.49902
l127 -3c5.33301 0 9 1.83301 11 5.5s0.666992 6.83398 -4 9.50098c-7.33301 4.66699 -14.5 8.16699 -21.5 10.5s-13.833 4.16602 -20.5 5.49902c-6 1.33301 -12 3.16602 -18 5.49902s-11.167 6.16602 -15.5 11.499s-7.83301 12.666 -10.5 21.999s-4 22 -4 38
c0 33.333 -0.666992 66.5 -2 99.5l-4 100.5l-4 98c-1.33301 32.667 -2 65.667 -2 99c0 17.333 1 35.666 3 54.999l30 -33l29 -33l116 -128.5l119.5 -130l123 -125.5c41.667 -40.667 83.834 -79 126.501 -115c4 -2.66699 8.16699 -3.33398 12.5 -2.00098s6.83301 4 7.5 8
c8.66699 110.667 12.5 221.667 11.5 333s-1.5 222.666 -1.5 333.999c0 11.333 5.16699 19 15.5 23s20.833 7.66699 31.5 11c2 0.666992 4.16699 2 6.5 4s4.5 3.33301 6.5 4z" />
    <glyph glyph-name="O" unicode="O" horiz-adv-x="832" 
d="M805 349c0 48.667 -7.49707 97.8291 -22.4971 147.496s-37.833 94.5 -68.5 134.5s-69.334 72.667 -116.001 98s-101.334 38 -164.001 38c-9.33301 0 -19.166 -0.5 -29.499 -1.5s-20.166 -2.5 -29.499 -4.5c-62.667 -13.333 -116 -31.166 -160 -53.499
s-80 -50.166 -108 -83.499s-48.333 -72.666 -61 -117.999s-19 -97.333 -19 -156c0 -29.333 5.33301 -58.666 16 -87.999s25 -57.5 43 -84.5s39.167 -52.167 63.5 -75.5s50.166 -43.5 77.499 -60.5s55.666 -30.5 84.999 -40.5s57.666 -15 84.999 -15h15
c6.66699 0 13.167 0.166992 19.5 0.5s12.333 0.833008 18 1.5s10.5 1.33398 14.5 2.00098c46.667 10.667 90.667 25.667 132 45s77.5 43.666 108.5 72.999s55.5 64 73.5 104s27 85.667 27 137zM704.003 350.995c0 -42 -5.99902 -82.167 -17.999 -120.5
s-29.5 -71.833 -52.5 -100.5s-51.5 -51.5 -85.5 -68.5s-73.333 -25.5 -118 -25.5c-47.333 0 -89.5 10.833 -126.5 32.5s-68.167 49.834 -93.5 84.501s-44.5 73.667 -57.5 117s-19.5 86.666 -19.5 129.999c0 42.667 6.16699 82.834 18.5 120.501s30.333 70.667 54 99
s52.667 50.666 87 66.999s73.833 24.5 118.5 24.5c47.333 0 89.166 -10.667 125.499 -32s67 -49 92 -83s43.833 -72.5 56.5 -115.5s19 -86.167 19 -129.5z" />
    <glyph glyph-name="P" unicode="P" horiz-adv-x="536" 
d="M513 564c0 40.667 -7.33496 72.833 -22.002 96.5s-33.667 41.5 -57 53.5s-50 19.667 -80 23s-60.333 5 -91 5h-81c-10 0 -20 -0.333008 -30 -1s-20.333 -0.666992 -31 0c-11.333 0.666992 -22.333 1 -33 1h-32h-21c-5.33301 0 -9 -1.33301 -11 -4s-2 -5.66699 0 -9
c3.33301 -7.33301 8.83301 -11.833 16.5 -13.5s15.5 -3.16699 23.5 -4.5c4.66699 -0.666992 9.33398 -1.5 14.001 -2.5s8.83398 -3 12.501 -6s6.66699 -7.5 9 -13.5s3.5 -14 3.5 -24v-558c0 -16.667 -0.333008 -30 -1 -40s-3 -18 -7 -24s-10 -10.667 -18 -14
s-19 -6.33301 -33 -9c-6.66699 -1.33301 -9.83398 -4.5 -9.50098 -9.5s3.83301 -7.83301 10.5 -8.5c40.667 -2 81.167 -2.66699 121.5 -2s80.5 1 120.5 1c4.66699 0 8.16699 1.16699 10.5 3.5s2.5 5.16602 0.5 8.49902c-3.33301 7.33301 -8.33301 11.5 -15 12.5
s-14.667 1.83301 -24 2.5c-5.33301 0.666992 -11.333 1.5 -18 2.5s-11.667 3.16699 -15 6.5c-1.33301 1.33301 -3 5.66602 -5 12.999s-3.83301 15.333 -5.5 24s-3.16699 16.834 -4.5 24.501s-2 12.834 -2 15.501v575c9.33301 3.33301 19.333 6.33301 30 9s21.667 4 33 4
c23.333 0 44.166 -5.5 62.499 -16.5s33.833 -25.167 46.5 -42.5s22.334 -37 29.001 -59s10 -44 10 -66c0 -48.667 -13.833 -86.667 -41.5 -114s-66.167 -41 -115.5 -41h-10c-3.33301 0 -6.66602 0.333008 -9.99902 1c-3.33301 0 -6 -1.16699 -8 -3.5
s-3.33301 -5.33301 -4 -9s-0.5 -7 0.5 -10s3.16699 -4.83301 6.5 -5.5c18 -5.33301 37.333 -8 58 -8c31.333 0 60.333 6.83301 87 20.5s49.667 31.667 69 54s34.333 47.5 45 75.5s16 56.667 16 86z" />
    <glyph glyph-name="Q" unicode="Q" horiz-adv-x="836" 
d="M1441 -103l-10.9932 15.9961c-32.667 -13.333 -66.167 -23.666 -100.5 -30.999s-69.5 -11 -105.5 -11c-50.667 0 -100.834 6.16699 -150.501 18.5s-98.834 28.5 -147.501 48.5s-96.167 42.667 -142.5 68l-134.5 77c52 39.333 92 88 120 146s42 119 42 183
c0 54.667 -10.167 104.5 -30.5 149.5s-48 83.667 -83 116s-76.167 57.333 -123.5 75s-97.666 26.5 -150.999 26.5c-55.333 0 -107 -9.83301 -155 -29.5s-89.833 -47 -125.5 -82s-63.834 -76.167 -84.501 -123.5s-31 -98.666 -31 -153.999c0 -57.333 9.33301 -110 28 -158
s45 -89.167 79 -123.5s75 -61 123 -80s101.333 -28.5 160 -28.5c15.333 0 30 1.66699 44 5s27.667 7 41 11l31.5 9.5c9.66699 3 18.167 4.5 25.5 4.5h5c13.333 -5.33301 27.666 -11.666 42.999 -18.999s29.666 -15 42.999 -23l26.5 -14
c10.333 -5.33301 19.166 -9.66602 26.499 -12.999c34.667 -16.667 71.167 -33.334 109.5 -50.001s77.166 -31.5 116.499 -44.5s79.333 -23.667 120 -32s81 -12.5 121 -12.5c48.667 0 95.667 6.33301 141 19s88.666 31.334 129.999 56.001zM696.007 405.996
c0 -39.333 -5.16602 -77.168 -15.499 -113.501s-25.333 -70 -45 -101s-43.834 -58.5 -72.501 -82.5s-61.334 -42.667 -98.001 -56c-48.667 6 -93.334 20.667 -134.001 44s-75.667 52.666 -105 87.999s-52.166 75.333 -68.499 120s-24.5 91.334 -24.5 140.001
c0 42.667 6.83301 81.334 20.5 116.001s33 64.334 58 89.001s54.833 43.667 89.5 57s73 20 115 20c44.667 0 84.334 -8.83301 119.001 -26.5s64 -41.167 88 -70.5s42.167 -63.333 54.5 -102s18.5 -79.334 18.5 -122.001z" />
    <glyph glyph-name="R" unicode="R" horiz-adv-x="744" 
d="M768 3l-6.00098 17.0049c-25.333 -4 -50.333 0.5 -75 13.5s-48.834 30.667 -72.501 53s-46.334 47.666 -68.001 75.999l-62.5 82.5l-35.5 48c-11.667 16 -22.834 29.667 -33.501 41c14.667 14 28.834 29.5 42.501 46.5s25.834 35.167 36.501 54.5
s19.334 39.166 26.001 59.499s10 40.833 10 61.5c0 4.66699 -0.166992 9.66699 -0.5 15s-1.16602 9.66602 -2.49902 12.999c-8 33.333 -20.333 60.166 -37 80.499s-36.5 36 -59.5 47s-48 18.333 -75 22s-54.5 5.5 -82.5 5.5h-53c-6 0 -11.833 -0.166992 -17.5 -0.5
s-11.5 -0.5 -17.5 -0.5c-10.667 0 -21 -0.166992 -31 -0.5s-20.667 -0.166016 -32 0.500977h-66h-18c-4.66699 0 -8 -1.16699 -10 -3.5s-2 -5.16602 0 -8.49902c2 -6.66699 6.33301 -11 13 -13s14.667 -3.33301 24 -4c4.66699 -0.666992 9.33398 -1.5 14.001 -2.5
s9 -3 13 -6s7.33301 -7.83301 10 -14.5s4 -15.667 4 -27v-554c0 -16 -0.333008 -29.167 -1 -39.5s-2.83398 -18.5 -6.50098 -24.5s-9.5 -10.667 -17.5 -14s-19.333 -6.33301 -34 -9c-6.66699 -1.33301 -9.83398 -4.5 -9.50098 -9.5s3.83301 -7.83301 10.5 -8.5
c40.667 -2 81.334 -3 122.001 -3h122c5.33301 0 9 1.66699 11 5s1 6.66602 -3 9.99902c-6 5.33301 -12.833 8.66602 -20.5 9.99902s-15.167 2.33301 -22.5 3c-3.33301 0.666992 -7.83301 1.33398 -13.5 2.00098s-10.167 1.66699 -13.5 3c-2 1.33301 -4 5.66602 -6 12.999
s-4 15.5 -6 24.5s-3.5 17.5 -4.5 25.5s-1.5 13.667 -1.5 17v186c5.33301 0.666992 11 1 17 1h18c14 0 29.833 -1.33301 47.5 -4s32.5 -9.33398 44.5 -20.001c16 -14 31.5 -31.167 46.5 -51.5l45.5 -62.5l47.5 -65c16.333 -21.333 34 -40.5 53 -57.5s39.667 -30.667 62 -41
s47.5 -15.5 75.5 -15.5c17.333 0 34.333 2 51 6s32.667 9.66699 48 17zM420.999 505.005c0 -12 -0.833008 -24.3369 -2.5 -37.0039s-4.5 -25 -8.5 -37s-9.16699 -23.167 -15.5 -33.5s-14.166 -19.166 -23.499 -26.499s-21.333 -11.666 -36 -12.999s-27.667 -2 -39 -2
c-28.667 0 -56.334 2 -83.001 6v329c18 6 36.667 9 56 9c25.333 0 47.5 -5.83301 66.5 -17.5s34.833 -26.667 47.5 -45s22.167 -39.166 28.5 -62.499s9.5 -46.666 9.5 -69.999z" />
    <glyph glyph-name="S" unicode="S" horiz-adv-x="440" 
d="M418 199c0 24 -4.50195 46.333 -13.502 67s-20.833 40.167 -35.5 58.5s-31.334 35.833 -50.001 52.5l-57 49l-47.5 41c-15.667 13.333 -29.667 27.166 -42 41.499s-22.166 29.166 -29.499 44.499s-11 31.666 -11 48.999c0 16.667 3 31.834 9 45.501
s14.167 25.5 24.5 35.5s22.333 17.667 36 23s28.167 8 43.5 8c16 0 30.833 -2.5 44.5 -7.5s25.834 -12.167 36.501 -21.5s18.834 -20.666 24.501 -33.999s8.5 -28.333 8.5 -45c0 -4.66699 2.66699 -7.66699 8 -9s9.66602 -0.333008 12.999 3
c9.33301 12.667 14.666 28.5 15.999 47.5s2 37.5 2 55.5v36c0 4.66699 -2.66699 7.66699 -8 9c-30.667 8.66699 -63.667 13 -99 13c-25.333 0 -53 -3.33301 -83 -10s-58 -17.167 -84 -31.5s-47.833 -32.5 -65.5 -54.5s-26.5 -48.333 -26.5 -79
c0 -20.667 4.5 -40.834 13.5 -60.501s20.833 -39.167 35.5 -58.5s31.5 -38.333 50.5 -57l57.5 -56v1l51 -51c16.667 -16.667 31.5 -33.167 44.5 -49.5s23.5 -32.833 31.5 -49.5s12 -33.334 12 -50.001c0 -17.333 -4.16699 -33 -12.5 -47s-19 -26 -32 -36
s-27.5 -17.667 -43.5 -23s-31.667 -8 -47 -8c-17.333 0 -34 2.66699 -50 8s-30.333 13 -43 23s-22.5 22.167 -29.5 36.5s-9.83301 30.5 -8.5 48.5l1 16c0 2.66699 -1 4.66699 -3 6s-4.66699 2 -8 2c-2.66699 0 -5.16699 -0.5 -7.5 -1.5s-3.83301 -2.83301 -4.5 -5.5
c-1.33301 -5.33301 -2.66602 -11.166 -3.99902 -17.499s-2.66602 -13.166 -3.99902 -20.499c-2.66699 -9.33301 -5 -18.666 -7 -27.999s-3 -19.333 -3 -30c0 -17.333 4.16699 -32 12.5 -44s18.833 -21.5 31.5 -28.5s26.667 -12 42 -15s30 -4.5 44 -4.5
c28.667 0 58.667 5.16699 90 15.5s60 24.833 86 43.5s47.5 41 64.5 67s25.5 55 25.5 87z" />
    <glyph glyph-name="T" unicode="T" horiz-adv-x="676" 
d="M650 717l-0.00292969 22c0 3.33301 -1.5 5.66602 -4.5 6.99902s-6.16699 1.66602 -9.5 0.999023s-7.16602 -1.16699 -11.499 -1.5s-8.16602 -1.16602 -11.499 -2.49902l-17.5 -4.5c-6.33301 -1.66699 -11.5 -2.5 -15.5 -2.5h-428c-4 0 -9.83301 0.5 -17.5 1.5
s-15.667 2.5 -24 4.5s-16.166 4.16699 -23.499 6.5s-13 4.83301 -17 7.5c-3.33301 1.33301 -6.83301 1.5 -10.5 0.5s-6.16699 -3.16699 -7.5 -6.5c-1.33301 -5.33301 -2.5 -10.666 -3.5 -15.999s-2.5 -11 -4.5 -17c-4.66699 -14.667 -9 -29.167 -13 -43.5s-6 -27.5 -6 -39.5
c0 -3.33301 0.166992 -6.16602 0.5 -8.49902s0.833008 -4.83301 1.5 -7.5c1.33301 -4.66699 4.83301 -7.16699 10.5 -7.5s9.5 1.5 11.5 5.5c8 17.333 19.333 32.833 34 46.5s31.667 20.5 51 20.5h155v-583c0 -16 -0.5 -28.667 -1.5 -38s-3.5 -17 -7.5 -23
s-10 -10.5 -18 -13.5s-19 -5.83301 -33 -8.5c-6.66699 -1.33301 -9.66699 -4.33301 -9 -9s4.33398 -7.33398 11.001 -8.00098c40.667 -1.33301 81.167 -1.66602 121.5 -0.999023s80.833 1 121.5 1c4.66699 0 8 1.16699 10 3.5s2 5.16602 0 8.49902
c-3.33301 6.66699 -8.33301 10.667 -15 12s-14.667 2.33301 -24 3c-6 0.666992 -12.333 1.66699 -19 3s-13.334 5.33301 -20.001 12c-0.666992 0.666992 -1.66699 4.33398 -3 11.001s-2.5 14 -3.5 22l-3 23.5c-1 7.66699 -1.5 12.5 -1.5 14.5v568
c4.66699 -0.666992 9.66699 -1 15 -1h17c5.33301 0 11.833 0.166992 19.5 0.5s14.5 0.833008 20.5 1.5c6.66699 0.666992 13 1.16699 19 1.5s12.667 0.5 20 0.5c28 0 51.833 -5 71.5 -15s32.5 -30.333 38.5 -61c1.33301 -4.66699 5 -7 11 -7c6.66699 0 10.667 2.33301 12 7
c4 17.333 6.83301 35.166 8.5 53.499s2.5 36.833 2.5 55.5z" />
    <glyph glyph-name="U" unicode="U" horiz-adv-x="777" 
d="M749 722l-0.998047 18.0049c-36 2.66699 -71.667 3.5 -107 2.5s-71 -1.5 -107 -1.5c-3.33301 0 -6.33301 -0.833008 -9 -2.5s-3.66699 -3.83398 -3 -6.50098c1.33301 -7.33301 7 -12.166 17 -14.499s19.667 -3.83301 29 -4.5c4 -0.666992 7 -0.833984 9 -0.500977
s4 0.166016 6 -0.500977c8.66699 -3.33301 14.334 -9.66602 17.001 -18.999s4 -19.333 4 -30v-51c0 -18 0.166992 -36.167 0.5 -54.5s0.5 -36.5 0.5 -54.5v-50c0.666992 -35.333 1 -70.333 1 -105v-106c0 -30 -5.16699 -57.333 -15.5 -82s-24.666 -45.667 -42.999 -63
s-40 -30.833 -65 -40.5s-51.833 -14.5 -80.5 -14.5s-55.167 4.66699 -79.5 14s-45.333 22.666 -63 39.999s-31.5 38 -41.5 62s-15 51 -15 81c0 36 -0.166992 71.667 -0.5 107s-0.166016 71 0.500977 107s1 71.667 1 107v107c0 20 5.16699 33.333 15.5 40s24.5 11 42.5 13
c6.66699 0.666992 10 3.66699 10 9s-3.33301 8.33301 -10 9c-33.333 3.33301 -66.333 3.83301 -99 1.5s-65.334 -2.83301 -98.001 -1.5l-38 1c-3.33301 0 -6.33301 -0.833008 -9 -2.5s-3.66699 -3.83398 -3 -6.50098c1.33301 -7.33301 7 -12.333 17 -15
s19.667 -4.33398 29 -5.00098c4 -0.666992 7 -0.833984 9 -0.500977s4 0.166016 6 -0.500977c8.66699 -3.33301 14.334 -9.66602 17.001 -18.999s4 -19.333 4 -30v-397c0 -2.66699 0.5 -7.16699 1.5 -13.5s2 -13.166 3 -20.499s2.16699 -14.333 3.5 -21
s2.66602 -11.334 3.99902 -14.001c11.333 -30 26.666 -57.833 45.999 -83.5s41.666 -47.667 66.999 -66s53.166 -32.666 83.499 -42.999s62.166 -15.5 95.499 -15.5c44 0 83.667 8 119 24s65.5 37.667 90.5 65s44.167 59.333 57.5 96s20 76 20 118v378
c0 19.333 5.83301 32.666 17.5 39.999s26.167 12.333 43.5 15z" />
    <glyph glyph-name="V" unicode="V" horiz-adv-x="842" 
d="M806 723l-2.00195 17.998c-35.333 2 -70.666 3 -105.999 3c-34.667 0 -69.334 -1 -104.001 -3c-6 -0.666992 -9.33301 -3.5 -10 -8.5s1.66602 -8.16699 6.99902 -9.5l5.5 -0.5c3.66699 -0.333008 7.83398 -1.16602 12.501 -2.49902l22 -4
c7.33301 -1.33301 11 -3.66602 11 -6.99902c0 -22 -5.83301 -52.5 -17.5 -91.5s-26.167 -81.167 -43.5 -126.5s-36 -91.5 -56 -138.5l-55 -127.5l-15 -34l-13 -30l-14 36l-12 31l-12.5 31.5l-14.5 36.5l-79 202c-26 67.333 -47.667 137.333 -65 210
c4.66699 5.33301 8.33398 9.33301 11.001 12s7 4 13 4l18 3c6.66699 0 10.334 3 11.001 9s-2.33301 9 -9 9h-130h-39c-14 0 -27.667 -0.166992 -41 -0.5s-26.666 -0.166016 -39.999 0.500977c-6 0 -10 -2 -12 -6s-0.333008 -7.33301 5 -10
c7.33301 -5.33301 14.166 -8.83301 20.499 -10.5l20.5 -5.5c9.33301 -2 18.333 -5.16699 27 -9.5s15.667 -11.166 21 -20.499h-1c24 -48 46.833 -98.833 68.5 -152.5s42.167 -107.5 61.5 -161.5l74 -193c25.333 -64 52 -125.333 80 -184c1.33301 -2 3.5 -3.33301 6.5 -4
s6.16699 -1 9.5 -1s6.5 0.5 9.5 1.5s4.83301 2.5 5.5 4.5c29.333 61.333 57.5 124.333 84.5 189l79.5 190l47 111c3.33301 6.66699 6.83301 14.5 10.5 23.5l11.5 27.5l18.5 45c6.33301 16 13 31.667 20 47l20 42.5c6.33301 13 12.5 23.5 18.5 31.5
c4.66699 5.33301 10.5 9.16602 17.5 11.499s14.5 4.16602 22.5 5.49902z" />
    <glyph glyph-name="W" unicode="W" horiz-adv-x="1076" 
d="M1038 737c-15.333 5.33301 -31.165 6.66992 -47.498 4.00293s-32.833 -4 -49.5 -4c-19.333 0 -38.666 1 -57.999 3s-38.666 2 -57.999 0c-6 -0.666992 -9.16699 -3.5 -9.5 -8.5s2.5 -8.16699 8.5 -9.5c1.33301 -0.666992 3 -1 5 -1
c2.66699 0 5.33398 -0.333008 8.00098 -1c9.33301 -1.33301 18.5 -3.16602 27.5 -5.49902s13.5 -7.83301 13.5 -16.5c0 -34.667 -3.66699 -74.334 -11 -119.001s-16.5 -90.834 -27.5 -138.501s-23 -94.334 -36 -140.001l-36.5 -123.5l-14.5 40l-12.5 36l-12 37.5l-14 43.5
l-72 210c-24.667 70 -51.334 134.333 -80.001 193c-2.66699 3.33301 -6.33398 5 -11.001 5s-8 -2 -10 -6l-41 -105.5l-47 -121l-46.5 -121l-40 -105.5l-28.5 -74.5l-11 -28.5l-5 26.5l-13.5 70l-18.5 99c-6.66699 37 -13.167 75 -19.5 114l-18.5 115
c-6 37.667 -10.667 71.5 -14 101.5c4 3.33301 8.5 5.83301 13.5 7.5s10.167 3.16699 15.5 4.5c3.33301 0.666992 6.5 1.33398 9.5 2.00098s7.16699 2 12.5 4c6 1.33301 8.66699 4.33301 8 9s-4.33398 7.33398 -11.001 8.00098c-40.667 1.33301 -81.334 2.33301 -122.001 3
s-81.334 1 -122.001 1c-6 0 -10 -1.83301 -12 -5.5s-0.333008 -6.83398 5 -9.50098c10.667 -7.33301 23 -12 37 -14c6 -1.33301 12 -3.16602 18 -5.49902s11.667 -6.16602 17 -11.499l-2 1c0.666992 -1.33301 2 -4.16602 4 -8.49902l6 -13.5
c2 -4.66699 3.66699 -8.83398 5 -12.501s2 -5.83398 2 -6.50098c17.333 -46.667 31.666 -96.834 42.999 -150.501l33 -161.5c10.667 -55.333 23.834 -111.166 39.501 -167.499s34.167 -118.5 55.5 -186.5c2.66699 -3.33301 6.5 -5.16602 11.5 -5.49902s8.5 1.5 10.5 5.5
l30 72l32 82l31.5 82l27.5 73l48 125.5l50 124.5c12 -32 22.167 -61.333 30.5 -88s18.166 -56.334 29.499 -89.001c21.333 -64.667 44.333 -130.334 69 -197.001s52 -128.334 82 -185.001c2 -3.33301 5.66699 -5 11 -5s8.66602 2 9.99902 6
c20.667 49.333 38.167 98.833 52.5 148.5l41.5 147.5c2 7.33301 3.83301 15.5 5.5 24.5s3.83398 18.5 6.50098 28.5l23.5 94.5c9 35 18.333 69.5 28 103.5s19.334 65.167 29.001 93.5s18.834 49.833 27.501 64.5c4 6.66699 8.16699 11.667 12.5 15s10.166 5 17.499 5
c3.33301 0 7 0.166992 11 0.5s8 0.166016 12 -0.500977z" />
    <glyph glyph-name="X" unicode="X" horiz-adv-x="752" 
d="M717 19c-21.333 5.33301 -41.6699 16.833 -61.0029 34.5s-37.833 38.5 -55.5 62.5s-34.667 50.167 -51 78.5l-46.5 83.5l-17.5 32c-6.33301 11.333 -13 22.666 -20 33.999l-20.5 32.5l-18 27.5c8.66699 11.333 17.667 24.833 27 40.5l29 49.5
c14 23.333 29.5 47.833 46.5 73.5s34.167 49.334 51.5 71.001s35 39.667 53 54s35 22.166 51 23.499c6.66699 0.666992 10.167 3.33398 10.5 8.00098s-2.5 8 -8.5 10c-16 4.66699 -32.667 7.5 -50 8.5s-34.666 1.5 -51.999 1.5s-34.5 -0.333008 -51.5 -1
s-33.833 -2 -50.5 -4c-6.66699 -0.666992 -10.167 -3.5 -10.5 -8.5s2.5 -8.16699 8.5 -9.5c10 -2 19.667 -6 29 -12s14 -14.667 14 -26c0 -6 -2.33301 -13.833 -7 -23.5s-10.667 -20.334 -18 -32.001s-15.666 -24.167 -24.999 -37.5l-29 -40l-31 -44.5l-26 -38.5l-25.5 42
l-29.5 46l-25.5 39c-8.33301 13.333 -15.666 25.833 -21.999 37.5s-11.5 22.5 -15.5 32.5s-6 18.667 -6 26c0 9.33301 3.33301 17 10 23s14.667 10.333 24 13c6 2 8.5 5.5 7.5 10.5s-4.83301 7.5 -11.5 7.5h-141c-16 0 -32.667 -0.333008 -50 -1s-33 -3.66699 -47 -9
c-6 -1.33301 -8.66699 -4.33301 -8 -9s4 -7.66699 10 -9c22 -4 42.167 -13.333 60.5 -28s35.5 -32.5 51.5 -53.5s30.833 -44 44.5 -69l40.5 -74.5l31.5 -58.5c11 -19.667 22.167 -37.5 33.5 -53.5c-8 -10.667 -17.167 -25.334 -27.5 -44.001l-32.5 -58l-50.5 -86.5
c-17.667 -29.667 -36 -57 -55 -82s-38.333 -45.833 -58 -62.5s-39.5 -25.667 -59.5 -27c-6.66699 -0.666992 -9.83398 -3.66699 -9.50098 -9s3.83301 -8 10.5 -8h29c29.333 0 58.5 0.333008 87.5 1s58.167 1.66699 87.5 3c6 0.666992 9.5 3 10.5 7s-1.16699 7 -6.5 9
c-6.66699 4.66699 -10.834 6.5 -12.501 5.5s-3.83398 -1.16699 -6.50098 -0.5c-3.33301 0.666992 -6.16602 1.33398 -8.49902 2.00098s-4.83301 2.66699 -7.5 6c0.666992 12 4.83398 26.667 12.501 44s17 35.833 28 55.5l35.5 61l36 59.5l20 32l17 29l10 -15l43.5 -70
l49 -83c15.667 -27.333 28.834 -51.5 39.501 -72.5s16 -33.5 16 -37.5c0 -7.33301 -2.33301 -13 -7 -17c-4 -3.33301 -5 -6.66602 -3 -9.99902s5.66699 -5 11 -5c16 0 32.167 -0.166992 48.5 -0.5s32.5 -0.833008 48.5 -1.5s32.167 -1.16699 48.5 -1.5
s32.833 -0.5 49.5 -0.5z" />
    <glyph glyph-name="Y" unicode="Y" horiz-adv-x="773" 
d="M739 722l-2.99219 17c-15.333 1.33301 -31.166 2.33301 -47.499 3s-32.833 1 -49.5 1c-15.333 0 -30.5 -0.333008 -45.5 -1s-30.167 -1.66699 -45.5 -3c-6.66699 -0.666992 -10.334 -3.33398 -11.001 -8.00098s2 -7.66699 8 -9c6 -2.66699 11.167 -6.5 15.5 -11.5
s6.5 -11.167 6.5 -18.5c0 -8 -2.83301 -18.667 -8.5 -32s-13 -27.833 -22 -43.5s-18.833 -31.5 -29.5 -47.5l-30 -44l-15.5 -22c-5 -7.33301 -9.16699 -13.666 -12.5 -18.999l-26.5 -46.5c-9 -16.333 -17.167 -32.5 -24.5 -48.5
c-2.66699 3.33301 -4.33398 5.66602 -5.00098 6.99902s-3.33398 5.66602 -8.00098 12.999l-47.5 81l-53 92l-43.5 79.5c-12 23 -18 37.167 -18 42.5c0 4 1.33301 7.33301 4 10s5.66699 5.33398 9 8.00098c4 2.66699 7 5 9 7
c3.33301 3.33301 4.16602 6.66602 2.49902 9.99902s-5.16699 5 -10.5 5c-34 0 -67.5 -0.166992 -100.5 -0.5s-66.167 -1.83301 -99.5 -4.5c-6.66699 -0.666992 -10.167 -3.5 -10.5 -8.5s2.5 -8.16699 8.5 -9.5c11.333 -3.33301 26.5 -14.5 45.5 -33.5s39.667 -42.333 62 -70
s44.666 -58 66.999 -91s42.666 -64.833 60.999 -95.5s33.333 -58.667 45 -84s17.5 -44 17.5 -56v-203c0 -6 -0.5 -12.833 -1.5 -20.5s-2.83301 -14.667 -5.5 -21s-6.33398 -11.666 -11.001 -15.999s-10.334 -6.5 -17.001 -6.5c-4 0 -8.33301 1 -13 3l-7 -18
c16.667 -4 34.167 -6.5 52.5 -7.5s36.5 -1.5 54.5 -1.5c23.333 0 46.666 0.666992 69.999 2l69 4c6.66699 0.666992 9.66699 3.83398 9 9.50098s-4.33398 8.16699 -11.001 7.5c-23.333 -1.33301 -42.833 2.66699 -58.5 12s-23.5 26.666 -23.5 51.999v219
c0 14.667 5.33301 34.334 16 59.001s24.834 51.667 42.501 81s37.334 59.333 59.001 90s43.667 59 66 85s43.666 48.167 63.999 66.5s37.5 29.833 51.5 34.5z" />
    <glyph glyph-name="Z" unicode="Z" horiz-adv-x="630" 
d="M600 163c0 4.66699 -2.83594 7.66895 -8.50293 9.00195s-10.167 0 -13.5 -4c-6.66699 -11.333 -14.834 -23.333 -24.501 -36s-20.334 -24.334 -32.001 -35.001s-24.167 -19.5 -37.5 -26.5s-26.333 -10.5 -39 -10.5l-256 -1h-9c-3.33301 0 -6 -0.333008 -8 -1
c-3.33301 -0.666992 -6.5 -1.16699 -9.5 -1.5s-5.83301 -0.166016 -8.5 0.500977c20.667 32 41.5 62.667 62.5 92l64.5 92l165 243.5c54.667 82.333 103.334 163.166 146.001 242.499c2.66699 3.33301 2.83398 6.33301 0.500977 9s-6.16602 4 -11.499 4h-405
c-14 0 -29 1.16699 -45 3.5s-31.333 5.16602 -46 8.49902c-8.66699 1.33301 -13.667 -1 -15 -7l-3 -14c-5.33301 -24 -9.66602 -48 -12.999 -72s-5.66602 -48.667 -6.99902 -74c-0.666992 -4.66699 1.5 -7.83398 6.5 -9.50098s9.16699 -0.833984 12.5 2.49902l9 9l31 32.5
c10.667 11.667 21.834 22.667 33.501 33s23.834 18.833 36.501 25.5s25.667 10 39 10h218h8c3.33301 0 5.66602 0.333008 6.99902 1c2.66699 0.666992 5 1 7 1h7l-72.5 -110l-73.5 -109l-149.5 -225c-49 -74.667 -95.833 -151 -140.5 -229
c-2.66699 -3.33301 -3 -6.16602 -1 -8.49902s5.66699 -3.5 11 -3.5c84.667 -1.33301 168.5 -2.33301 251.5 -3s167.167 -1 252.5 -1h27c9.33301 0 18.666 0.333008 27.999 1l-1 17h-16c8 24.667 13.333 48.834 16 72.501s4.66699 47.5 6 71.5z" />
    <glyph glyph-name="bracketleft" unicode="[" horiz-adv-x="217" 
d="M195 15c3.33301 2.66699 4.33105 5.50391 2.99805 8.50391s-4.33301 5.16699 -9 6.5c-3.33301 1.33301 -7.66602 2.16602 -12.999 2.49902s-10.666 0.833008 -15.999 1.5c-7.33301 0.666992 -15 1.66699 -23 3s-15.167 3.16602 -21.5 5.49902s-11.666 5.5 -15.999 9.5
s-6.5 9 -6.5 15v586c0 14 5.5 23 16.5 27s23.167 7 36.5 9l23 4c7.33301 1.33301 14.666 3.66602 21.999 6.99902l-5 16h-156c-8 0 -12 -3 -12 -9v-688c0 -2.66699 1.16699 -4.83398 3.5 -6.50098s5.16602 -2.5 8.49902 -2.5c18 -0.666992 36.167 -1.16699 54.5 -1.5
s36.5 -0.5 54.5 -0.5h13c6 0 11.833 0.166992 17.5 0.5s10.834 1 15.501 2s8 2.5 10 4.5z" />
    <glyph glyph-name="backslash" unicode="\" horiz-adv-x="479" 
d="M454 84c0.666992 1.33301 0.666992 2.66699 0 4s-1 2.33301 -1 3l-148 234.5l-147 234.5l-40.5 65l-40.5 65c-1.33301 1.33301 -3.5 2.5 -6.5 3.5s-5.5 0.833008 -7.5 -0.5l-36 -15l-4 -12l186.5 -307l189.5 -306c1.33301 -1.33301 3.33301 -2.5 6 -3.5
s5 -1.16699 7 -0.5c8 2 16.5 6.16699 25.5 12.5s14.5 13.833 16.5 22.5z" />
    <glyph glyph-name="bracketright" unicode="]" horiz-adv-x="224" 
d="M205 19v688c0 6 -4 9 -12 9h-159c-6.66699 0 -10.667 -2.16699 -12 -6.5s1 -7.5 7 -9.5c11.333 -5.33301 25.666 -9 42.999 -11c13.333 -2 26 -5.33301 38 -10s18 -13.667 18 -27v-580c0 -15.333 -5.83301 -24.833 -17.5 -28.5s-24.167 -5.83398 -37.5 -6.50098
c-9.33301 -0.666992 -18 -1.66699 -26 -3s-15.333 -3.66602 -22 -6.99902c-5.33301 -2 -7.16602 -5.33301 -5.49902 -10s5.5 -7 11.5 -7h162c8 0 12 3 12 9z" />
    <glyph glyph-name="underscore" unicode="_" horiz-adv-x="415" 
d="M432 -244v38c0 5.33301 -4 8 -12 8h-400c-8 0 -12 -2.66699 -12 -8v-38c0 -6 4 -9 12 -9h400c8 0 12 3 12 9z" />
    <glyph glyph-name="grave" unicode="`" horiz-adv-x="239" 
d="M212 748c-6 3.33301 -13 8 -21 14l-23 18l-46 32.5c-15.333 10.333 -31 15.5 -47 15.5c-22.667 0 -40.334 -8.66699 -53.001 -26c-2 -2.66699 -2.83301 -5.33398 -2.5 -8.00098s2.5 -4.66699 6.5 -6c3.33301 -1.33301 7 -2.5 11 -3.5s7.66699 -2.16699 11 -3.5
c26.667 -8.66699 52.834 -18.167 78.501 -28.5s52.5 -17.166 80.5 -20.499z" />
    <glyph glyph-name="a" unicode="a" horiz-adv-x="680" 
d="M644 61l0.00390625 18c-14.667 1.33301 -29 4.33301 -43 9s-25 14.667 -33 30c-25.333 46 -48.5 93.5 -69.5 142.5l-62.5 145.5l-44 103v-1c-1.33301 2 -2.66602 4.83301 -3.99902 8.5s-3 7.83398 -5 12.501v-1l-11 25c-4 9.33301 -8.33301 18.166 -13 26.499
s-9.33398 15.833 -14.001 22.5s-9.33398 11 -14.001 13c-7.33301 2 -12.333 0.666992 -15 -4l-59.5 -140l-58.5 -141l-41.5 -98.5l-41.5 -98.5c-3.33301 -6 -7.83301 -12.667 -13.5 -20s-11.834 -13.833 -18.501 -19.5s-13.667 -9.83398 -21 -12.501s-14.333 -3 -21 -1
l-4 -18l176 -3c6.66699 0 10.167 2.83301 10.5 8.5s-2.83398 8.83398 -9.50098 9.50098c-6.66699 1.33301 -14.334 3.16602 -23.001 5.49902s-13 7.16602 -13 14.499c0 6 2.16699 16.167 6.5 30.5s9.83301 29.833 16.5 46.5l20 50c6.66699 16.667 12.667 30.334 18 41.001
h161l40 -90l39 -90l-9 -11c-4 -3.33301 -5.16699 -6.66602 -3.5 -9.99902s5.16699 -5 10.5 -5c12 -0.666992 23.667 -1.16699 35 -1.5s23 -0.5 35 -0.5c16.667 0 33 0.333008 49 1s32 1.66699 48 3zM382.004 308l-127 0.000976562c12.667 30 23.5 58.167 32.5 84.5
s19.167 54.166 30.5 83.499z" />
    <glyph glyph-name="b" unicode="b" horiz-adv-x="481" 
d="M458 217c0 20 -3.50293 37.998 -10.5029 53.998s-16.5 30.333 -28.5 43s-25.833 23.334 -41.5 32.001s-32.167 15.667 -49.5 21c17.333 15.333 33.5 33.333 48.5 54s22.5 42.667 22.5 66c0 22.667 -6.5 42 -19.5 58s-29.167 29 -48.5 39s-40 17.167 -62 21.5
s-42 6.5 -60 6.5c-12.667 0 -25.334 -0.5 -38.001 -1.5s-25 -2.16699 -37 -3.5c-12.667 -1.33301 -24.667 -2.33301 -36 -3s-23 -1 -35 -1c-4 0 -8.16699 0.166992 -12.5 0.5s-8.83301 0.833008 -13.5 1.5c-6 0.666992 -9.5 -1.83301 -10.5 -7.5s1.5 -8.83398 7.5 -9.50098
c4.66699 -0.666992 10.334 -2 17.001 -4s12.667 -4.83301 18 -8.5s10 -7.83398 14 -12.501s6 -10 6 -16v-406c0 -12 -0.666992 -21.667 -2 -29s-3.66602 -13.166 -6.99902 -17.499s-8.33301 -7.66602 -15 -9.99902s-15 -4.83301 -25 -7.5
c-6 -1.33301 -8.66699 -4.66602 -8 -9.99902s4.33398 -8 11.001 -8c18 0 37.5 -0.166992 58.5 -0.5s40.167 -0.833008 57.5 -1.5c19.333 -0.666992 38.333 -1 57 -1h58v1h2h14c4.66699 0 8.66699 0.666992 12 2h-1c20 3.33301 39.333 9.5 58 18.5s35.334 20.167 50.001 33.5
s26.5 29 35.5 47s13.5 37.667 13.5 59zM310.997 476.998c0 -32 -8.83203 -56.5 -26.499 -73.5s-41.5 -24.833 -71.5 -23.5l-31 1v187c13.333 3.33301 25.666 5 36.999 5c26.667 0 48.667 -9 66 -27s26 -41 26 -69zM370.998 199.998c0 -16 -2.83301 -30.667 -8.5 -44
s-13.5 -24.833 -23.5 -34.5s-21.667 -17.167 -35 -22.5s-27.666 -8 -42.999 -8c-6.66699 0 -14.5 1.16699 -23.5 3.5s-17.667 5.66602 -26 9.99902s-15.333 9.83301 -21 16.5s-8.5 14.334 -8.5 23.001v195l18 1c20.667 1.33301 41.167 -0.666992 61.5 -6
s38.666 -14 54.999 -26s29.5 -27 39.5 -45s15 -39 15 -63z" />
    <glyph glyph-name="c" unicode="c" horiz-adv-x="612" 
d="M588 190l-23 3.99707c-18.667 -34.667 -43.5 -60.667 -74.5 -78s-65.167 -26 -102.5 -26c-36.667 0 -71.5 6.83301 -104.5 20.5s-62 32.334 -87 56.001s-44.833 51.667 -59.5 84s-22 67.5 -22 105.5c0 36.667 6.66699 68.834 20 96.501s31.333 50.834 54 69.501
s49 32.667 79 42s62 14 96 14c20.667 0 41 -2.33301 61 -7s38.167 -12.167 54.5 -22.5s30.5 -23.5 42.5 -39.5s20 -35.333 24 -58c1.33301 -4.66699 5 -7 11 -7c6.66699 0 10.667 2.33301 12 7c4 22 7.66699 44.333 11 67s5.33301 45.667 6 69c0 5.33301 -3.66699 8 -11 8
c-14.667 1.33301 -29 2.83301 -43 4.5l-44 5.5c-19.333 2.66699 -38.833 5 -58.5 7s-39.834 3 -60.501 3c-16.667 0 -35.834 -1 -57.501 -3s-43.5 -5.33301 -65.5 -10s-43 -11 -63 -19s-36.667 -18 -50 -30c-32 -28.667 -58.167 -63.667 -78.5 -105
s-30.5 -83.666 -30.5 -126.999c0 -40.667 8.33301 -77.667 25 -111s38.834 -62 66.501 -86s59.5 -42.5 95.5 -55.5s73.667 -19.5 113 -19.5c37.333 0 76.833 4.16699 118.5 12.5s79.834 17.833 114.501 28.5c2.66699 1.33301 4.66699 3.33301 6 6
c6 13.333 11.5 28.666 16.5 45.999s7.83301 33.333 8.5 48z" />
    <glyph glyph-name="d" unicode="d" horiz-adv-x="678" 
d="M653 336l-0.00195312 27.9951c0 10 -0.666992 19.667 -2 29c-3.33301 29.333 -16.166 57 -38.499 83s-48.833 48.5 -79.5 67.5s-63 34 -97 45s-64.333 16.5 -91 16.5c-14 0 -29.167 -0.333008 -45.5 -1s-31.5 -1.33398 -45.5 -2.00098c-29.333 -2 -58.333 -3 -87 -3
c-11.333 0 -23.666 0.333008 -36.999 1s-26 1.33398 -38 2.00098c-9.33301 0.666992 -18.5 1.16699 -27.5 1.5s-18.167 0.5 -27.5 0.5c-4.66699 0 -8 -1.16699 -10 -3.5s-2.33301 -5.16602 -1 -8.49902c2 -4 5.83301 -6.83301 11.5 -8.5s11.5 -3.16699 17.5 -4.5
c8 -1.33301 16 -3.66602 24 -6.99902s12 -11.666 12 -24.999v-406c0 -22.667 -2.83301 -38.334 -8.5 -47.001s-18.5 -14.667 -38.5 -18c-6.66699 -1.33301 -9.66699 -4.66602 -9 -9.99902s4.33398 -8 11.001 -8c20.667 0.666992 42.667 0.333984 66 -0.999023l67 -4
c19.333 -1.33301 38.833 -2.5 58.5 -3.5s39.167 -1.5 58.5 -1.5c47.333 0 92.666 5 135.999 15s81.333 26.333 114 49s58.667 52.334 78 89.001s29 81.667 29 135zM561.998 307.995c0 -40 -7.32812 -73.832 -21.9951 -101.499s-34.334 -50.334 -59.001 -68.001
s-53.334 -30.5 -86.001 -38.5s-66.667 -12 -102 -12c-16.667 0 -31.667 0.666992 -45 2s-24.833 4.66602 -34.5 9.99902s-17 13.333 -22 24s-7.5 25.334 -7.5 44.001v386c13.333 4 26.666 6.66699 39.999 8s26.666 2 39.999 2c39.333 0 77 -5.33301 113 -16
s67.667 -26.5 95 -47.5s49.166 -47.667 65.499 -80s24.5 -69.833 24.5 -112.5z" />
    <glyph glyph-name="e" unicode="e" horiz-adv-x="422" 
d="M400 155c0.666992 2 -0.171875 3.83496 -2.50488 5.50195s-4.83301 2.66699 -7.5 3s-5.33398 0 -8.00098 -1s-4.33398 -2.5 -5.00098 -4.5c-6 -23.333 -18 -40.166 -36 -50.499s-37.667 -15.5 -59 -15.5c-17.333 0 -35.666 3.33301 -54.999 10s-34.333 17.334 -45 32.001
v194h13h30c12 0 24.167 -0.333008 36.5 -1s23.5 -1.83398 33.5 -3.50098s16.667 -3.83398 20 -6.50098c2 -1.33301 4.16699 -4.66602 6.5 -9.99902s4.5 -11 6.5 -17c0.666992 -3.33301 0.833984 -5.83301 0.500977 -7.5s3.5 -4.83398 11.5 -9.50098
c3.33301 -2.66699 7 -3.33398 11 -2.00098s6.33301 3.66602 7 6.99902c1.33301 9.33301 2.66602 18 3.99902 26l4 24c1.33301 8.66699 2.5 19 3.5 31s2.16699 22.333 3.5 31c0.666992 3.33301 -0.5 6.16602 -3.5 8.49902s-6.83301 2.83301 -11.5 1.5
c-4 -1.33301 -8.16699 -4.33301 -12.5 -9s-9.16602 -8.33398 -14.499 -11.001h1c-6 -2 -11.667 -4.16699 -17 -6.5s-9.66602 -3.5 -12.999 -3.5h-120v191h18c5.33301 0 10.666 0.166992 15.999 0.5s10.333 0.5 15 0.5c5.33301 0 10.5 0.166992 15.5 0.5s10.167 0.5 15.5 0.5
c9.33301 0 18.666 -0.666992 27.999 -2s17.666 -3.83301 24.999 -7.5s13.333 -8.83398 18 -15.501s7.33398 -15.667 8.00098 -27c0.666992 -5.33301 4.33398 -8 11.001 -8s10.667 2.33301 12 7c1.33301 4 2.33301 8 3 12s1.66699 8.33301 3 13l8 32
c2.66699 10.667 4.66699 22.334 6 35.001c0.666992 3.33301 -0.666016 6 -3.99902 8s-7.33301 2.33301 -12 1c-9.33301 -3.33301 -27.666 -5.66602 -54.999 -6.99902s-57.666 -2 -90.999 -2c-23.333 0 -46.333 0.166992 -69 0.5s-43.667 0.833008 -63 1.5
c-12 0 -22.833 0.166992 -32.5 0.5s-17.5 0.5 -23.5 0.5s-10 -2 -12 -6s-0.333008 -7.33301 5 -10c5.33301 -3.33301 10.833 -5.66602 16.5 -6.99902l16.5 -4c7.33301 -1.33301 14.166 -3.83301 20.499 -7.5s9.5 -11.167 9.5 -22.5v-410c0 -18 -3 -32.5 -9 -43.5
s-18.333 -16.833 -37 -17.5c-6 0 -9.16699 -2.83301 -9.5 -8.5s2.5 -8.83398 8.5 -9.50098c23.333 -1.33301 47 -1.83301 71 -1.5s48 0.5 72 0.5c10.667 0 21.334 0.166992 32.001 0.5s21.334 0.5 32.001 0.5c4.66699 0 12.834 -0.166992 24.501 -0.5
s24 -0.666016 37 -0.999023s25.167 -0.5 36.5 -0.5s19 0.666992 23 2l8 4z" />
    <glyph glyph-name="f" unicode="f" horiz-adv-x="416" 
d="M394 602l-15.999 8.99805c-6.66699 -3.33301 -13.667 -5.5 -21 -6.5s-14.666 -1.5 -21.999 -1.5h-113h-95c-30.667 0 -62 0.666992 -94 2c-6 0 -9.5 -2.33301 -10.5 -7s1.16699 -7.66699 6.5 -9c5.33301 -2.66699 10.5 -4.83398 15.5 -6.50098s10.167 -3.16699 15.5 -4.5
c7.33301 -1.33301 14.166 -4 20.499 -8s9.5 -12.333 9.5 -25v-407c0 -12.667 -0.5 -22.667 -1.5 -30s-3.16699 -13 -6.5 -17s-8.16602 -7 -14.499 -9s-14.833 -3.66699 -25.5 -5c-6 -1.33301 -8.66699 -4.66602 -8 -9.99902s4 -8 10 -8
c17.333 -0.666992 34.5 -1.16699 51.5 -1.5s34.167 -0.5 51.5 -0.5h50c16.667 0 33.334 0.666992 50.001 2c6.66699 0.666992 9.66699 3.83398 9 9.50098s-4.33398 8.5 -11.001 8.5c-25.333 -1.33301 -42.166 2.66699 -50.499 12s-12.5 26.666 -12.5 51.999v185
c3.33301 -0.666992 6.33301 -1 9 -1h10c6 0 11.667 0.166992 17 0.5s10.666 0.833008 15.999 1.5c6 0.666992 11.667 1.16699 17 1.5s10.666 0.5 15.999 0.5c18.667 0 34.5 -3.5 47.5 -10.5s19.167 -20.833 18.5 -41.5c0 -4 2 -6.83301 6 -8.5s8 -1.16699 12 1.5
c5.33301 3.33301 9.5 9.16602 12.5 17.499s5.16699 17.333 6.5 27s2.16602 19.334 2.49902 29.001s0.5 18.167 0.5 25.5v12c0 4 -2.33301 6.83301 -7 8.5s-9 1.16699 -13 -1.5c-3.33301 -3.33301 -8.33301 -7.16602 -15 -11.499s-11.667 -6.5 -15 -6.5h-141v183
c8.66699 0 15.334 0.333008 20.001 1l21 3c10 1.33301 20 2.5 30 3.5s19.667 1.5 29 1.5c18.667 0 34.667 -3.5 48 -10.5s20.333 -21.167 21 -42.5c0 -4 2 -6.83301 6 -8.5s8 -1.5 12 0.5c4 2.66699 7.5 6.83398 10.5 12.501s5.33301 12 7 19s3 14.5 4 22.5
s1.5 15.333 1.5 22c0 2 0.166992 4.66699 0.5 8s0.666016 6.5 0.999023 9.5s0.5 5.16699 0.5 6.5c0 2 0 2.33301 0 1z" />
    <glyph glyph-name="g" unicode="g" horiz-adv-x="671" 
d="M636 314l-0.99707 17.001c-32.667 1.33301 -65.167 2.16602 -97.5 2.49902s-65.166 0.5 -98.499 0.5c-6 0 -9.66699 -2.33301 -11 -7s0.666992 -8 6 -10c9.33301 -4 19 -7 29 -9c7.33301 -2 14.666 -4.83301 21.999 -8.5s11 -10.167 11 -19.5v-161
c-13.333 -10.667 -28.5 -17.5 -45.5 -20.5s-33.5 -4.5 -49.5 -4.5c-36.667 0 -72.334 6.33301 -107.001 19s-65.334 30.5 -92.001 53.5s-48.167 50.667 -64.5 83s-24.5 68.166 -24.5 107.499c0 36 7.33301 67.833 22 95.5s34.167 51 58.5 70s52 33.333 83 43
s62.833 14.5 95.5 14.5c19.333 0 38.833 -2 58.5 -6s37.667 -10.5 54 -19.5s30.5 -20.833 42.5 -35.5s20 -32.667 24 -54c1.33301 -3.33301 3.66602 -5.5 6.99902 -6.5s6.66602 -0.833008 9.99902 0.5c5.33301 2 9.5 9 12.5 21s5.33301 25.167 7 39.5s2.66699 28 3 41
s0.5 21.833 0.5 26.5c0 5.33301 -3.33301 8 -10 8c-12 1.33301 -24 2.83301 -36 4.5s-24 3.16699 -36 4.5c-22 3.33301 -45.5 6.16602 -70.5 8.49902s-49.167 3.5 -72.5 3.5c-42 0 -83.333 -5.16699 -124 -15.5s-77 -26.5 -109 -48.5s-58 -50.167 -78 -84.5
s-30 -75.166 -30 -122.499c0 -41.333 7.33301 -79.5 22 -114.5s35 -65.5 61 -91.5s56.667 -46.833 92 -62.5s73.333 -24.834 114 -27.501c12.667 -0.666992 25 -1.16699 37 -1.5s24.333 -0.5 37 -0.5c16 0 32.667 0.5 50 1.5s34.5 2.83301 51.5 5.5s33.5 6.66699 49.5 12
s30.667 12.333 44 21c1.33301 0.666992 2.5 1.83398 3.5 3.50098s1.5 3.16699 1.5 4.5v183c0 12.667 5.33301 21.334 16 26.001s21.334 8 32.001 10z" />
    <glyph glyph-name="h" unicode="h" horiz-adv-x="704" 
d="M674 71c-6 4.66699 -12.165 7.49805 -18.498 8.49805s-12.5 1.5 -18.5 1.5c-3.33301 0 -6.83301 0.166992 -10.5 0.5s-7.16699 0.833008 -10.5 1.5c-2 0.666992 -3.83301 3.66699 -5.5 9s-3.16699 11.166 -4.5 17.499s-2.33301 12.333 -3 18s-1 9.83398 -1 12.501v405
c0 15.333 4.83301 25 14.5 29s20.834 7 33.501 9c6.66699 1.33301 9.83398 4.33301 9.50098 9s-3.83301 7.33398 -10.5 8.00098c-32 2 -64.333 3.33301 -97 4s-65.334 1 -98.001 1c-8.66699 0 -12.334 -3.33301 -11.001 -10c1.33301 -7.33301 4.83301 -11.333 10.5 -12
s12.5 -1.66699 20.5 -3c4 0 8.16699 -0.333008 12.5 -1s8.33301 -2.33398 12 -5.00098s6.66699 -6.33398 9 -11.001s3.5 -11 3.5 -19v-165h-328v166c0 12.667 5 21.834 15 27.501s20.667 8.83398 32 9.50098c6.66699 0 10.167 2.66699 10.5 8s-2.83398 8.33301 -9.50098 9
c-32 2.66699 -64.333 4.16699 -97 4.5s-65 0.5 -97 0.5c-5.33301 0 -9 -1.33301 -11 -4s-1.66699 -5.66699 1 -9c3.33301 -5.33301 7.83301 -8.66602 13.5 -9.99902s11.834 -2.33301 18.501 -3c7.33301 -0.666992 14.666 -2.66699 21.999 -6s11 -12.666 11 -27.999v-406
c0 -12.667 -0.5 -22.667 -1.5 -30s-3.16699 -13.166 -6.5 -17.499s-8.16602 -7.33301 -14.499 -9s-14.833 -3.5 -25.5 -5.5c-6.66699 -1.33301 -9.66699 -4.66602 -9 -9.99902s4.33398 -8 11.001 -8c17.333 -0.666992 34.333 -1.16699 51 -1.5s33.667 -0.5 51 -0.5
c16.667 0 33.167 0.166992 49.5 0.5s33.166 0.833008 50.499 1.5l-1 18c-25.333 -1.33301 -42.333 2.66699 -51 12s-13 26.666 -13 51.999v197h328v-199c0 -5.33301 -0.5 -11.5 -1.5 -18.5s-2.66699 -13.833 -5 -20.5s-5.33301 -12.167 -9 -16.5s-8.16699 -6.5 -13.5 -6.5
c-2 0 -5.66699 1.33301 -11 4l-11 -16c9.33301 -4.66699 22.666 -7.33398 39.999 -8.00098s31.666 -1 42.999 -1h50c12 0 24.167 0.166992 36.5 0.5s24.833 0.166016 37.5 -0.500977z" />
    <glyph glyph-name="i" unicode="i" horiz-adv-x="269" 
d="M240 70c-5.33301 4.66699 -10.8359 7.49707 -16.5029 8.49707s-12.167 1.5 -19.5 1.5c-3.33301 0 -7 0.333008 -11 1s-7 1.33398 -9 2.00098c-1.33301 2 -3 5.66699 -5 11s-3.66699 11 -5 17s-2.5 11.667 -3.5 17s-1.5 9.33301 -1.5 12v404c0 16 4.66699 26 14 30
s20.666 7 33.999 9c6 1.33301 8.83301 4.33301 8.5 9s-3.5 7.33398 -9.5 8.00098c-15.333 1.33301 -30.333 1.33301 -45 0s-29.667 -2 -45 -2s-31 0.666992 -47 2s-32 1.33301 -48 0c-6.66699 -0.666992 -10.167 -3.5 -10.5 -8.5s2.83398 -7.83301 9.50098 -8.5
c12 -1.33301 23.5 -4.83301 34.5 -10.5s16.5 -15.167 16.5 -28.5v-407c0 -5.33301 -0.5 -11.333 -1.5 -18s-2.5 -13.334 -4.5 -20.001s-4.83301 -12.167 -8.5 -16.5s-8.16699 -6.5 -13.5 -6.5c-1.33301 0 -3.16602 -0.5 -5.49902 -1.5s-5.16602 -0.833008 -8.49902 0.5
c-6 1.33301 -10.333 -1.16699 -13 -7.5s-1 -10.5 5 -12.5c4.66699 -2 11.167 -3.16699 19.5 -3.5s17 -0.166016 26 0.500977s17.5 1.33398 25.5 2.00098s14.667 1 20 1l38 -1c12.667 -0.666992 24.834 -0.666992 36.501 0s23.5 0.666992 35.5 0z" />
    <glyph glyph-name="j" unicode="j" horiz-adv-x="302" 
d="M272 581l-1 18.002c-26 1.33301 -52 1.66602 -78 0.999023s-51.667 -1 -77 -1h-39c-5.33301 0 -9.16602 -1.33301 -11.499 -4s-1.83301 -5.66699 1.5 -9c4.66699 -6.66699 10 -10 16 -10h21c6.66699 0 12.834 -1.5 18.501 -4.5s8.5 -12.833 8.5 -29.5v-428
c0 -29.333 -2.66699 -54.166 -8 -74.499s-11.833 -37.833 -19.5 -52.5s-16.167 -26.667 -25.5 -36s-18 -17.333 -26 -24c-7.33301 -6 -13.833 -12.333 -19.5 -19s-9.5 -13 -11.5 -19c-1.33301 -4 -0.333008 -7.16699 3 -9.5s7.66602 -2.83301 12.999 -1.5
c22.667 10 45.167 22.5 67.5 37.5s42.166 32 59.499 51s31.5 40.167 42.5 63.5s16.5 48.666 16.5 75.999v436c0 15.333 4.83301 25.166 14.5 29.499s21.167 7.5 34.5 9.5z" />
    <glyph glyph-name="k" unicode="k" horiz-adv-x="667" 
d="M636 59l-5.99805 16.9912c-22 -0.666992 -45.833 5.66602 -71.5 18.999s-52 30.333 -79 51s-53.833 43.5 -80.5 68.5l-76 72.5l-39 38.5c-12.667 12.333 -24.667 23.166 -36 32.499c12.667 10 24.667 20.5 36 31.5l40 39.5l55 51.5c18.667 17.667 37.5 33.667 56.5 48
s37.833 26.5 56.5 36.5s37 15.667 55 17c6.66699 0.666992 10 3.33398 10 8.00098c0 5.33301 -3.33301 8.33301 -10 9c-14 1.33301 -28.333 2 -43 2h-42c-12.667 0 -25 0.166992 -37 0.5s-24.333 0.833008 -37 1.5c-5.33301 0 -9 -1.5 -11 -4.5s-1.33301 -6.16699 2 -9.5
c2.66699 -2.66699 4 -7.66699 4 -15s-4.5 -16.833 -13.5 -28.5s-20.5 -24.5 -34.5 -38.5s-29.333 -28.5 -46 -43.5l-49 -43.5c-10 -9.33301 -19.833 -18 -29.5 -26s-18.167 -16 -25.5 -24c-0.666992 28.667 -1.16699 57.167 -1.5 85.5s-0.5 55.5 -0.5 81.5
c0 12.667 5 23.167 15 31.5s20.667 12.833 32 13.5c6 0 9.16699 2.66699 9.5 8s-2.5 8.33301 -8.5 9c-32.667 2 -65.167 3.16699 -97.5 3.5s-64.5 0.5 -96.5 0.5c-5.33301 0 -9 -1.33301 -11 -4s-1.66699 -5.66699 1 -9c3.33301 -5.33301 7.66602 -8.66602 12.999 -9.99902
s11.666 -2.33301 18.999 -3s14.5 -2.66699 21.5 -6s10.5 -12.666 10.5 -27.999v-406c0 -12.667 -0.5 -22.667 -1.5 -30s-3.16699 -13.166 -6.5 -17.499s-8.16602 -7.5 -14.499 -9.5s-14.833 -3.66699 -25.5 -5c-6 -1.33301 -8.83301 -4.66602 -8.5 -9.99902s3.5 -8 9.5 -8
c34 -1.33301 67.333 -2.16602 100 -2.49902s65.667 -0.5 99 -0.5c6.66699 0 10.5 2.33301 11.5 7s-1.16699 8 -6.5 10c-8 4 -15.667 6.5 -23 7.5l-18.999 2.5c-4 0.666992 -7.33301 1.33398 -10 2.00098s-5 2.83398 -7 6.50098s-3.5 9.33398 -4.5 17.001
s-1.5 18.5 -1.5 32.5v174c14 -11.333 25.833 -22.166 35.5 -32.499l40.5 -41.5l71 -69c24.667 -23.333 50 -44.5 76 -63.5s52 -34.667 78 -47s52 -18.5 78 -18.5c13.333 0 26.166 1.33301 38.499 4s24.166 7.33398 35.499 14.001z" />
    <glyph glyph-name="l" unicode="l" horiz-adv-x="448" 
d="M425 161c0 4.66699 -3.00195 7.49902 -9.00195 8.49902s-10.667 -0.5 -14 -4.5c-12.667 -23.333 -30.5 -41.333 -53.5 -54s-46.833 -19 -71.5 -19c-12 0 -23.833 1.66699 -35.5 5s-22 8.33301 -31 15s-16.333 15 -22 25s-8.5 21.667 -8.5 35v373
c0 12 4.16699 21.167 12.5 27.5s18.166 8.83301 29.499 7.5h12c6 0 9.33301 2.5 10 7.5s-1.66602 8.16699 -6.99902 9.5c-14 4 -28.5 6.33301 -43.5 7s-29.833 1 -44.5 1c-10 0 -19.833 -0.166992 -29.5 -0.5s-19.5 -0.5 -29.5 -0.5h-56
c-4.66699 0 -8.16699 -1.33301 -10.5 -4s-2.5 -5.66699 -0.5 -9c2 -4 6.5 -6.83301 13.5 -8.5s13.5 -2.83398 19.5 -3.50098c7.33301 -0.666992 14.5 -2.83398 21.5 -6.50098s10.5 -13.167 10.5 -28.5v-406c0 -17.333 -3 -31.666 -9 -42.999s-18 -17.333 -36 -18
c-6.66699 0 -10.167 -2.83301 -10.5 -8.5s2.83398 -8.83398 9.50098 -9.50098c32.667 -2 66.334 -3 101.001 -3c13.333 0 27 0.166992 41 0.5s27.667 0.5 41 0.5c16 0.666992 31.667 1 47 1h48c15.333 0 30.833 -0.166992 46.5 -0.5s31.167 -1.16602 46.5 -2.49902l3 18
c-2 0.666992 -3.33301 0.833984 -4 0.500977s-2 -0.166016 -4 0.500977c6.66699 12 10.667 24.5 12 37.5l4 39.5c0 2 0.166992 3.83301 0.5 5.5s0.5 3.16699 0.5 4.5z" />
    <glyph glyph-name="m" unicode="m" horiz-adv-x="877" 
d="M842 73c-10 4.66699 -16.835 6.83105 -20.502 6.49805s-8.16699 0.166992 -13.5 1.5c-8 1.33301 -16.167 3.33301 -24.5 6s-15.5 8.66699 -21.5 18c-6 8 -11.167 22.667 -15.5 44s-8.33301 45 -12 71s-6.66699 52.5 -9 79.5s-4.5 50.833 -6.5 71.5
c-1.33301 9.33301 -2.16602 17.333 -2.49902 24s-0.833008 12.667 -1.5 18c-8 64.667 -17 129.667 -27 195c-0.666992 4 -3.5 6.5 -8.5 7.5s-9.16699 -0.166992 -12.5 -3.5c-13.333 -19.333 -25.666 -38.833 -36.999 -58.5s-22 -39.167 -32 -58.5l-11 -20l-11 -20
l-30.5 -57.5l-30.5 -57.5l-43.5 -83l-44.5 -83c-6 10 -12.333 21.667 -19 35s-17 32.666 -31 57.999l-58 105l-60 107.5c-19.333 33.667 -36.833 62.834 -52.5 87.501s-27.5 40.334 -35.5 47.001c-4 2.66699 -8.16699 3.33398 -12.5 2.00098s-6.83301 -4 -7.5 -8
s-1.33398 -9.5 -2.00098 -16.5s-1.66699 -14.833 -3 -23.5c-2.66699 -21.333 -5.66699 -47.333 -9 -78l-11 -97l-12.5 -102.5c-4.33301 -34.333 -8.5 -65.5 -12.5 -93.5s-7.66699 -51.667 -11 -71s-6 -31 -8 -35c-2.66699 -5.33301 -6.66699 -8.5 -12 -9.5
s-11 -1.83301 -17 -2.5c-5.33301 0 -10.666 -0.666992 -15.999 -2c-6 -1.33301 -8.83301 -4.5 -8.5 -9.5s3.5 -7.83301 9.5 -8.5c28.667 -1.33301 57.167 -2.33301 85.5 -3s56.833 -1 85.5 -1c6 0 9.66699 2.33301 11 7s-0.666992 8 -6 10
c-11.333 5.33301 -19.166 8.5 -23.499 9.5s-8.16602 2.16699 -11.499 3.5c-4 1.33301 -7.16699 2.5 -9.5 3.5s-4 2.83301 -5 5.5s-1.66699 6.66699 -2 12s-0.5 12.666 -0.5 21.999v16c0 34 2.16699 68.333 6.5 103s9.16602 69.334 14.499 104.001l6 37
c2 12 3.66699 24.667 5 38c6 -10 10.833 -18.667 14.5 -26l10.5 -21l10.5 -21l13.5 -27l35.5 -68.5c12.333 -23.667 25.5 -47.167 39.5 -70.5s28.5 -46.166 43.5 -68.499s30.833 -43.166 47.5 -62.499c3.33301 -2.66699 6.83301 -3.83398 10.5 -3.50098
s6.5 2.16602 8.5 5.49902l31 56l30 57l67.5 127.5c22.333 42.333 46.166 84.166 71.499 125.499c0.666992 -11.333 1.5 -20.666 2.5 -27.999l3 -21.5c1 -7 2.16699 -14.333 3.5 -22s2.66602 -17.167 3.99902 -28.5c4.66699 -36.667 9 -73.334 13 -110.001s6 -73 6 -109
c0 -6.66699 -0.166992 -13.167 -0.5 -19.5s-1.16602 -11.833 -2.49902 -16.5c-1.33301 -3.33301 -1 -6.16602 1 -8.49902s5 -3.5 9 -3.5c56.667 -4 113.667 -6 171 -6z" />
    <glyph glyph-name="n" unicode="n" horiz-adv-x="720" 
d="M687 584l-4.00195 17.0059c-24 1.33301 -48 2.5 -72 3.5s-48.333 1.16699 -73 0.5l-36 -1c-5.33301 0 -9 -2 -11 -6s-0.666992 -7 4 -9c8 -4.66699 18.333 -7.66699 31 -9c4.66699 -0.666992 9.33398 -1.5 14.001 -2.5s9 -3 13 -6s7.33301 -7.66699 10 -14
s4 -14.833 4 -25.5v-61c0 -10.667 -0.166992 -21 -0.5 -31s-0.5 -20.333 -0.5 -31c0 -16.667 0.333008 -34.334 1 -53.001s1.66699 -36.334 3 -53.001l2 -60.5c0.666992 -19.667 0.666992 -39.834 0 -60.501l-225 217.5l-228 213.5
c-1.33301 1.33301 -3.5 2.16602 -6.5 2.49902s-5.5 -0.166992 -7.5 -1.5c-3.33301 -2.66699 -6.66602 -5.83398 -9.99902 -9.50098s-5 -8.16699 -5 -13.5v-472c0 -13.333 -4 -23.5 -12 -30.5s-17.667 -9.83301 -29 -8.5h-12c-6 0 -9.5 -2.66699 -10.5 -8
s1.5 -8.66602 7.5 -9.99902c14 -3.33301 28.5 -5.33301 43.5 -6s30.167 -1 45.5 -1h35c11.333 0 23 0.166992 35 0.5s23.667 0.166016 35 -0.500977c6 0 10 2 12 6s0.333008 7.33301 -5 10c-6 4.66699 -12.333 7.5 -19 8.5s-13 2.16699 -19 3.5
c-4.66699 0.666992 -9.16699 1.66699 -13.5 3s-8.33301 3.66602 -12 6.99902s-6.5 8.5 -8.5 15.5s-3 16.167 -3 27.5c0 25.333 -0.333008 50.333 -1 75s-1.66699 49.334 -3 74.001c-1.33301 25.333 -2.5 50.333 -3.5 75s-1.5 49.667 -1.5 75v19c0 6 0.333008 12 1 18l52 -51
h-1l195.5 -192.5c66.333 -63.667 136.833 -123.5 211.5 -179.5c4 -2 8 -2.5 12 -1.5s6.33301 3.5 7 7.5c4 42 6.66699 83.833 8 125.5s2 83.834 2 126.501c0 18.667 -0.166992 39.5 -0.5 62.5s-0.5 44.167 -0.5 63.5c-0.666992 20.667 -1 41 -1 61v63
c0 7.33301 4 12.666 12 15.999s16 6 24 8h-1c4 1.33301 7.5 2.16602 10.5 2.49902z" />
    <glyph glyph-name="o" unicode="o" horiz-adv-x="700" 
d="M675 314c0 41.333 -8.49902 80.6641 -25.499 117.997s-39.833 70 -68.5 98s-61.834 50.333 -99.501 67s-77.167 25 -118.5 25c-42 0 -83.167 -6.33301 -123.5 -19s-76.333 -31.167 -108 -55.5s-57.334 -54.166 -77.001 -89.499s-29.5 -75.666 -29.5 -120.999
c0 -41.333 9 -79.833 27 -115.5s41.667 -66.5 71 -92.5s63.166 -46.5 101.499 -61.5s77.5 -22.5 117.5 -22.5s79.833 5.66699 119.5 17s75.334 28.333 107.001 51s57.334 50.834 77.001 84.501s29.5 72.5 29.5 116.5zM586.001 315.998
c0 -34 -5.32812 -65.1689 -15.9951 -93.502s-25.834 -52.666 -45.501 -72.999s-43.334 -36 -71.001 -47s-58.5 -16.5 -92.5 -16.5c-36.667 0 -70 7.16699 -100 21.5s-55.833 33.666 -77.5 57.999s-38.5 52.5 -50.5 84.5s-18 65.667 -18 101
c0 34.667 5.66699 65.834 17 93.501s27.166 51.334 47.499 71.001s44.666 34.834 72.999 45.501s59.166 16 92.499 16c36 0 68.833 -7 98.5 -21s55 -33 76 -57s37.333 -51.833 49 -83.5s17.5 -64.834 17.5 -99.501z" />
    <glyph glyph-name="p" unicode="p" horiz-adv-x="456" 
d="M434 471c0 30 -6.16699 53.666 -18.5 70.999s-28.5 30.666 -48.5 39.999s-42.333 15.333 -67 18s-49.334 4 -74.001 4c-7.33301 0 -14 -0.166992 -20 -0.5s-12.333 -0.5 -19 -0.5h-31c-7.33301 0 -14.166 0.166992 -20.499 0.5s-13.166 0.5 -20.499 0.5h-64h-17
c-5.33301 0 -9 -1.33301 -11 -4s-1.66699 -5.66699 1 -9c3.33301 -5.33301 8 -8.66602 14 -9.99902s12.333 -2.33301 19 -3c7.33301 -0.666992 14.5 -2.5 21.5 -5.5s10.5 -11.5 10.5 -25.5v-409c0 -12.667 -0.5 -22.667 -1.5 -30s-3.16699 -13.166 -6.5 -17.499
s-8.16602 -7.33301 -14.499 -9s-14.833 -3.5 -25.5 -5.5c-6.66699 -1.33301 -9.83398 -4.66602 -9.50098 -9.99902s3.83301 -8 10.5 -8c34 -1.33301 67.833 -2.33301 101.5 -3s67.5 -1 101.5 -1c4.66699 0 8 1.33301 10 4s2 5.66699 0 9
c-2.66699 5.33301 -7.16699 8.5 -13.5 9.5l-21.5 3.5c-3.33301 0.666992 -7.66602 1.16699 -12.999 1.5s-9.66602 1.16602 -12.999 2.49902c-1.33301 1.33301 -2.66602 4.66602 -3.99902 9.99902s-2.83301 11 -4.5 17s-3 11.833 -4 17.5s-1.5 9.5 -1.5 11.5v420
c8 2.66699 16.167 4.83398 24.5 6.50098s17.166 2.5 26.499 2.5c18 0 34.5 -3.66699 49.5 -11s27.833 -17 38.5 -29s19 -26 25 -42s9 -33 9 -51c0 -19.333 -3.33301 -36.333 -10 -51s-15.834 -27 -27.501 -37s-25.334 -17.667 -41.001 -23s-32.5 -8 -50.5 -8h-19
c-6.66699 0 -10.334 -2.5 -11.001 -7.5s2.33301 -8.16699 9 -9.5l23 -4c8 -1.33301 16.333 -2 25 -2c24 0 47.167 4.66699 69.5 14s41.833 22 58.5 38s30 34.833 40 56.5s15 44.5 15 68.5z" />
    <glyph glyph-name="q" unicode="q" horiz-adv-x="713" 
d="M1214 -40l-9.99902 14.999c-27.333 -9.33301 -55.333 -16.666 -84 -21.999s-58 -8 -88 -8c-41.333 0 -82.333 4.33301 -123 13s-80.834 20.334 -120.501 35.001s-78.667 31 -117 49s-75.833 36.667 -112.5 56c39.333 28 70.833 63.167 94.5 105.5s35.5 87.833 35.5 136.5
c0 44 -9.33301 82.833 -28 116.5s-43.334 62 -74.001 85s-65.334 40.333 -104.001 52s-78 17.5 -118 17.5c-41.333 0 -82 -6.5 -122 -19.5s-75.667 -32 -107 -57s-56.5 -55.333 -75.5 -91s-28.5 -75.834 -28.5 -120.501c0 -46.667 8.83301 -88 26.5 -124
s41.5 -66.167 71.5 -90.5s64.833 -42.666 104.5 -54.999s81.5 -18.5 125.5 -18.5c11.333 0 22.5 1.16699 33.5 3.5s21.167 4.83301 30.5 7.5c10 3.33301 19.5 6 28.5 8s17.5 3 25.5 3h5c11.333 -4 22.833 -8.66699 34.5 -14l35.5 -16l22 -10.5l22 -10.5
c30.667 -13.333 61.834 -26 93.501 -38s63.834 -22.833 96.501 -32.5s65.667 -17.334 99 -23.001s67 -8.5 101 -8.5c82 0 157.667 18.667 227 56zM590.001 334.999c0 -30.667 -4.66211 -59.666 -13.9951 -86.999s-22.5 -52 -39.5 -74s-37.333 -41.167 -61 -57.5
s-49.834 -28.833 -78.501 -37.5c-36 4 -70.333 13.833 -103 29.5s-61.5 36 -86.5 61s-45 54 -60 87s-22.5 68.5 -22.5 106.5c0 34 6.33301 63.833 19 89.5s29.667 47 51 64s46.166 29.833 74.499 38.5s58.166 13 89.499 13c33.333 0 64.166 -5.66699 92.499 -17
s52.666 -27.333 72.999 -48s36.333 -45.334 48 -74.001s17.5 -60 17.5 -94z" />
    <glyph glyph-name="r" unicode="r" horiz-adv-x="677" 
d="M644 59l-6 16.999c-20 -2.66699 -40 0.833008 -60 10.5s-39.667 22.5 -59 38.5s-38 34 -56 54l-51 59l-29.5 34.5c-9.66699 11 -19.5 21.5 -29.5 31.5c11.333 10 22.5 21.167 33.5 33.5s21 25.5 30 39.5s16.333 28.667 22 44s8.5 30.666 8.5 45.999
c0 30.667 -7.16699 55 -21.5 73s-32.5 31.667 -54.5 41s-46.5 15.333 -73.5 18s-52.833 4 -77.5 4c-7.33301 0 -14.166 -0.166992 -20.499 -0.5s-12.833 -0.5 -19.5 -0.5h-21h-30c-9.33301 0 -19.333 0.333008 -30 1c-8 0.666992 -16 1 -24 1h-23h-15
c-5.33301 0 -9 -1.33301 -11 -4s-1.66699 -5.66699 1 -9c3.33301 -5.33301 7.66602 -8.66602 12.999 -9.99902s11.666 -2.33301 18.999 -3s14.5 -2.66699 21.5 -6s10.5 -13 10.5 -29v-406c0 -12.667 -0.5 -22.834 -1.5 -30.501s-3.16699 -13.5 -6.5 -17.5
s-8.16602 -6.83301 -14.499 -8.5s-14.833 -3.16699 -25.5 -4.5c-6 -1.33301 -8.83301 -4.5 -8.5 -9.5s3.5 -7.83301 9.5 -8.5c34 -2 67.833 -3.16699 101.5 -3.5s67.5 -0.5 101.5 -0.5c6 0 10 2 12 6s0.333008 7.33301 -5 10c-5.33301 4 -11.166 6.5 -17.499 7.5
s-12.5 1.83301 -18.5 2.5c-3.33301 0.666992 -7.33301 1 -12 1c-4 0 -7 0.666992 -9 2c-1.33301 0.666992 -2.83301 3.5 -4.5 8.5s-3.16699 10.667 -4.5 17s-2.5 12.333 -3.5 18s-1.5 9.83398 -1.5 12.501v132c5.33301 0.666992 8.83301 0.833984 10.5 0.500977
s5.16699 -0.5 10.5 -0.5c14.667 0 30.834 -1.16699 48.501 -3.5s32.167 -8.5 43.5 -18.5c12.667 -10.667 24.667 -22.667 36 -36l34 -42l39 -47c13.333 -15.333 27.666 -29 42.999 -41s32.333 -21.667 51 -29s39.667 -11 63 -11c29.333 0 56.666 5.33301 81.999 16z
M353 429.999c0 -34 -8.33398 -60.999 -25.001 -80.999s-41.334 -30 -74.001 -30c-11.333 0 -23.166 0.333008 -35.499 1s-24.166 1.66699 -35.499 3v241c14.667 4 30 6 46 6c18.667 0 35.667 -3.83301 51 -11.5s28.5 -17.834 39.5 -30.501s19.333 -27.5 25 -44.5
s8.5 -34.833 8.5 -53.5z" />
    <glyph glyph-name="s" unicode="s" horiz-adv-x="377" 
d="M356 202c0 17.333 -4.00098 33.668 -12.001 49.001s-18.333 30 -31 44s-27 27.167 -43 39.5l-47 36.5l-37 29c-12.667 10 -24.167 20.5 -34.5 31.5s-18.666 22.167 -24.999 33.5s-9.5 22.666 -9.5 33.999c0 12.667 2.66699 24 8 34s12.333 18.333 21 25
s18.5 11.834 29.5 15.501s22.167 5.5 33.5 5.5s22.5 -1.66699 33.5 -5s21 -8.33301 30 -15s16.333 -14.667 22 -24s8.5 -20.333 8.5 -33c0 -4.66699 2.5 -7.66699 7.5 -9s9.5 -0.333008 13.5 3c8 8.66699 12.5 19.834 13.5 33.501s1.5 27.167 1.5 40.5v28
c1.33301 5.33301 -1.66699 8.66602 -9 9.99902c-27.333 6 -55.333 9 -84 9c-18 0 -39.5 -2.16699 -64.5 -6.5s-48.833 -11.5 -71.5 -21.5s-41.834 -23.333 -57.501 -40s-23.5 -37.334 -23.5 -62.001c0 -15.333 3.83301 -30.166 11.5 -44.499s17.834 -28.666 30.501 -42.999
s26.834 -28.5 42.501 -42.5l47.5 -41l41.5 -36c13.667 -12 26 -24.333 37 -37s20 -25 27 -37s10.5 -24 10.5 -36c0 -13.333 -3.66699 -25 -11 -35s-16.666 -18.333 -27.999 -25s-23.5 -11.834 -36.5 -15.501s-24.833 -5.5 -35.5 -5.5c-12.667 0 -25.5 1.66699 -38.5 5
s-24.833 8.5 -35.5 15.5s-19.167 15.667 -25.5 26s-8.83301 22.5 -7.5 36.5v12c0 2.66699 -1.16699 4.66699 -3.5 6s-4.83301 2 -7.5 2s-5.33398 -0.5 -8.00098 -1.5s-4 -2.83301 -4 -5.5c-0.666992 -11.333 -2.66699 -20.666 -6 -27.999
c-2.66699 -7.33301 -4.83398 -14.5 -6.50098 -21.5s-2.5 -13.833 -2.5 -20.5c0 -14 3.83301 -25.5 11.5 -34.5s17 -16.167 28 -21.5s22.833 -9 35.5 -11s24.334 -3 35.001 -3c21.333 0 45.166 3.5 71.499 10.5s50.833 17.167 73.5 30.5s41.667 29.666 57 48.999
s23 41.666 23 66.999z" />
    <glyph glyph-name="t" unicode="t" horiz-adv-x="573" 
d="M545 584l-0.00390625 15.9971c0 7.33301 -4.33301 10.333 -13 9c-4 -0.666992 -7.66699 -1.16699 -11 -1.5s-6 -1.16602 -8 -2.49902h1l-16 -4c-5.33301 -1.33301 -9.66602 -2 -12.999 -2h-357c-4 0 -9.16699 0.5 -15.5 1.5s-12.833 2.16699 -19.5 3.5
s-13.167 2.83301 -19.5 4.5s-10.833 3.5 -13.5 5.5c-3.33301 1.33301 -6.66602 1.5 -9.99902 0.5s-5.66602 -3.16699 -6.99902 -6.5c-1.33301 -4 -2.5 -8 -3.5 -12s-2.16699 -7.66699 -3.5 -11c-3.33301 -10 -6.66602 -20.667 -9.99902 -32s-5 -21.333 -5 -30
c0 -6.66699 0.333008 -11 1 -13c1.33301 -4 4.66602 -6.33301 9.99902 -7s9.33301 1 12 5c7.33301 13.333 17.166 24.666 29.499 33.999s25.833 14 40.5 14h127v-421c0 -12 -0.666992 -21.5 -2 -28.5s-3.66602 -12.5 -6.99902 -16.5s-8.33301 -6.83301 -15 -8.5
s-15 -3.16699 -25 -4.5c-6 -1.33301 -8.83301 -4.66602 -8.5 -9.99902s3.5 -8 9.5 -8c34 -1.33301 67.833 -2.33301 101.5 -3s67.5 -1 101.5 -1c5.33301 0 9 1.33301 11 4s2 5.66699 0 9c-2.66699 5.33301 -7.16699 8.66602 -13.5 9.99902s-13.166 2.33301 -20.499 3
c-4 0.666992 -8.83301 1.33398 -14.5 2.00098s-9.83398 1.66699 -12.501 3h-1c-1.33301 0.666992 -2.66602 3.5 -3.99902 8.5s-2.5 10.667 -3.5 17s-2 12.333 -3 18s-1.5 9.5 -1.5 11.5v414c4.66699 -1.33301 7.5 -1.66602 8.5 -0.999023s4.16699 1 9.5 1h20
c6.66699 0 13 0.333008 19 1s11.667 1 17 1h16c21.333 0 40.5 -3.16699 57.5 -9.5s27.833 -21.166 32.5 -44.499c1.33301 -4.66699 5 -7 11 -7c6.66699 0 10.667 2.33301 12 7c6 26.667 9 53.667 9 81z" />
    <glyph glyph-name="u" unicode="u" horiz-adv-x="672" 
d="M637 582l-0.999023 16.999c-29.333 2 -58.666 3.33301 -87.999 4s-59 1 -89 1c-9.33301 0 -13.333 -3.33301 -12 -10c1.33301 -7.33301 5.16602 -11.5 11.499 -12.5s13.166 -1.83301 20.499 -2.5l12.5 -2c4.33301 -0.666992 8.16602 -2.16699 11.499 -4.5
s6.16602 -5.83301 8.49902 -10.5s3.5 -11 3.5 -19v-78c0 -26 0.333008 -51.667 1 -77c0.666992 -26 1 -52 1 -78v-77c0 -24 -4.66699 -45 -14 -63s-21.833 -33.167 -37.5 -45.5s-33.667 -21.666 -54 -27.999s-41.166 -9.5 -62.499 -9.5s-41.833 3 -61.5 9
s-37.167 15 -52.5 27s-27.666 26.833 -36.999 44.5s-14 38.167 -14 61.5c0 26 0.166992 52.167 0.5 78.5s0.5 52.833 0.5 79.5v157c0 14.667 4.66699 24.167 14 28.5s20.666 7.16602 33.999 8.49902c6 0.666992 9 3.33398 9 8.00098c0 5.33301 -3 8.33301 -9 9
c-55.333 4 -110.333 6 -165 6h-31c-9.33301 0 -13.333 -3.33301 -12 -10c1.33301 -7.33301 4.83301 -11.333 10.5 -12s12.5 -1.66699 20.5 -3c8 -0.666992 16.167 -2.66699 24.5 -6s12.5 -13.333 12.5 -30v-296c0 -4 0.5 -8.66699 1.5 -14s1.5 -11 1.5 -17v1
c0 -30 8.16699 -56 24.5 -78s37 -40.167 62 -54.5s52.333 -25 82 -32s57.834 -10.5 84.501 -10.5c32.667 0 63.667 5.33301 93 16s54.833 25.834 76.5 45.501s38.834 43.334 51.501 71.001s19 58.5 19 92.5v277c0 13.333 5.16699 22.666 15.5 27.999
s21.166 8.66602 32.499 9.99902z" />
    <glyph glyph-name="v" unicode="v" horiz-adv-x="711" 
d="M676 583l-2 17.001c-15.333 0.666992 -30 1.16699 -44 1.5s-28.333 0.5 -43 0.5s-29.167 -0.166992 -43.5 -0.5s-28.5 -0.833008 -42.5 -1.5c-6.66699 0 -10 -3 -10 -9c0 -5.33301 3.33301 -8 10 -8c0.666992 0 1.66699 -0.166992 3 -0.5s2.66602 -0.5 3.99902 -0.5
c5.33301 -0.666992 11.666 -1.66699 18.999 -3s11 -2.66602 11 -3.99902c0 -16 -4.83301 -38 -14.5 -66s-21.667 -58.5 -36 -91.5s-29.666 -66.5 -45.999 -100.5l-45.5 -93l-23 -46c-4 10 -7.66699 18.667 -11 26l-9.5 21.5c-3 7 -6.33301 14.167 -10 21.5
s-7.5 15.666 -11.5 24.999l-66.5 148.5c-21.667 50.333 -39.5 101.166 -53.5 152.499c4 2 9.33301 5.33301 16 10s12.334 6.66699 17.001 6c6 -0.666992 9.5 2 10.5 8s-1.5 9 -7.5 9c-22.667 0 -41.667 -0.5 -57 -1.5s-32 -1.5 -50 -1.5h-37
c-11.333 0 -22.166 -0.166992 -32.499 -0.5s-21.166 -0.166016 -32.499 0.500977c-6 0 -10 -2.16699 -12 -6.5s-0.333008 -7.5 5 -9.5c5.33301 -3.33301 10.833 -5.66602 16.5 -6.99902l16.5 -4c8 -2 15.5 -4.33301 22.5 -7s12.5 -8 16.5 -16
c4.66699 -6.66699 9.16699 -14.834 13.5 -24.501s9.16602 -19.5 14.499 -29.5c2.66699 -5.33301 5 -10.333 7 -15s4.33301 -9 7 -13h-1c10 -20 19.833 -41.5 29.5 -64.5l29.5 -68.5l67.5 -151.5c23.667 -51 49.5 -97.5 77.5 -139.5
c2.66699 -2.66699 6.16699 -3.83398 10.5 -3.50098s7.83301 1.83301 10.5 4.5l71.5 141.5l68.5 142.5c5.33301 12 11.333 24.667 18 38l18 37c3.33301 5.33301 6.33301 11.333 9 18s5.66699 13.667 9 21l15 32.5c5.33301 11.667 10.833 22.834 16.5 33.501l16.5 30
c5.33301 9.33301 10.333 17 15 23c4 4 9 7.16699 15 9.5s12.333 4.16602 19 5.49902c3.33301 0.666992 6.16602 1.16699 8.49902 1.5s4.83301 0.833008 7.5 1.5z" />
    <glyph glyph-name="w" unicode="w" horiz-adv-x="982" 
d="M945 596c-13.333 3.33301 -26.833 4.67188 -40.5 4.00488s-27.834 -1 -42.501 -1c-15.333 0 -31.166 0.5 -47.499 1.5s-32.166 0.833008 -47.499 -0.5c-6.66699 -0.666992 -9.83398 -3.66699 -9.50098 -9s3.83301 -8 10.5 -8c1.33301 0 2.33301 -0.166992 3 -0.5
s2 -0.5 4 -0.5c5.33301 -0.666992 12.333 -1.66699 21 -3s13 -3.66602 13 -6.99902c0 -19.333 -3.16699 -42 -9.5 -68s-14.333 -53.5 -24 -82.5s-20.334 -58.333 -32.001 -88l-33.5 -84.5l-13 -30c-4 -9.33301 -7.66699 -18.666 -11 -27.999l-12.5 31l-10.5 27.5l-10.5 28
l-11.5 31.5l-58 145.5c-20 49 -42.667 96.167 -68 141.5c-2.66699 3.33301 -6.33398 5 -11.001 5c-4 0 -7 -1.66699 -9 -5l-88.5 -201l-87.5 -202c-1.33301 5.33301 -2.66602 9.66602 -3.99902 12.999l-3.5 9c-1 2.66699 -2 5.5 -3 8.5s-2.5 6.83301 -4.5 11.5
c-20 54 -39.333 109.333 -58 166s-32 113.667 -40 171c3.33301 3.33301 7.16602 5.16602 11.499 5.49902s8.16602 0.833008 11.499 1.5c6.66699 0.666992 12.667 2 18 4c6 1.33301 8.83301 4.5 8.5 9.5s-3.83301 7.5 -10.5 7.5c-34 1.33301 -68 2.33301 -102 3s-68 1 -102 1
c-6 0 -10 -1.83301 -12 -5.5s-0.666992 -6.83398 4 -9.50098c5.33301 -4 10.666 -6.66699 15.999 -8s11.333 -2.66602 18 -3.99902c4.66699 -1.33301 9.33398 -2.5 14.001 -3.5s8.66699 -3.5 12 -7.5c5.33301 -6.66699 11.833 -18.834 19.5 -36.501
s15.834 -38.167 24.501 -61.5l27 -76l27 -80l25.5 -77l26 -74c8.33301 -23.333 16.5 -44.833 24.5 -64.5s15.333 -35.834 22 -48.501c2.66699 -3.33301 6.33398 -5 11.001 -5s8.33398 1.66699 11.001 5l51.5 111.5l48.5 112.5l39 91.5l41 90.5l25.5 -62l24.5 -62
c17.333 -46.667 36.333 -94.834 57 -144.501s43.334 -95.834 68.001 -138.501c2.66699 -3.33301 6.33398 -4.83301 11.001 -4.5s8 2.16602 10 5.49902c18.667 40 36.5 82.5 53.5 127.5l50.5 135.5l15.5 41.5l15.5 42.5c1.33301 5.33301 3.16602 11 5.49902 17l7.5 19l28 70
c10 24 21.667 45.667 35 65c5.33301 10 12.666 14.667 21.999 14l20 -1c6.66699 -0.666992 10.5 1.5 11.5 6.5s-1.16699 8.5 -6.5 10.5z" />
    <glyph glyph-name="x" unicode="x" horiz-adv-x="636" 
d="M603 73c-18 4 -35.002 12.3418 -51.002 25.0088s-31.333 27.667 -46 45s-28.834 36.166 -42.501 56.499s-26.5 40.5 -38.5 60.5c-9.33301 16.667 -19.5 33.167 -30.5 49.5s-21.5 31.166 -31.5 44.499c7.33301 8.66699 14.833 18.167 22.5 28.5s16.167 22.5 25.5 36.5
l38 54c13.333 18.667 27 35.667 41 51s28.167 28.166 42.5 38.499s28.5 16.166 42.5 17.499c6.66699 0.666992 10.334 3.33398 11.001 8.00098s-2.33301 7.66699 -9 9c-13.333 3.33301 -27.333 5.33301 -42 6s-29.334 1 -44.001 1c-14 0 -28 -0.333008 -42 -1
s-28 -1.66699 -42 -3c-6.66699 -0.666992 -10.334 -3.33398 -11.001 -8.00098s2.33301 -7.66699 9 -9s14.167 -4 22.5 -8s12.5 -10 12.5 -18c0 -4 -2 -9.5 -6 -16.5s-9.16699 -14.833 -15.5 -23.5s-13.5 -17.834 -21.5 -27.501l-24 -28.5l-25.5 -31
c-7.66699 -9.33301 -14.167 -18.333 -19.5 -27c-6 9.33301 -12.667 19 -20 29l-23 32l-40 57c-12.667 18 -19 31.667 -19 41c0 7.33301 3 12.833 9 16.5s12 6.5 18 8.5c5.33301 1.33301 7.5 4.5 6.5 9.5s-4.5 7.5 -10.5 7.5
c-12.667 -0.666992 -25.167 -0.833984 -37.5 -0.500977s-24.5 0.5 -36.5 0.5h-37c-14.667 0 -29.5 -0.333008 -44.5 -1s-29.167 -2.66699 -42.5 -6c-6 -1.33301 -9 -4.33301 -9 -9c0 -4 3.33301 -6.66699 10 -8c17.333 -2.66699 33.5 -9.16699 48.5 -19.5s29 -23 42 -38
s25.333 -31.5 37 -49.5l33.5 -53c6.66699 -11.333 15.667 -25.666 27 -42.999l29 -43c-9.33301 -11.333 -18 -23.333 -26 -36l-27 -42l-41.5 -62c-14.333 -21.333 -29.166 -40.833 -44.499 -58.5s-31 -32.334 -47 -44.001s-32 -17.834 -48 -18.501
c-6.66699 -0.666992 -9.83398 -3.83398 -9.50098 -9.50098s3.83301 -8.5 10.5 -8.5h24c24 0 48.333 0.166992 73 0.5s49.334 1.16602 74.001 2.49902c6 0.666992 9.33301 3.16699 10 7.5s-1.66602 7.5 -6.99902 9.5c-5.33301 2.66699 -11.333 4 -18 4
c-3.33301 0 -6.66602 1.33301 -9.99902 4c2 8.66699 6.33301 19.667 13 33s14.834 27.5 24.501 42.5l30.5 46l30 43.5l14 19.5c4 5.66699 7.66699 11.167 11 16.5l21 -31l27.5 -40l29 -43l26 -40c7.66699 -12 13.834 -22.167 18.501 -30.5s7 -13.5 7 -15.5
c0 -4 -1.33301 -7.33301 -4 -10c-4.66699 -3.33301 -6.16699 -6.83301 -4.5 -10.5s5.5 -5.5 11.5 -5.5c13.333 0 26.833 -0.166992 40.5 -0.5s27.5 -0.833008 41.5 -1.5c13.333 -0.666992 26.666 -1 39.999 -1h41z" />
    <glyph glyph-name="y" unicode="y" horiz-adv-x="654" 
d="M620 584l-2.99414 17.001c-13.333 0.666992 -26.666 1.16699 -39.999 1.5s-26.666 0.5 -39.999 0.5h-38c-12 0 -24.667 -0.666992 -38 -2c-6 -0.666992 -9.33301 -3.16699 -10 -7.5s1.66602 -7.16602 6.99902 -8.49902c4.66699 -2 8.66699 -4.66699 12 -8
s5 -7.66602 5 -12.999s-2.5 -12.833 -7.5 -22.5s-11.333 -20.334 -19 -32.001s-15.834 -23.334 -24.501 -35.001l-24 -32.5c-9.33301 -10.667 -16 -19.334 -20 -26.001c-8 -10.667 -15.833 -22.167 -23.5 -34.5s-14.5 -24.166 -20.5 -35.499l-8 11
c-12 16 -25.833 35.5 -41.5 58.5l-44.5 67.5c-14 22 -25.833 41.5 -35.5 58.5s-14.5 27.5 -14.5 31.5c0 2.66699 1.16699 5 3.5 7s4.5 3.66699 6.5 5c4 2.66699 6.66699 4.33398 8 5.00098c4 3.33301 5 6.66602 3 9.99902s-5.66699 5 -11 5
c-28 0 -55.833 -0.333008 -83.5 -1s-55.5 -1.66699 -83.5 -3c-6 -0.666992 -9.33301 -3.33398 -10 -8.00098s2 -7.66699 8 -9c8.66699 -2 21 -9.83301 37 -23.5s33.167 -30.5 51.5 -50.5s37 -42 56 -66s36.167 -47.333 51.5 -70s27.833 -43.167 37.5 -61.5
s14.5 -32.166 14.5 -41.499v-149c0 -10.667 -2.16699 -20.667 -6.5 -30s-11.5 -14 -21.5 -14c-5.33301 0 -9 0.333008 -11 1l-7 -17c14.667 -3.33301 29.667 -5.33301 45 -6s30.666 -1 45.999 -1c19.333 0 38.5 0.333008 57.5 1s38.167 1.66699 57.5 3
c6.66699 0.666992 9.66699 3.83398 9 9.50098s-4.33398 8.5 -11.001 8.5c-16.667 -0.666992 -31.834 1.83301 -45.501 7.5s-20.5 18.167 -20.5 37.5v159c0 11.333 4.5 26.166 13.5 44.499s20.833 38.166 35.5 59.499s31.167 43 49.5 65s36.666 42.5 54.999 61.5
s35.666 35 51.999 48s30.166 21.167 41.499 24.5z" />
    <glyph glyph-name="z" unicode="z" horiz-adv-x="535" 
d="M507 177c0.666992 4.66699 -1.99707 7.66699 -7.99707 9s-10.667 0 -14 -4c-6 -8.66699 -13 -17.667 -21 -27s-16.833 -17.666 -26.5 -24.999s-19.834 -13.5 -30.501 -18.5s-21 -7.5 -31 -7.5l-212 -1c-2 0 -4.33301 -0.166992 -7 -0.5s-5 -0.5 -7 -0.5
s-4.16699 -0.166992 -6.5 -0.5s-4.16602 -0.5 -5.49902 -0.5l51.5 67l51.5 66l62 80.5l71.5 95.5l69.5 96c22 31.333 40.333 59 55 83c2.66699 2.66699 3 5.5 1 8.5s-5.66699 4.5 -11 4.5h-337c-11.333 0 -23.666 0.833008 -36.999 2.5s-26.333 4.16699 -39 7.5
c-7.33301 1.33301 -12.333 -1 -15 -7c-0.666992 -2 -1 -4 -1 -6c0 -1.33301 -0.333008 -3 -1 -5c-3.33301 -17.333 -6.5 -34.666 -9.5 -51.999s-5.5 -35.666 -7.5 -54.999c-0.666992 -4.66699 1.33301 -7.83398 6 -9.50098s9 -0.833984 13 2.49902l9 9
c16 16 33.667 31.667 53 47s39.666 23 60.999 23c30.667 0.666992 61 1 91 1h90c2 0 4.16699 0.166992 6.5 0.5s4.5 0.5 6.5 0.5c1.33301 0 2.66602 0.166992 3.99902 0.5s2.66602 0.5 3.99902 0.5l-64 -85l-65 -85l-119.5 -158c-39 -52 -76.5 -106 -112.5 -162
c-3.33301 -3.33301 -3.83301 -6.5 -1.5 -9.5s6.16602 -4.5 11.499 -4.5c70.667 -0.666992 140.667 -1.16699 210 -1.5s139.333 -0.5 210 -0.5h45c6.66699 0 10 3 10 9s-3.33301 9 -10 9h-11c5.33301 17.333 9.33301 34.666 12 51.999s4.66699 34.333 6 51z" />
    <glyph glyph-name="braceleft" unicode="{" horiz-adv-x="291" 
d="M264 24c-15.333 6.66699 -27.665 16.4941 -36.998 29.4941s-16.5 27.667 -21.5 44s-8.33301 33.833 -10 52.5s-2.5 37 -2.5 55v26c0 8.66699 0.333008 17.334 1 26.001c0 7.33301 0.166992 14 0.5 20s0.5 12 0.5 18s-1.33301 13.333 -4 22s-6.16699 17.334 -10.5 26.001
s-9.33301 17 -15 25s-11.834 14.667 -18.501 20c10.667 8 19.334 17.833 26.001 29.5s11.667 24.167 15 37.5s5.33301 27.5 6 42.5s1 30.167 1 45.5c0 16.667 0.166992 33.334 0.5 50.001s2.5 31.834 6.5 45.501s10.5 25.334 19.5 35.001s22.167 16.5 39.5 20.5l-2 17
c-34.667 -2 -61.334 -8.66699 -80.001 -20s-32.5 -25.833 -41.5 -43.5s-14.333 -37.167 -16 -58.5s-2.5 -43 -2.5 -65c0 -15.333 -0.5 -30.166 -1.5 -44.499s-3.16699 -27.5 -6.5 -39.5s-8.83301 -22 -16.5 -30s-18.167 -13 -31.5 -15
c-6 -1.33301 -9.16699 -4.16602 -9.5 -8.49902s2.16699 -7.16602 7.5 -8.49902c8.66699 -4 15.834 -6.83301 21.501 -8.5s10.5 -2.83398 14.5 -3.50098c4 -1.33301 7.16699 -2.5 9.5 -3.5s4.16602 -3.33301 5.49902 -7s2.16602 -8.83398 2.49902 -15.501
s0.5 -16.334 0.5 -29.001v-77c0 -25.333 1.33301 -49.666 4 -72.999s9 -45 19 -65s24.333 -37.667 43 -53s44 -27.333 76 -36c6 -1.33301 10.167 0.666992 12.5 6s0.5 9 -5.5 11z" />
    <glyph glyph-name="braceright" unicode="}" horiz-adv-x="258" 
d="M235 387c-3.33301 4 -7.83105 6.5 -13.498 7.5s-11.5 2.16699 -17.5 3.5c-6.66699 1.33301 -12.667 3.5 -18 6.5s-8 10.167 -8 21.5c0 6.66699 0.166992 13.667 0.5 21s0.5 14.666 0.5 21.999s0.166992 14.833 0.5 22.5s0.5 15.167 0.5 22.5c0 24 -1.5 47.5 -4.5 70.5
s-9.5 43.833 -19.5 62.5s-24.5 34.167 -43.5 46.5s-44.5 19.833 -76.5 22.5c-6 0.666992 -9.66699 -1.33301 -11 -6s0.666992 -8 6 -10c2 -2 3.66699 -3.33301 5 -4h-2l23 -16c8 -5.33301 15.167 -11.333 21.5 -18s11.5 -13.834 15.5 -21.501s6 -15.834 6 -24.501v-17
c0 -6 -0.333008 -12.333 -1 -19c-0.666992 -8.66699 -1.16699 -17.667 -1.5 -27s-0.5 -18.666 -0.5 -27.999c0 -26.667 2.83301 -52.334 8.5 -77.001s19.5 -44.334 41.5 -59.001c-6.66699 -5.33301 -12.834 -12.166 -18.501 -20.499s-10.667 -17.166 -15 -26.499
s-7.66602 -18.333 -9.99902 -27s-3.5 -15.667 -3.5 -21v-20c0 -7.33301 0.333008 -14.333 1 -21c0.666992 -8 1 -16.333 1 -25v-27c0 -18 -0.833008 -36 -2.5 -54s-5.16699 -34.833 -10.5 -50.5s-12.833 -29.5 -22.5 -41.5s-22.5 -21 -38.5 -27c-6 -2 -8 -5.66699 -6 -11
s6 -7.33301 12 -6c31.333 6.66699 56.666 17.334 75.999 32.001s34.166 32 44.499 52s17.333 42.333 21 67s5.5 50.667 5.5 78v25c0 6 -0.166992 12.167 -0.5 18.5s-0.5 13.166 -0.5 20.499c0 10.667 0.333008 20.834 1 30.501s1.66699 16.834 3 21.501c2 6 5.5 10 10.5 12
s10.167 3 15.5 3c8.66699 0 14.667 0.333008 18 1z" />
    <glyph glyph-name="exclamdown" unicode="&#xa1;" horiz-adv-x="141" 
d="M123 640c0 13.333 -4.83203 26.167 -14.499 38.5s-22.167 18.5 -37.5 18.5c-14.667 0 -26.667 -4.83301 -36 -14.5s-14 -20.834 -14 -33.501c0 -6 1.16699 -12.167 3.5 -18.5s5.5 -12.166 9.5 -17.499s9 -9.83301 15 -13.5s12.667 -5.5 20 -5.5
c5.33301 0 11.333 1.33301 18 4c11.333 2.66699 20.166 7.5 26.499 14.5s9.5 16.167 9.5 27.5zM120.001 125.001c0 11.333 -0.333008 23.499 -1 36.499s-1.66699 25.5 -3 37.5c-0.666992 6.66699 -1.16699 13.334 -1.5 20.001s-0.833008 13.667 -1.5 21l-3 57
c-2.66699 44 -5.83398 87.5 -9.50098 130.5s-10.5 85.5 -20.5 127.5c-1.33301 4.66699 -5.5 6.83398 -12.5 6.50098s-10.833 -2.83301 -11.5 -7.5c-7.33301 -44 -12.166 -88.5 -14.499 -133.5s-4.5 -90.5 -6.5 -136.5c-2 -38 -4.16699 -75.333 -6.5 -112
s-5.83301 -74 -10.5 -112c-0.666992 -3.33301 0.5 -6 3.5 -8s6.5 -2.66699 10.5 -2c4.66699 0.666992 12 4 22 10s19.833 12.833 29.5 20.5s18.167 15.667 25.5 24s11 15.166 11 20.499z" />
    <glyph glyph-name="cent" unicode="&#xa2;" horiz-adv-x="420" 
d="M398 491c0 14 -3.83203 25.668 -11.499 35.001s-17.334 16.833 -29.001 22.5s-24.167 9.83398 -37.5 12.501s-26 4.66699 -38 6l5.5 37.5l5.5 36.5c1.33301 5.33301 -2.33398 8.66602 -11.001 9.99902c-12 0.666992 -21.167 -0.666016 -27.5 -3.99902
s-11 -7.83301 -14 -13.5s-4.83301 -12.5 -5.5 -20.5s-1 -16 -1 -24v-12c0 -4 -0.333008 -7.66699 -1 -11c-30 0.666992 -57.833 -4.16602 -83.5 -14.499s-48 -24.666 -67 -42.999s-33.833 -40.333 -44.5 -66s-16 -53.5 -16 -83.5c0 -24.667 3.83301 -47.834 11.5 -69.501
s18.5 -41.334 32.5 -59.001s30.833 -32.5 50.5 -44.5s41.5 -21 65.5 -27c-0.666992 -10 -1.66699 -19.667 -3 -29s-2.66602 -19.333 -3.99902 -30c-1.33301 -9.33301 -2.5 -18.5 -3.5 -27.5s-1.83301 -18.167 -2.5 -27.5c0 -7.33301 4.33301 -10.333 13 -9l31 4
c6 0 9.66699 2.33301 11 7l5 56c0.666992 7.33301 1.33398 15.333 2.00098 24s1.33398 16.667 2.00098 24c4 0 6.66699 -0.166992 8 -0.5s4.66602 -0.5 9.99902 -0.5c14.667 0 30.5 1 47.5 3s32.667 5.66699 47 11s26.333 13.166 36 23.499s14.5 24.166 14.5 41.499
c0 6 -0.833008 12.167 -2.5 18.5s-3.83398 12.833 -6.50098 19.5h-21c-8 -24 -19.833 -40.833 -35.5 -50.5s-35.167 -14.5 -58.5 -14.5c-3.33301 0 -6.66602 0.166992 -9.99902 0.5s-6.66602 0.5 -9.99902 0.5h-7c2.66699 8.66699 4.16699 20.334 4.5 35.001
s1.16602 33.667 2.49902 57c1.33301 24 3 49.167 5 75.5s4.33301 50.333 7 72s6.16699 39.5 10.5 53.5s9.83301 21 16.5 21c5.33301 0 11.5 -3 18.5 -9s14 -13 21 -21s13.5 -16.333 19.5 -25s10.667 -15.667 14 -21c3.33301 -3.33301 7.16602 -4.83301 11.499 -4.5
s7.5 2.16602 9.5 5.49902c3.33301 7.33301 6.33301 15 9 23s4 16.667 4 26zM220.001 516.001c-5.33301 -50 -10.168 -99 -14.501 -147s-9.16602 -97 -14.499 -147c-27.333 16 -49 38.167 -65 66.5s-24 59.166 -24 92.499c0 38 10.833 68.833 32.5 92.5
s50.167 37.834 85.5 42.501z" />
    <glyph glyph-name="sterling" unicode="&#xa3;" horiz-adv-x="505" 
d="M482 594l0.00292969 47.0029l-5 9c-23.333 16 -50.666 24 -81.999 24c-30.667 0 -60.334 -9 -89.001 -27s-54.167 -40.667 -76.5 -68s-40.333 -57 -54 -89s-20.5 -62 -20.5 -90v-11c0 -4 0.666992 -8 2 -12c-1.33301 0.666992 -3.33301 1.16699 -6 1.5
s-5.33398 0.833008 -8.00098 1.5c-3.33301 0.666992 -6.5 1.16699 -9.5 1.5s-6.5 0.5 -10.5 0.5c-13.333 0 -23.666 -3.16699 -30.999 -9.5s-12.333 -15.166 -15 -26.499c-0.666992 -3.33301 0.333008 -6 3 -8s6 -3 10 -3c11.333 1.33301 22 1.83301 32 1.5
s20.667 -1.16602 32 -2.49902c-3.33301 -11.333 -5.33301 -21.5 -6 -30.5s-1.66699 -19.167 -3 -30.5c-3.33301 -22.667 -6.83301 -44.667 -10.5 -66s-10.5 -40.666 -20.5 -57.999c-8.66699 -14.667 -19 -25.667 -31 -33s-22.667 -13.333 -32 -18l-17 -8.5
c-4.66699 -2.33301 -7.66699 -4.5 -9 -6.5c-3.33301 -3.33301 -3 -7 1 -11c1.33301 -2 7.16602 -3.5 17.499 -4.5s23.166 -1.83301 38.499 -2.5s32.333 -1 51 -1h57h123c3.33301 0 7 -0.166992 11 -0.5s7.66699 -0.833008 11 -1.5
c5.33301 -0.666992 9.16602 -1.33398 11.499 -2.00098s8.83301 -1 19.5 -1c32.667 0 60 7.33301 82 22s33 40 33 76c0 6 -0.333008 11.667 -1 17s-1.66699 10.666 -3 15.999c-1.33301 4 -4.33301 6.33301 -9 7s-8.66699 -0.666016 -12 -3.99902
c-1.33301 -2 -3 -4.16699 -5 -6.5s-3.66699 -4.83301 -5 -7.5c-4 -6 -8.33301 -12 -13 -18s-9.5 -11.667 -14.5 -17s-10.5 -9.83301 -16.5 -13.5s-12.333 -5.83398 -19 -6.50098c-14 -1.33301 -28 -2 -42 -2h-41c-10 0 -20 0.166992 -30 0.5s-20 0.5 -30 0.5
c-11.333 0 -22.833 0.166992 -34.5 0.5s-23.5 0.5 -35.5 0.5h-13c29.333 28.667 49.333 61.667 60 99s17 75.333 19 114c3.33301 1.33301 4.83301 1.66602 4.5 0.999023s1.5 -1 5.5 -1h10c4 0 8 -0.333008 12 -1c4.66699 -0.666992 9.66699 -1.16699 15 -1.5
s11 -0.5 17 -0.5c15.333 0 29.5 2.5 42.5 7.5s21.167 15.5 24.5 31.5c1.33301 3.33301 0.666016 6.16602 -2.00098 8.49902s-6.33398 3.16602 -11.001 2.49902c-22 -2 -43.333 -3 -64 -3c-15.333 0 -32 1 -50 3c-2.66699 8 -4 18.333 -4 31
c0 16.667 3.66699 36.834 11 60.501s17.333 46.5 30 68.5s27.334 40.833 44.001 56.5s34.334 23.5 53.001 23.5c10 0 18.833 -3 26.5 -9s14.5 -13.333 20.5 -22s11.167 -18.167 15.5 -28.5s7.83301 -19.833 10.5 -28.5c1.33301 -3.33301 4.33301 -5.33301 9 -6
s8.33398 0.666016 11.001 3.99902c7.33301 9.33301 11.666 19.166 12.999 29.499s2 20.5 2 30.5z" />
    <glyph glyph-name="yen" unicode="&#xa5;" horiz-adv-x="595" 
d="M570 636l-2.00781 18.001h-38c-17.333 0 -35.166 -0.166992 -53.499 -0.5s-36.166 -1.16602 -53.499 -2.49902c-5.33301 -0.666992 -8.83301 -2.33398 -10.5 -5.00098s-1.16699 -5.66699 1.5 -9c8 -8 12 -19.667 12 -35c0 -6.66699 -2 -15.167 -6 -25.5
s-9.16699 -21.666 -15.5 -33.999s-13.5 -25.166 -21.5 -38.499l-24 -40l-23.5 -39c-6.33301 -10.667 -12.166 -21.667 -17.499 -33c-5.33301 11.333 -10.833 21.166 -16.5 29.499s-13.5 20.833 -23.5 37.5l-26.5 43c-9 14.667 -17 28.834 -24 42.501s-12.667 26.5 -17 38.5
s-6.5 22.667 -6.5 32c0 10 2 17.333 6 22c3.33301 3.33301 4 6.33301 2 9s-5.33301 4.33398 -10 5.00098c-27.333 2 -53.333 3 -78 3c-14 0 -27.5 -0.333008 -40.5 -1s-26.167 -1.66699 -39.5 -3c-6.66699 -0.666992 -10.167 -3.5 -10.5 -8.5s2.5 -8.16699 8.5 -9.5
c16.667 -4 33 -13.667 49 -29s31.5 -33.666 46.5 -54.999s29.333 -44.5 43 -69.5l38.5 -71.5c6.66699 -11.333 12.834 -22.5 18.501 -33.5s11.5 -21.5 17.5 -31.5c-1.33301 -0.666992 -2.33301 -1 -3 -1v0l-0.5 0.5c-0.333008 0.333008 -1.16602 0.5 -2.49902 0.5h-10
c-3.33301 0 -7 0.333008 -11 1c-8.66699 0.666992 -17.667 1.16699 -27 1.5s-18.166 -0.333984 -26.499 -2.00098s-16 -4.83398 -23 -9.50098s-12.5 -11.667 -16.5 -21c-2 -3.33301 -1.83301 -6.33301 0.5 -9s5.83301 -4 10.5 -4h122v-38h-16l-0.5 0.5
c-0.333008 0.333008 -1.16602 0.5 -2.49902 0.5h-10c-3.33301 0 -7 0.333008 -11 1c-8.66699 0.666992 -17.667 1.16699 -27 1.5s-18.166 -0.333984 -26.499 -2.00098s-16 -4.83398 -23 -9.50098s-12.5 -11.667 -16.5 -21c-2 -3.33301 -1.83301 -6.33301 0.5 -9
s5.83301 -4 10.5 -4h122v-104c0 -6 -2 -10.833 -6 -14.5s-9 -6.66699 -15 -9s-12.167 -3.83301 -18.5 -4.5s-11.833 -1 -16.5 -1c-3.33301 0 -6 0.333008 -8 1c-6.66699 1.33301 -10.834 -0.666992 -12.501 -6s0.5 -9 6.5 -11c11.333 -3.33301 24.166 -5.5 38.499 -6.5
s27.833 -1.5 40.5 -1.5h136c6 0 9.83301 2.16699 11.5 6.5s-0.166016 7.83301 -5.49902 10.5c-4 2 -9 3.5 -15 4.5s-11.667 2.16699 -17 3.5c-10 2 -19.5 4.66699 -28.5 8s-13.5 9.66602 -13.5 18.999v105h108c5.33301 0 9 1.66699 11 5c2 5.33301 5.5 10.5 10.5 15.5
s7.5 10.5 7.5 16.5s-3.66699 9 -11 9h-116h-3c-1.33301 0 -3.66602 -0.333008 -6.99902 -1v35h108c5.33301 0 9 1.66699 11 5c2 5.33301 5.5 10.5 10.5 15.5s7.5 10.5 7.5 16.5s-3.66699 9 -11 9h-116l11 20c3.33301 6 8 15 14 27l41.5 76.5c15 27.667 30.667 53.5 47 77.5
s33 44.5 50 61.5s34.167 26.5 51.5 28.5z" />
    <glyph glyph-name="section" unicode="&#xa7;" horiz-adv-x="413" 
d="M391 353c0 30.667 -3.49707 55.835 -10.4971 75.502s-16.167 35.5 -27.5 47.5s-24.333 21.333 -39 28s-29.667 12.667 -45 18c-14 4.66699 -27.333 8.5 -40 11.5s-26 6.5 -40 10.5c-8 2 -16.5 5.66699 -25.5 11s-17.5 12.333 -25.5 21s-14.667 19 -20 31s-8 25.667 -8 41
c0 8 1 18 3 30s6.16699 23.667 12.5 35s15.5 21.166 27.5 29.499s28 12.5 48 12.5c10.667 0 25.167 -1.5 43.5 -4.5s38.5 -8.5 60.5 -16.5c7.33301 -2.66699 12.333 -1 15 5l18 48c2 5.33301 -0.333008 9 -7 11c-15.333 6.66699 -30.666 11.334 -45.999 14.001
s-30.333 4 -45 4c-32.667 0 -60.334 -4.83301 -83.001 -14.5s-41.334 -22 -56.001 -37s-25.834 -31.5 -33.501 -49.5s-13.334 -34.833 -17.001 -50.5s-5.83398 -29.334 -6.50098 -41.001s-1 -18.834 -1 -21.501c0 -16 1.16699 -29.5 3.5 -40.5s5.5 -20.667 9.5 -29
s9 -16.166 15 -23.499s13 -15 21 -23c-25.333 -26.667 -43.333 -55.334 -54 -86.001s-16 -61 -16 -91c0 -28 3 -51.5 9 -70.5s14.667 -34.833 26 -47.5s25.166 -22.834 41.499 -30.501s34.5 -14.5 54.5 -20.5c8 -2 16.333 -4.33301 25 -7s16.667 -5 24 -7
c12.667 -3.33301 25 -7.16602 37 -11.499s22.833 -10.5 32.5 -18.5s17.334 -18.333 23.001 -31s8.5 -29 8.5 -49c0 -25.333 -4 -45 -12 -59s-17.333 -24.167 -28 -30.5s-21.334 -10 -32.001 -11s-18.667 -1.5 -24 -1.5c-21.333 0 -40.5 2.16699 -57.5 6.5
s-30.167 8.16602 -39.5 11.499c-6.66699 2.66699 -11.334 1.33398 -14.001 -3.99902l-18 -48c-1.33301 -2.66699 -1.16602 -5.16699 0.500977 -7.5s4.5 -3.83301 8.5 -4.5c1.33301 -1.33301 2.66602 -2 3.99902 -2h4c15.333 -6 30.333 -9.83301 45 -11.5
s27.667 -2.5 39 -2.5c26.667 0 51.667 4.5 75 13.5s43.5 22.167 60.5 39.5s30.5 38.833 40.5 64.5s15 55.167 15 88.5c0 8 -0.333008 17 -1 27s-2.66699 20.5 -6 31.5s-8.16602 22 -14.499 33s-15.166 21.5 -26.499 31.5c24.667 25.333 42.334 52.333 53.001 81s16 59 16 91
zM336.003 318.001c-8 0 -12.0029 -2.66895 -12.0029 -8.00195c0 -42 -13.333 -78.333 -40 -109c-1.33301 0.666992 -1.66602 0.833984 -0.999023 0.500977s0.333984 -0.166016 -0.999023 0.500977h-1c-4.66699 1.33301 -9.16699 2.83301 -13.5 4.5
s-9.16602 3.16699 -14.499 4.5c-9.33301 2.66699 -19 5.16699 -29 7.5s-19.667 4.83301 -29 7.5c-11.333 2.66699 -23 6.16699 -35 10.5s-23.167 11 -33.5 20s-18.833 21 -25.5 36s-10 34.5 -10 58.5c0 28 4.33301 51.333 13 70s16.667 33 24 43h1
c12 -4 24.667 -7.66699 38 -11l45 -12z" />
    <glyph glyph-name="dieresis" unicode="&#xa8;" horiz-adv-x="298" 
d="M276 678c1.33301 13.333 -2.83301 25.4971 -12.5 36.4971s-21.834 16.167 -36.501 15.5c-11.333 -1.33301 -20.833 -5.33301 -28.5 -12s-12.167 -15 -13.5 -25c-1.33301 -7.33301 -0.166016 -14.666 3.50098 -21.999s8.5 -13.666 14.5 -18.999
s12.833 -9.16602 20.5 -11.499s15.167 -1.83301 22.5 1.5c16.667 6.66699 26.667 18.667 30 36zM113.001 677.997c0.666992 6.66699 0 13.166 -2 19.499s-5.33301 12 -10 17s-10.167 8.83301 -16.5 11.5s-12.833 4 -19.5 4c-11.333 -1.33301 -20.833 -5.33301 -28.5 -12
s-12.167 -15.334 -13.5 -26.001c-1.33301 -7.33301 -0.333008 -14.666 3 -21.999s8 -13.666 14 -18.999s12.833 -9 20.5 -11s15.5 -1.66699 23.5 1l1 1c16 8 25.333 20 28 36z" />
    <glyph glyph-name="copyright" unicode="&#xa9;" horiz-adv-x="697" 
d="M672 350c0 39.333 -7.5 79.832 -22.5 121.499s-36 79.5 -63 113.5s-59 61.833 -96 83.5s-77.5 32.5 -121.5 32.5c-41.333 0 -82.333 -7.66699 -123 -23s-77.5 -36.666 -110.5 -63.999s-59.667 -59.5 -80 -96.5s-30.5 -76.833 -30.5 -119.5c0 -26 3.5 -52.667 10.5 -80
s16.833 -54.166 29.5 -80.499s28 -51.333 46 -75s38.167 -44.334 60.5 -62.001s46.5 -31.667 72.5 -42s53.333 -15.5 82 -15.5c42 0 83.5 7.66699 124.5 23s78 36.833 111 64.5s59.667 60.167 80 97.5s30.5 78 30.5 122zM610 411.999
c0 -36.667 -5.99707 -71.335 -17.9971 -104.002s-28.5 -62.5 -49.5 -89.5s-45.833 -50.667 -74.5 -71s-59.667 -36.166 -93 -47.499c-39.333 4 -76 14.333 -110 31s-63.833 38.5 -89.5 65.5s-45.834 58 -60.501 93s-22 72.833 -22 113.5c0 40 7.33301 75.333 22 106
s34.667 56.334 60 77.001s54.666 36.167 87.999 46.5s68.666 15.5 105.999 15.5c35.333 0 67.833 -5.5 97.5 -16.5s55.167 -26.833 76.5 -47.5s37.833 -45.5 49.5 -74.5s17.5 -61.5 17.5 -97.5zM492.003 540.998l-5.00391 7.00391
c-13.333 9.33301 -28.166 15.666 -44.499 18.999s-32.166 5 -47.499 5c-26 0 -53.333 -4.16699 -82 -12.5s-55 -20.5 -79 -36.5s-43.833 -35.667 -59.5 -59s-23.5 -50 -23.5 -80c0 -28.667 6.83301 -55 20.5 -79s31.167 -44.5 52.5 -61.5s45.5 -30.333 72.5 -40
s54.167 -14.5 81.5 -14.5c13.333 0 26.333 1.33301 39 4s24 7 34 13s18.167 14.167 24.5 24.5s9.5 23.166 9.5 38.499v11c0 4 -0.333008 7.66699 -1 11c-1.33301 4.66699 -5 7 -11 7s-10 -2 -12 -6c-7.33301 -18 -18 -32.5 -32 -43.5s-30.667 -16.5 -50 -16.5
s-38.166 5.16699 -56.499 15.5s-34.5 23.666 -48.5 39.999s-25.333 34.333 -34 54s-13 38.834 -13 57.501c0 18 4.16699 34.833 12.5 50.5s19.333 29.167 33 40.5s28.834 20.166 45.501 26.499s33.667 9.5 51 9.5c22.667 0 41.667 -6.16699 57 -18.5
s25.333 -30.166 30 -53.499c1.33301 -4.66699 4.83301 -7.16699 10.5 -7.5s9.83398 1.5 12.501 5.5c5.33301 11.333 8.66602 22.666 9.99902 33.999s2 22.666 2 33.999c0 3.33301 0.166992 6.83301 0.5 10.5s0.5 7.16699 0.5 10.5z" />
    <glyph glyph-name="ordfeminine" unicode="&#xaa;" horiz-adv-x="403" 
d="M374 411c-10 4 -20.167 12.1641 -30.5 24.4971s-20.5 27 -30.5 44s-20 35.5 -30 55.5l-28 58l-26.5 54c-8.33301 17.333 -16.5 32.333 -24.5 45c-2.66699 3.33301 -6 4.83301 -10 4.5s-7.33301 -2.16602 -10 -5.49902c-6.66699 -12 -13.167 -25.667 -19.5 -41l-19.5 -46
l-25 -60.5c-8.66699 -21 -18 -40.5 -28 -58.5s-20.333 -33.5 -31 -46.5s-21.334 -21.833 -32.001 -26.5c-5.33301 -2 -7.66602 -5.33301 -6.99902 -10s4 -7 10 -7c8.66699 -0.666992 17.167 -0.833984 25.5 -0.500977s16.5 0.5 24.5 0.5h52c4.66699 0 8 1.5 10 4.5
s1.66699 6.16699 -1 9.5c-4.66699 6.66699 -8.66699 13.334 -12 20.001s-5 14 -5 22c0 6.66699 1.83301 12.334 5.5 17.001s8.33398 8.5 14.001 11.5s11.667 5.16699 18 6.5s12.5 2 18.5 2c9.33301 0 18.666 -1.16699 27.999 -3.5s17.833 -6 25.5 -11s14 -11.167 19 -18.5
s7.5 -16.333 7.5 -27c0 -6.66699 -0.666992 -12.667 -2 -18c-1.33301 -7.33301 1.66699 -11.333 9 -12c13.333 -1.33301 26.333 -2.16602 39 -2.49902s25.667 -0.5 39 -0.5h23c6 0 9.5 2.33301 10.5 7s-1.16699 7.66699 -6.5 9zM214 525.997l-50 0.000976562
c4 10.667 7.5 19.167 10.5 25.5s6.5 14.833 10.5 25.5c1.33301 3.33301 1.83301 5.16602 1.5 5.49902s0.166992 1.83301 1.5 4.5c5.33301 -10 10 -20 14 -30z" />
    <glyph glyph-name="guillemotleft" unicode="&#xab;" horiz-adv-x="398" 
d="M373 272l-55.001 55v-1l-33.5 34l-32.5 34c3.33301 5.33301 8.5 11.833 15.5 19.5s14.167 16.167 21.5 25.5l27.5 33.5c9.66699 11.667 18.334 22.667 26.001 33s14 19.833 19 28.5s7.5 15 7.5 19c0 1.33301 -0.166992 2.5 -0.5 3.5s-1.83301 2.83301 -4.5 5.5
c-5.33301 4 -10.666 4.33301 -15.999 1l-87.5 -81c-29 -27.333 -57.167 -55.333 -84.5 -84c-4.66699 -4 -4.66699 -7.66699 0 -11c22.667 -28.667 46.167 -56.5 70.5 -83.5s49.833 -53.167 76.5 -78.5c5.33301 -3.33301 10.666 -3 15.999 1c5.33301 6 10.833 11.667 16.5 17
l16.5 16zM220.999 264l-1.00488 13l-61.5 58c-19.667 19.333 -39.167 39.666 -58.5 60.999c4.66699 6 9.16699 11.333 13.5 16l14.5 16c17.333 20 34 40.333 50 61s29.667 41.667 41 63c3.33301 4.66699 2.5 8.5 -2.5 11.5s-10.167 2.83301 -15.5 -0.5l-90 -79.5
c-29.333 -27 -58.333 -55.5 -87 -85.5c-3.33301 -3.33301 -3.66602 -6.66602 -0.999023 -9.99902c20.667 -30 44.667 -58.5 72 -85.5l80 -77.5c2 -2 4.83301 -2.83301 8.5 -2.5s6.5 1.83301 8.5 4.5c2.66699 3.33301 5.33398 6.5 8.00098 9.5s5.33398 6.16699 8.00098 9.5
s4.83398 6.33301 6.50098 9s3.83398 5.66699 6.50098 9z" />
    <glyph glyph-name="logicalnot" unicode="&#xac;" horiz-adv-x="1072" 
d="M1039 7c-1.33301 3.33301 -4.33789 5.6543 -9.00488 6.9873c-39.333 10.667 -75.5 26 -108.5 46s-64 42.833 -93 68.5s-56.833 53 -83.5 82l-80 87.5c54.667 -4 110 -6 166 -6c-6 -5.33301 -13.5 -12.5 -22.5 -21.5s-14.167 -17.833 -15.5 -26.5l8 -8
c10.667 -2 21.167 -3.83301 31.5 -5.5s20.833 -2.5 31.5 -2.5l9 6c2.66699 14 6.33398 27.5 11.001 40.5s11.334 25.167 20.001 36.5c2 -6 4.5 -14 7.5 -24s6.83301 -20 11.5 -30s10 -18.667 16 -26s13 -11 21 -11c5.33301 0 10.166 1.83301 14.499 5.5s8 8 11 13
s5.66699 10.333 8 16s4.16602 10.5 5.49902 14.5c-2.66699 8 -7 14.5 -13 19.5s-12.333 9.5 -19 13.5s-13.167 8.33301 -19.5 13s-11.166 10.667 -14.499 18c14.667 0.666992 29.334 1.66699 44.001 3l44 4l8 10c-2 10 -4.83301 20.5 -8.5 31.5s-10.167 19.167 -19.5 24.5
l-13 -1c-8 -9.33301 -17.333 -18.5 -28 -27.5s-22 -15.167 -34 -18.5c2.66699 15.333 6.33398 30 11.001 44s7 28.667 7 44c0 6.66699 -1 13.667 -3 21l-11 5c-11.333 -2 -22.166 -4.83301 -32.499 -8.5s-20.166 -9.16699 -29.499 -16.5l-2 -6l14.5 -39.5
c5 -13 8.16699 -26.833 9.5 -41.5c-6 4 -12.667 8.83301 -20 14.5s-14.666 10.834 -21.999 15.501s-15 8.66699 -23 12s-16 5 -24 5c-1.33301 0 -3.5 -0.5 -6.5 -1.5l-7.5 -2.5l-4 -4c0 -19.333 0.5 -33.5 1.5 -42.5s3.66699 -14.833 8 -17.5s11 -3.5 20 -2.5
s22.167 1.5 39.5 1.5c8 0 16.333 -1.66699 25 -5c-5.33301 -5.33301 -10.833 -10.333 -16.5 -15l-17.5 -14c-7.33301 2.66699 -14.666 4.66699 -21.999 6s-14.5 2.83301 -21.5 4.5s-13.667 4.16699 -20 7.5s-12.5 8.33301 -18.5 15c-4.66699 6 -9.16699 19.5 -13.5 40.5
s-8.33301 44 -12 69s-6.83398 49.167 -9.50098 72.5s-4.33398 40 -5.00098 50l46 45.5c16 15.667 32.5 30.167 49.5 43.5s35 25 54 35s39.5 17.333 61.5 22l7 7l-7 6c-32 2.66699 -63.667 4.16699 -95 4.5s-63 0.5 -95 0.5l-9 -10c4 -7.33301 6 -15.666 6 -24.999
c0 -10.667 -2.66699 -20.667 -8 -30l-16 -27c-3.33301 31.333 -6.33301 63.833 -9 97.5s-9 65.5 -19 95.5c-0.666992 1.33301 -1.66699 3.83301 -3 7.5s-3.33301 5.5 -6 5.5c-1.33301 0 -3.16602 -1.33301 -5.49902 -4l-7.5 -8.5
c-2.66699 -3 -4.83398 -6.16699 -6.50098 -9.5s-2.83398 -5.33301 -3.50098 -6c-30.667 -47.333 -59.167 -96 -85.5 -146l-77.5 -150c-0.666992 20.667 -1.16699 41.334 -1.5 62.001s-0.5 41.334 -0.5 62.001c0 19.333 5.66699 34.5 17 45.5s26 18.167 44 21.5l7 7l-7 6
c-38.667 2.66699 -77.334 4.33398 -116.001 5.00098s-77.334 1 -116.001 1l-8 -10c4.66699 -8.66699 11.334 -13.334 20.001 -14.001s17.334 -1.66699 26.001 -3s16.167 -5.16602 22.5 -11.499s9.5 -19.5 9.5 -39.5v-177l-18 32h1l-22 40.5l-36.5 66.5l-43.5 77l-43.5 73.5
c-13.667 22.333 -26 40.833 -37 55.5s-19.167 22.334 -24.5 23.001l-9 -5c-1.33301 -10.667 -3.66602 -30.5 -6.99902 -59.5s-7.33301 -62 -12 -99l-14.5 -116.5l-14.5 -113.5c-4.66699 -35 -9 -64.333 -13 -88s-7 -37.167 -9 -40.5c-4 -5.33301 -9 -8.83301 -15 -10.5
s-11.833 -2.83398 -17.5 -3.50098s-10.5 -1.5 -14.5 -2.5s-6 -3.16699 -6 -6.5l8 -7c28 -1.33301 56.167 -2.33301 84.5 -3s56.5 -1 84.5 -1c2 0 4 0.833008 6 2.5s3 3.83398 3 6.50098c0 2 -2.5 4 -7.5 6l-17 6.5c-6.33301 2.33301 -12.5 4.83301 -18.5 7.5
s-10 5.66699 -12 9c-0.666992 8 -1.16699 16.167 -1.5 24.5s-0.5 16.5 -0.5 24.5c0 48.667 4.16699 96.667 12.5 144s15.166 95 20.499 143c16 -28 31.5 -56.5 46.5 -85.5l45.5 -87c15.333 -29 31.333 -57.5 48 -85.5s34.667 -55 54 -81v-237
c0 -13.333 -0.666992 -24.166 -2 -32.499s-4.33301 -15.166 -9 -20.499s-11 -9.66602 -19 -12.999s-18.667 -6.66602 -32 -9.99902l-7 -7l8 -6c40 -1.33301 79.833 -2.5 119.5 -3.5s79.5 -1.5 119.5 -1.5c2 0 4.16699 0.833008 6.5 2.5s3.5 3.83398 3.5 6.50098
c0 2 -2.33301 4 -7 6s-10 3.66699 -16 5s-11.833 2.5 -17.5 3.5s-9.5 1.5 -11.5 1.5c-16.667 3.33301 -26.667 10.833 -30 22.5s-5 24.834 -5 39.501v271c18.667 -18 39.167 -39.833 61.5 -65.5l70.5 -80.5c24.667 -28 50.334 -55.667 77.001 -83
s53.834 -51.833 81.501 -73.5s55.667 -39.334 84 -53.001s56.166 -20.5 83.499 -20.5c4 0 11 0.666992 21 2s20.167 3.33301 30.5 6s19.5 5.83398 27.5 9.50098s12 7.83398 12 12.501zM643.995 562.988l-81.999 -77.5c-26.667 -26.333 -52.334 -53.833 -77.001 -82.5
l71 134.5c24 44.333 49.333 88.5 76 132.5c1.33301 -18 3.5 -35.833 6.5 -53.5s4.83301 -35.5 5.5 -53.5zM664.996 343.988c0 -6.66699 -0.332031 -13.332 -0.999023 -19.999s-2 -13.334 -4 -20.001l-45.5 51.5c-15 17 -31.167 33.167 -48.5 48.5l45 44.5
c14.667 15 28.667 30.5 42 46.5c3.33301 -25.333 6.16602 -50.5 8.49902 -75.5s3.5 -50.167 3.5 -75.5z" />
    <glyph glyph-name="registered" unicode="&#xae;" horiz-adv-x="706" 
d="M681 349c0 25.333 -1.99805 51.667 -5.99805 79s-10.5 54.166 -19.5 80.499s-21 51.333 -36 75s-33.667 44.334 -56 62.001s-48.833 31.834 -79.5 42.501s-65.667 16 -105 16c-22 0 -41.333 -3 -58 -9h1c-37.333 -11.333 -73.833 -26.5 -109.5 -45.5
s-67.334 -42 -95.001 -69s-50 -57.833 -67 -92.5s-25.5 -73 -25.5 -115c0 -48 10.833 -91.667 32.5 -131s50 -73 85 -101s74.5 -49.667 118.5 -65s88.333 -23 133 -23c34.667 0 69.167 9.16699 103.5 27.5s65.166 41.666 92.499 69.999s49.333 60 66 95s25 69.5 25 103.5z
M403.002 441.001c0 -17.333 -4.33203 -33.167 -12.999 -47.5s-21.667 -21.5 -39 -21.5c-10 0 -20 2 -30 6v146c3.33301 0.666992 6.16602 1.16699 8.49902 1.5s4.5 0.5 6.5 0.5c10.667 0 20.167 -2.5 28.5 -7.5s15.333 -11.5 21 -19.5s10 -17.167 13 -27.5
s4.5 -20.5 4.5 -30.5zM617.003 410c0 -34.667 -5.33496 -67.5039 -16.002 -98.5039s-25.667 -59.5 -45 -85.5c-9.33301 11.333 -20.166 23 -32.499 35l-37.5 36v-1l-31.5 30.5c-9.66699 9.66699 -19.834 20.5 -30.501 32.5c13.333 16 25 33.167 35 51.5s15 38.166 15 59.499
c0 15.333 -2.83301 28.5 -8.5 39.5s-13.5 20 -23.5 27s-21.333 12.167 -34 15.5s-26 5 -40 5h-146c-5.33301 0 -8.83301 -1.5 -10.5 -4.5s-0.5 -6.16699 3.5 -9.5c3.33301 -3.33301 6.66602 -5.66602 9.99902 -6.99902s7 -2.66602 11 -3.99902h-1
c4.66699 -1.33301 9 -3.16602 13 -5.49902s6 -5.16602 6 -8.49902v-280c0 -6 -1.66699 -10 -5 -12s-7.33301 -3.66699 -12 -5h1c-6.66699 -2 -14 -5.66699 -22 -11c-5.33301 -2.66699 -7 -5.83398 -5 -9.50098s5.66699 -5.5 11 -5.5h130c5.33301 0 9.16602 1.33301 11.499 4
s1.83301 5.66699 -1.5 9c-3.33301 4.66699 -7.33301 8 -12 10s-9.66699 4 -15 6c-1.33301 1.33301 -3 2 -5 2s-4 0.666992 -6 2c-2 16 -3.16699 32.167 -3.5 48.5s-0.5 32.166 -0.5 47.499v19c2 0.666992 4.33301 1.33398 7 2.00098s5 1 7 1c14 0 27.667 -7.66699 41 -23
s27 -32.333 41 -51c16 -21.333 32.167 -40.666 48.5 -57.999s35.5 -26.666 57.5 -27.999c-19.333 -19.333 -40.333 -36.666 -63 -51.999s-48 -23.333 -76 -24c-39.333 -0.666992 -76.166 6.66602 -110.499 21.999s-64.166 36.5 -89.499 63.5s-45.333 58.5 -60 94.5
s-22 74.333 -22 115c0 40 7.33301 75 22 105s34.334 55.333 59.001 76s53.5 36.167 86.5 46.5s68.167 15.5 105.5 15.5c35.333 0 67.833 -5.66699 97.5 -17s55.334 -27.333 77.001 -48s38.5 -45.667 50.5 -75s18 -62 18 -98z" />
    <glyph glyph-name="macron" unicode="&#xaf;" horiz-adv-x="274" 
d="M244 713l-12.001 9.00195h-201c-4.66699 0 -8 -1.66699 -10 -5c-5.33301 -10.667 -8 -21.334 -8 -32.001c0 -6 4 -9 12 -9h197c2.66699 0 5 1 7 3c1.33301 1.33301 2.33301 2.66602 3 3.99902s1.33398 2.33301 2.00098 3h-1c2.66699 4 5.16699 8.5 7.5 13.5
s3.5 9.5 3.5 13.5z" />
    <glyph glyph-name="degree" unicode="&#xb0;" horiz-adv-x="324" 
d="M303 594c0 27.333 -5.00195 50.334 -15.002 69.001s-22.167 33.667 -36.5 45s-29.833 19.5 -46.5 24.5s-31.334 7.5 -44.001 7.5c-19.333 0 -37.5 -3.83301 -54.5 -11.5s-31.833 -17.834 -44.5 -30.501s-22.667 -27.5 -30 -44.5s-11 -34.5 -11 -52.5
c0 -19.333 3.66699 -37.333 11 -54s17.333 -31.5 30 -44.5s27.834 -23.167 45.501 -30.5s36.834 -11 57.501 -11c16.667 0 33.334 3.16699 50.001 9.5s31.5 15.333 44.5 27s23.5 25.667 31.5 42s12 34.5 12 54.5zM260.998 608.001c-7.33301 0 -11 -3.00195 -11 -9.00195
c0 -12.667 -2.33301 -24.334 -7 -35.001s-11.167 -20 -19.5 -28s-17.833 -14.333 -28.5 -19s-22 -7 -34 -7s-23.167 2.33301 -33.5 7s-19.5 10.834 -27.5 18.501s-14.333 16.334 -19 26.001s-7 19.834 -7 30.501c0 30 8.5 54 25.5 72s38.167 27 63.5 27z" />
    <glyph glyph-name="twosuperior" unicode="&#xb2;" 
 />
    <glyph glyph-name="threesuperior" unicode="&#xb3;" 
 />
    <glyph glyph-name="acute" unicode="&#xb4;" horiz-adv-x="226" 
d="M207 775c-0.666992 4.66699 -1.83008 10.1641 -3.49707 16.4971s-4 12.333 -7 18s-7.16699 10.334 -12.5 14.001s-12.333 5.5 -21 5.5c-12 0 -26.667 -5.66699 -44 -17s-34 -23 -50 -35c-8.66699 -6.66699 -16.834 -12.667 -24.501 -18s-14.167 -9.66602 -19.5 -12.999
c-5.33301 -2 -6.83301 -5.5 -4.5 -10.5s6.83301 -6.83301 13.5 -5.5c2 0.666992 4.16699 1.16699 6.5 1.5s5.16602 1.5 8.49902 3.5l-1 -1l68.5 22.5c24.333 7.66699 46.166 10.834 65.499 9.50098l12 -1c4 -0.666992 7.33301 0 10 2s3.66699 4.66699 3 8z" />
    <glyph glyph-name="paragraph" unicode="&#xb6;" horiz-adv-x="521" 
d="M498 682l0.000976562 26.002c0 5.33301 -4 8 -12 8h-179c-22 0 -42.833 -0.333008 -62.5 -1s-38.5 -3 -56.5 -7s-35.167 -10.667 -51.5 -20s-32.5 -22.333 -48.5 -39c-21.333 -22 -37.5 -46.833 -48.5 -74.5s-16.5 -57.167 -16.5 -88.5c0 -29.333 5.33301 -57.333 16 -84
s25.667 -50.334 45 -71.001s42.166 -37.334 68.499 -50.001s55.5 -20 87.5 -22v-429h-57c-8 0 -12 -3 -12 -9v-28c0 -6 4 -9 12 -9h302c8 0 12 3 12 9v28c0 6 -4 9 -12 9c-2.66699 0 -5 -0.166992 -7 -0.5s-3.66699 -0.5 -5 -0.5h-43v845h56c8 0 12 2.66699 12 8z
M372.001 675.002l-1 -845h-73v845h74z" />
    <glyph glyph-name="periodcentered" unicode="&#xb7;" horiz-adv-x="143" 
d="M125 380c0 13.333 -5.5 26.166 -16.5 38.499s-24.167 18.5 -39.5 18.5c-16 0 -28.5 -5 -37.5 -15s-13.5 -21.667 -13.5 -35c0 -12.667 4.16699 -25.5 12.5 -38.5s20.166 -19.5 35.499 -19.5c6.66699 0 13.5 1.33301 20.5 4s13.333 6.33398 19 11.001
s10.334 10.167 14.001 16.5s5.5 12.833 5.5 19.5z" />
    <glyph glyph-name="periodcentered" unicode="&#x2219;" horiz-adv-x="143" 
d="M125 380c0 13.333 -5.5 26.166 -16.5 38.499s-24.167 18.5 -39.5 18.5c-16 0 -28.5 -5 -37.5 -15s-13.5 -21.667 -13.5 -35c0 -12.667 4.16699 -25.5 12.5 -38.5s20.166 -19.5 35.499 -19.5c6.66699 0 13.5 1.33301 20.5 4s13.333 6.33398 19 11.001
s10.334 10.167 14.001 16.5s5.5 12.833 5.5 19.5z" />
    <glyph glyph-name="cedilla" unicode="&#xb8;" horiz-adv-x="190" 
d="M171 -27c0 19.333 -6.50195 33.168 -19.502 41.501s-28.167 12.833 -45.5 13.5l38 38c4 3.33301 5 6.66602 3 9.99902s-5.66699 5 -11 5h-4c-1.33301 0 -2.16602 0.166992 -2.49902 0.5s-1.16602 0.5 -2.49902 0.5c-13.333 0 -25.333 -4.33301 -36 -13
s-20.667 -17.667 -30 -27l-14.5 -14c-4.33301 -4 -8.83301 -7.66699 -13.5 -11c-5.33301 -2.66699 -7.16602 -6 -5.49902 -10s5.16699 -6 10.5 -6c15.333 -0.666992 28.666 -5.5 39.999 -14.5s17 -21.833 17 -38.5s-5.66699 -29.834 -17 -39.501s-25 -14.167 -41 -13.5l-6 1
c-6.66699 0 -10.667 -2.16699 -12 -6.5s1 -7.5 7 -9.5c6 -3.33301 12.333 -5.5 19 -6.5s13 -1.5 19 -1.5c12.667 0 25.5 2.83301 38.5 8.5s24.5 13.334 34.5 23.001s18.167 20.5 24.5 32.5s9.5 24.333 9.5 37z" />
    <glyph glyph-name="onesuperior" unicode="&#xb9;" 
 />
    <glyph glyph-name="ordmasculine" unicode="&#xba;" horiz-adv-x="376" 
d="M355 533c0 22 -3.99707 43 -11.9971 63s-19.167 37.833 -33.5 53.5s-31.333 28 -51 37s-40.834 13.5 -63.501 13.5c-24 0 -46.5 -4 -67.5 -12s-39.333 -19 -55 -33s-28.167 -30.833 -37.5 -50.5s-14 -41.167 -14 -64.5c0 -19.333 3.33301 -38.5 10 -57.5
s16.167 -36.167 28.5 -51.5s27.166 -27.666 44.499 -36.999s36.666 -14 57.999 -14c9.33301 0 17.166 0.833008 23.499 2.5s12.5 3.5 18.5 5.5c2.66699 1.33301 5.33398 2.16602 8.00098 2.49902s5.66699 1.16602 9 2.49902h-1c20 4.66699 38.167 10.334 54.5 17.001
s30.5 15.167 42.5 25.5s21.333 23.333 28 39s10 35.167 10 58.5zM278.003 543c0 -10.667 -1.66797 -22.835 -5.00098 -36.502s-8.33301 -26.5 -15 -38.5s-14.5 -22.167 -23.5 -30.5s-19.5 -12.5 -31.5 -12.5c-17.333 0 -32.833 3.83301 -46.5 11.5
s-25.167 17.834 -34.5 30.501s-16.5 27 -21.5 43s-7.5 32 -7.5 48c0 30 8.16699 54.833 24.5 74.5s39.166 29.5 68.499 29.5c14.667 0 27.834 -3.5 39.501 -10.5s21.334 -16.167 29.001 -27.5s13.5 -24.166 17.5 -38.499s6 -28.5 6 -42.5z" />
    <glyph glyph-name="guillemotright" unicode="&#xbb;" horiz-adv-x="397" 
d="M372 390l-0.00195312 11c-22.667 29.333 -46.5 57.333 -71.5 84s-51.167 52.667 -78.5 78c-2.66699 2 -5.66699 2.83301 -9 2.5s-6 -1.83301 -8 -4.5l-7.5 -9.5l-7.5 -9.5l1 1c-2.66699 -3.33301 -5.5 -6.66602 -8.5 -9.99902s-5.5 -6.66602 -7.5 -9.99902
c-3.33301 -4.66699 -2.66602 -8.66699 2.00098 -12l61.5 -58l58.5 -60c-1.33301 -2.66699 -3 -4.83398 -5 -6.50098s-4.66699 -4.83398 -8 -9.50098l-31.5 -37l-34 -41.5c-11 -13.667 -20.333 -26.5 -28 -38.5s-11.834 -21 -12.501 -27
c-1.33301 -4.66699 0.333984 -8 5.00098 -10s9.33398 -1.33301 14.001 2l89.5 79.5c29.667 27 58.167 55.5 85.5 85.5zM219.998 390l0.000976562 11c-21.333 27.333 -43.833 54.333 -67.5 81s-49.5 53.334 -77.5 80.001c-5.33301 4 -10.333 4.33301 -15 1l-17 -17l-18 -18
c-4 -3.33301 -4.33301 -7.33301 -1 -12l31.5 -31.5l32.5 -31.5l29 -29.5l28 -28.5c-3.33301 -5.33301 -8 -11.5 -14 -18.5l-20 -23.5l-28.5 -35c-9.66699 -12 -18.5 -23.5 -26.5 -34.5s-14.667 -20.833 -20 -29.5s-8 -15 -8 -19c0 -2 2 -5 6 -9
c5.33301 -4 10.666 -4 15.999 0c3.33301 3.33301 6.83301 6.5 10.5 9.5s7.16699 6.16699 10.5 9.5v-1l77 71.5c26 24.333 50 49.166 72 74.499z" />
    <glyph glyph-name="questiondown" unicode="&#xbf;" horiz-adv-x="366" 
d="M252 640c0 13.333 -4.66895 26.167 -14.002 38.5s-21.666 18.5 -36.999 18.5s-27.5 -4.83301 -36.5 -14.5s-13.5 -20.834 -13.5 -33.501c0 -6 1.16699 -12.167 3.5 -18.5s5.5 -12.166 9.5 -17.499s9 -9.83301 15 -13.5s12.667 -5.5 20 -5.5
c4.66699 0 10.334 1.33301 17.001 4c24 5.33301 36 19.333 36 42zM344.998 152.001c0 10 -2 19.9961 -6 29.9961s-9 19.667 -15 29l-21 -5c0.666992 -12.667 -2 -25.834 -8 -39.501s-13.833 -26.167 -23.5 -37.5s-20.667 -20.666 -33 -27.999s-24.5 -11 -36.5 -11
c-11.333 0 -22.166 3.5 -32.499 10.5s-19.5 15.833 -27.5 26.5s-14.5 22.334 -19.5 35.001s-7.5 24.667 -7.5 36c0 16 3.66699 32.833 11 50.5s16.5 35.5 27.5 53.5s22.833 35.5 35.5 52.5l35 46.5l30 39c8 10.667 12 19 12 25c0 6.66699 -2.5 14.334 -7.5 23.001
s-11 17.334 -18 26.001s-14.5 16.334 -22.5 23.001s-15 11 -21 13c-5.33301 1.33301 -9.83301 0.333008 -13.5 -3s-3.83398 -6.66602 -0.500977 -9.99902c8 -11.333 12 -23.666 12 -36.999c0 -22.667 -8.5 -46.5 -25.5 -71.5s-35.833 -50.833 -56.5 -77.5l1 1
c-12 -14.667 -23.5 -29.5 -34.5 -44.5s-20.833 -29.833 -29.5 -44.5s-15.667 -29.334 -21 -44.001s-8 -29 -8 -43c0 -18.667 5.33301 -36 16 -52s24.167 -29.833 40.5 -41.5s34 -20.834 53 -27.501s36.833 -10 53.5 -10c14.667 0 31.334 2.16699 50.001 6.5
s36.167 10.833 52.5 19.5s30.166 19.667 41.499 33s17 29.333 17 48z" />
    <glyph glyph-name="Agrave" unicode="&#xc0;" horiz-adv-x="684" 
d="M392 748c-6.66699 3.33301 -14.001 8.00098 -22.001 14.001l-23 18c-14.667 11.333 -30.167 22.166 -46.5 32.499s-32.166 15.5 -47.499 15.5c-22 0 -39 -8.66699 -51 -26c-2.66699 -2.66699 -3.66699 -5.33398 -3 -8.00098s2.66699 -4.66699 6 -6l87.5 -34
c30.333 -11.333 61.5 -18.666 93.5 -21.999zM651.999 79.001c-2.66699 1.33301 -6.6709 2.83203 -12.0039 4.49902s-9.66602 3.16699 -12.999 4.5c-10 3.33301 -19.167 7 -27.5 11s-15.166 10.667 -20.499 20c-25.333 46 -48.333 95 -69 147s-39.667 102.333 -57 151
l-52 141c-18 47.333 -37.667 91.666 -59 132.999c-2.66699 3.33301 -6.66699 5 -12 5c-4.66699 0 -8 -2 -10 -6l-34 -93l-34 -93l-40.5 -112.5c-13.667 -39 -27.5 -76.5 -41.5 -112.5l-7 -18.5l-7 -18.5l-25.5 -64c-8.33301 -21.333 -17.833 -42 -28.5 -62
c-6 -10.667 -12.167 -18.5 -18.5 -23.5s-15.166 -7.16699 -26.499 -6.5l-20 1c-6.66699 0.666992 -10.5 -1.66602 -11.5 -6.99902s1.83301 -8.66602 8.5 -9.99902c13.333 -3.33301 27 -5.5 41 -6.5s28.667 -1.5 44 -1.5c16.667 0 33.167 0.333008 49.5 1
s32.833 1.66699 49.5 3c6.66699 0.666992 10 3.66699 10 9s-3.33301 8 -10 8c-20 2 -30 14.333 -30 37c0 14.667 2.83301 30.667 8.5 48s12.167 33.666 19.5 48.999c6.66699 14 12.667 27.833 18 41.5s9 27.167 11 40.5h159
c2.66699 -7.33301 5.83398 -15.166 9.50098 -23.499l13.5 -30.5l17 -41.5c6 -14.333 11.5 -28.333 16.5 -42s9 -26.5 12 -38.5s4.5 -22 4.5 -30c0 -6 -1 -10 -3 -12c-5.33301 -2.66699 -7 -6 -5 -10s5.66699 -6 11 -6c13.333 0 27.5 -0.166992 42.5 -0.5
s28.833 -0.833008 41.5 -1.5c14 -0.666992 28 -1 42 -1h41zM386.995 346l-129 0.000976562c4.66699 11.333 8 21.166 10 29.499s5 18.5 9 30.5l21 64c6.66699 20 14.667 41.333 24 64c2 -7.33301 4.33301 -14 7 -20l28.5 -84z" />
    <glyph glyph-name="Aacute" unicode="&#xc1;" horiz-adv-x="684" 
d="M474 775c-0.666992 4.66699 -1.83105 10.167 -3.49805 16.5s-4.16699 12.333 -7.5 18s-7.5 10.334 -12.5 14.001s-11.5 5.5 -19.5 5.5c-12 0 -26.833 -5.83301 -44.5 -17.5s-34.834 -23.834 -51.501 -36.501l-22.5 -17c-7 -5.33301 -13.5 -9.66602 -19.5 -12.999
c-6 -2 -7.33301 -5.33301 -4 -10s8 -6.33398 14 -5.00098l72.5 25.5c26.333 9 51.166 12.5 74.499 10.5l11 -1c8.66699 0 13 3.33301 13 10zM652.003 79c-2.66699 1.33301 -6.6709 2.83203 -12.0039 4.49902s-9.66602 3.16699 -12.999 4.5c-10 3.33301 -19.167 7 -27.5 11
s-15.166 10.667 -20.499 20c-25.333 46 -48.333 95 -69 147s-39.667 102.333 -57 151l-52 141c-18 47.333 -37.667 91.666 -59 132.999c-2.66699 3.33301 -6.66699 5 -12 5c-4.66699 0 -8 -2 -10 -6l-34 -93l-34 -93l-40.5 -112.5c-13.667 -39 -27.5 -76.5 -41.5 -112.5
l-7 -18.5l-7 -18.5l-25.5 -64c-8.33301 -21.333 -17.833 -42 -28.5 -62c-6 -10.667 -12.167 -18.5 -18.5 -23.5s-15.166 -7.16699 -26.499 -6.5l-20 1c-6.66699 0.666992 -10.5 -1.66602 -11.5 -6.99902s1.83301 -8.66602 8.5 -9.99902c13.333 -3.33301 27 -5.5 41 -6.5
s28.667 -1.5 44 -1.5c16.667 0 33.167 0.333008 49.5 1s32.833 1.66699 49.5 3c6.66699 0.666992 10 3.66699 10 9s-3.33301 8 -10 8c-20 2 -30 14.333 -30 37c0 14.667 2.83301 30.667 8.5 48s12.167 33.666 19.5 48.999c6.66699 14 12.667 27.833 18 41.5
s9 27.167 11 40.5h159c2.66699 -7.33301 5.83398 -15.166 9.50098 -23.499l13.5 -30.5l17 -41.5c6 -14.333 11.5 -28.333 16.5 -42s9 -26.5 12 -38.5s4.5 -22 4.5 -30c0 -6 -1 -10 -3 -12c-5.33301 -2.66699 -7 -6 -5 -10s5.66699 -6 11 -6
c13.333 0 27.5 -0.166992 42.5 -0.5s28.833 -0.833008 41.5 -1.5c14 -0.666992 28 -1 42 -1h41zM386.999 345.999l-129 0.000976562c4.66699 11.333 8 21.166 10 29.499s5 18.5 9 30.5l21 64c6.66699 20 14.667 41.333 24 64c2 -7.33301 4.33301 -14 7 -20l28.5 -84z" />
    <glyph glyph-name="Acircumflex" unicode="&#xc2;" horiz-adv-x="684" 
d="M455 753l-3.99902 10.998l-53.5 40.5c-17.667 13 -35.5 25.167 -53.5 36.5c-4 2 -8.66699 1.66699 -14 -1c-18 -15.333 -35.833 -31.5 -53.5 -48.5s-34.167 -35.167 -49.5 -54.5c-4 -4 -3.83301 -7.83301 0.5 -11.5s9.16602 -4.16699 14.499 -1.5
c16 10.667 32.667 20.834 50 30.501s35 14.5 53 14.5c14 0 26 -4.5 36 -13.5s18.333 -20.167 25 -33.5c2 -3.33301 4.83301 -5.16602 8.5 -5.49902s7.16699 0.5 10.5 2.5l16.5 17c5.66699 6 10.167 11.667 13.5 17zM652.001 78.998
c-2.66699 1.33301 -6.6709 2.83203 -12.0039 4.49902s-9.66602 3.16699 -12.999 4.5c-10 3.33301 -19.167 7 -27.5 11s-15.166 10.667 -20.499 20c-25.333 46 -48.333 95 -69 147s-39.667 102.333 -57 151l-52 141c-18 47.333 -37.667 91.666 -59 132.999
c-2.66699 3.33301 -6.66699 5 -12 5c-4.66699 0 -8 -2 -10 -6l-34 -93l-34 -93l-40.5 -112.5c-13.667 -39 -27.5 -76.5 -41.5 -112.5l-7 -18.5l-7 -18.5l-25.5 -64c-8.33301 -21.333 -17.833 -42 -28.5 -62c-6 -10.667 -12.167 -18.5 -18.5 -23.5
s-15.166 -7.16699 -26.499 -6.5l-20 1c-6.66699 0.666992 -10.5 -1.66602 -11.5 -6.99902s1.83301 -8.66602 8.5 -9.99902c13.333 -3.33301 27 -5.5 41 -6.5s28.667 -1.5 44 -1.5c16.667 0 33.167 0.333008 49.5 1s32.833 1.66699 49.5 3c6.66699 0.666992 10 3.66699 10 9
s-3.33301 8 -10 8c-20 2 -30 14.333 -30 37c0 14.667 2.83301 30.667 8.5 48s12.167 33.666 19.5 48.999c6.66699 14 12.667 27.833 18 41.5s9 27.167 11 40.5h159c2.66699 -7.33301 5.83398 -15.166 9.50098 -23.499l13.5 -30.5l17 -41.5c6 -14.333 11.5 -28.333 16.5 -42
s9 -26.5 12 -38.5s4.5 -22 4.5 -30c0 -6 -1 -10 -3 -12c-5.33301 -2.66699 -7 -6 -5 -10s5.66699 -6 11 -6c13.333 0 27.5 -0.166992 42.5 -0.5s28.833 -0.833008 41.5 -1.5c14 -0.666992 28 -1 42 -1h41zM386.997 345.997l-129 0.000976562
c4.66699 11.333 8 21.166 10 29.499s5 18.5 9 30.5l21 64c6.66699 20 14.667 41.333 24 64c2 -7.33301 4.33301 -14 7 -20l28.5 -84z" />
    <glyph glyph-name="Atilde" unicode="&#xc3;" horiz-adv-x="684" 
d="M474 803l-18.999 9c-7.33301 -8.66699 -15 -15.667 -23 -21s-17 -8 -27 -8c-9.33301 0 -19 1.83301 -29 5.5s-19.667 7.83398 -29 12.501c-10.667 5.33301 -21.334 9.83301 -32.001 13.5s-21.667 5.5 -33 5.5s-21.166 -2.33301 -29.499 -7s-15.5 -10.667 -21.5 -18
s-11.167 -15.5 -15.5 -24.5s-7.83301 -17.833 -10.5 -26.5c-1.33301 -4.66699 0.833984 -8.16699 6.50098 -10.5s10.5 -1.5 14.5 2.5c6.66699 9.33301 14.167 17.166 22.5 23.499s17.833 9.5 28.5 9.5c9.33301 0 19.166 -2 29.499 -6s20.166 -8.66699 29.499 -14
c10.667 -5.33301 21.167 -9.83301 31.5 -13.5s21.166 -5.5 32.499 -5.5c10.667 0 20.167 2.33301 28.5 7s15.5 10.5 21.5 17.5s10.833 14.833 14.5 23.5s6.83398 17 9.50098 25zM652.001 79c-2.66699 1.33301 -6.6709 2.83203 -12.0039 4.49902
s-9.66602 3.16699 -12.999 4.5c-10 3.33301 -19.167 7 -27.5 11s-15.166 10.667 -20.499 20c-25.333 46 -48.333 95 -69 147s-39.667 102.333 -57 151l-52 141c-18 47.333 -37.667 91.666 -59 132.999c-2.66699 3.33301 -6.66699 5 -12 5c-4.66699 0 -8 -2 -10 -6l-34 -93
l-34 -93l-40.5 -112.5c-13.667 -39 -27.5 -76.5 -41.5 -112.5l-7 -18.5l-7 -18.5l-25.5 -64c-8.33301 -21.333 -17.833 -42 -28.5 -62c-6 -10.667 -12.167 -18.5 -18.5 -23.5s-15.166 -7.16699 -26.499 -6.5l-20 1c-6.66699 0.666992 -10.5 -1.66602 -11.5 -6.99902
s1.83301 -8.66602 8.5 -9.99902c13.333 -3.33301 27 -5.5 41 -6.5s28.667 -1.5 44 -1.5c16.667 0 33.167 0.333008 49.5 1s32.833 1.66699 49.5 3c6.66699 0.666992 10 3.66699 10 9s-3.33301 8 -10 8c-20 2 -30 14.333 -30 37c0 14.667 2.83301 30.667 8.5 48
s12.167 33.666 19.5 48.999c6.66699 14 12.667 27.833 18 41.5s9 27.167 11 40.5h159c2.66699 -7.33301 5.83398 -15.166 9.50098 -23.499l13.5 -30.5l17 -41.5c6 -14.333 11.5 -28.333 16.5 -42s9 -26.5 12 -38.5s4.5 -22 4.5 -30c0 -6 -1 -10 -3 -12
c-5.33301 -2.66699 -7 -6 -5 -10s5.66699 -6 11 -6c13.333 0 27.5 -0.166992 42.5 -0.5s28.833 -0.833008 41.5 -1.5c14 -0.666992 28 -1 42 -1h41zM386.997 345.999l-129 0.000976562c4.66699 11.333 8 21.166 10 29.499s5 18.5 9 30.5l21 64
c6.66699 20 14.667 41.333 24 64c2 -7.33301 4.33301 -14 7 -20l28.5 -84z" />
    <glyph glyph-name="Adieresis" unicode="&#xc4;" horiz-adv-x="766" 
d="M496 766c0 11.333 -4.49902 22.666 -13.499 33.999s-20.167 17 -33.5 17c-10.667 0 -20.5 -4.16699 -29.5 -12.5s-13.5 -17.166 -13.5 -26.499c0 -14 6.16699 -25.833 18.5 -35.5s25.166 -14.5 38.499 -14.5l3 1c20 6 30 18.333 30 37zM333.001 766
c0 11.333 -4.49902 22.667 -13.499 34s-20.167 17 -33.5 17c-10 0 -19.667 -4.16699 -29 -12.5s-14 -17.166 -14 -26.499c0 -14 6.16699 -25.833 18.5 -35.5s25.166 -14.5 38.499 -14.5l4 1c8.66699 3.33301 15.667 8.16602 21 14.499s8 13.833 8 22.5zM748.002 1.00098
l0.00488281 17.999c-19.333 1.33301 -37.5 6 -54.5 14s-30.167 21.667 -39.5 41l-42.5 95.5l-42.5 103.5l-40.5 105l-37.5 100c-8.66699 23.333 -17.834 46 -27.501 68s-18.5 43.667 -26.5 65c-1.33301 2.66699 -2.5 6 -3.5 10s-2.83301 8 -5.5 12
c-4 10 -9.16699 22 -15.5 36l-18.5 40l-15.5 32.5l-6.5 13.5l-7 -0.5c-4.66699 -0.333008 -7.66699 -1.83301 -9 -4.5l-73 -193l-71 -193l-47.5 -135.5c-15.667 -46.333 -32.167 -91.5 -49.5 -135.5c-3.33301 -8 -7.83301 -16.5 -13.5 -25.5s-12.334 -17.333 -20.001 -25
s-15.667 -14 -24 -19s-16.833 -7.5 -25.5 -7.5c-0.666992 0 -2.5 0.166992 -5.5 0.5s-5.16699 -0.5 -6.5 -2.5c-2.66699 -2.66699 -3.33398 -5.33398 -2.00098 -8.00098c0.666992 -1.33301 1.66699 -2.66602 3 -3.99902l2 -2l208 -1c6.66699 0 10.167 2.5 10.5 7.5
s-2.83398 8.16699 -9.50098 9.5c-10 1.33301 -20.167 3.83301 -30.5 7.5s-15.5 11.167 -15.5 22.5c0 8.66699 2.83301 23.834 8.5 45.501s12.5 44.667 20.5 69l24.5 71c8.33301 23 15.166 40.5 20.499 52.5h197l47.5 -126l48.5 -126l-35 -18c-4 -3.33301 -5 -6.33301 -3 -9
s5.66699 -4.33398 11 -5.00098c14 -1.33301 31.333 -1.66602 52 -0.999023s38.334 1 53.001 1c20 0 39.667 -0.166992 59 -0.5s38.666 0.166992 57.999 1.5zM437.007 337h-161l40.5 120.5l38.5 120.5z" />
    <glyph glyph-name="Aring" unicode="&#xc5;" horiz-adv-x="762" 
d="M748 1l0.00390625 18c-19.333 1.33301 -37.5 6 -54.5 14s-30.167 21.667 -39.5 41l-42.5 95.5l-42.5 103.5l-40.5 105l-37.5 100c-8.66699 23.333 -17.834 46 -27.501 68s-18.5 43.667 -26.5 65c-1.33301 2.66699 -2.5 6 -3.5 10s-2.83301 8 -5.5 12l-24.5 64.5
c-9 23 -18.833 41.167 -29.5 54.5l6 3c9.33301 0.666992 18.833 2.5 28.5 5.5s18.334 7.16699 26.001 12.5s14 12.166 19 20.499s7.5 18.166 7.5 29.499c0 19.333 -7.33301 35 -22 47s-31.667 18 -51 18c-12 0 -24.167 -2.16699 -36.5 -6.5s-23.5 -10.333 -33.5 -18
s-18.167 -17 -24.5 -28s-9.5 -23.167 -9.5 -36.5c0 -8 2.16699 -15.167 6.5 -21.5s10 -11.666 17 -15.999s14.833 -7.5 23.5 -9.5s17 -3 25 -3l-73 -192.5l-71 -192.5l-47.5 -135.5c-15.667 -46.333 -32.167 -91.5 -49.5 -135.5c-3.33301 -8 -7.83301 -16.5 -13.5 -25.5
s-12.334 -17.333 -20.001 -25s-15.667 -14 -24 -19s-16.833 -7.5 -25.5 -7.5c-0.666992 0 -2.5 0.166992 -5.5 0.5s-5.16699 -0.5 -6.5 -2.5c-2.66699 -2.66699 -3.33398 -5.33398 -2.00098 -8.00098c0.666992 -1.33301 1.66699 -2.66602 3 -3.99902l2 -2l208 -1
c6.66699 0 10.167 2.5 10.5 7.5s-2.83398 8.16699 -9.50098 9.5c-10 1.33301 -20.167 3.83301 -30.5 7.5s-15.5 11.167 -15.5 22.5c0 8.66699 2.83301 23.834 8.5 45.501s12.5 44.667 20.5 69l24.5 71c8.33301 23 15.166 40.5 20.499 52.5h197l47.5 -126l48.5 -126l-35 -18
c-4 -3.33301 -5 -6.33301 -3 -9s5.66699 -4.33398 11 -5.00098c14 -1.33301 31.333 -1.66602 52 -0.999023s38.334 1 53.001 1c20 -0 39.667 -0.166992 59 -0.5s38.666 0.166992 57.999 1.5zM400.004 814c0 -5.33301 -2.16895 -11.334 -6.50195 -18.001
s-9.16602 -10 -14.499 -10c-9.33301 0 -18 3.33301 -26 10s-12 15 -12 25c0 8.66699 3 15.667 9 21s12.667 8 20 8c8.66699 0 15.834 -3.66699 21.501 -11s8.5 -15.666 8.5 -24.999zM437.002 336.999h-161l40.5 120.5l38.5 120.5z" />
    <glyph glyph-name="AE" unicode="&#xc6;" horiz-adv-x="814" 
d="M777 172l-23.0049 4.00684c-6.66699 -24 -18.334 -42.333 -35.001 -55s-36.667 -19 -60 -19c-16.667 0 -34.5 3.66699 -53.5 11s-33.5 18.333 -43.5 33v191c8 0 15.833 0.166992 23.5 0.5s15.834 0.833008 24.501 1.5c5.33301 0.666992 10.333 1 15 1h16
c12.667 0 22.834 -1.33301 30.501 -4s13.834 -5.83398 18.501 -9.50098s8 -7.83398 10 -12.501s3.66699 -9 5 -13l-1 1c1.33301 -4 3 -7.66699 5 -11s4.66699 -6.33301 8 -9c4 -2 8 -2.33301 12 -1s6 4 6 8c0 15.333 1 30.5 3 45.5l6 45.5c0.666992 3.33301 1 6 1 8
c0 2.66699 0.333008 5.33398 1 8.00098c1.33301 4 0 7 -4 9s-8.33301 2 -13 0c-5.33301 -3.33301 -13.333 -7.5 -24 -12.5s-18.334 -7.5 -23.001 -7.5h-120v251c7.33301 0 14.333 0.166992 21 0.5s13.667 0.833008 21 1.5c5.33301 0.666992 10.5 1.16699 15.5 1.5
s9.83301 0.5 14.5 0.5c10.667 0 20.834 -0.833008 30.501 -2.5s18.167 -4.83398 25.5 -9.50098s13 -10.834 17 -18.501s6 -17.834 6 -30.501c0 -3.33301 1.66699 -6 5 -8s7 -2.33301 11 -1c6 2 10.833 8.16699 14.5 18.5s6.5 21.833 8.5 34.5s3.33301 24.667 4 36s1 19 1 23
c0 3.33301 -1.66699 6 -5 8s-7 2.33301 -11 1c-12 -4 -27.167 -6.66699 -45.5 -8s-37.5 -2 -57.5 -2c-14.667 0 -29.334 0.166992 -44.001 0.5s-28.667 0.833008 -42 1.5h1c-10.667 0.666992 -21 1 -31 1h-26c-6 0 -12.5 -3 -19.5 -9s-13.5 -12.833 -19.5 -20.5
s-11.5 -15.334 -16.5 -23.001s-8.5 -13.167 -10.5 -16.5l-29 -49l-32 -55l-74 -125.5c-26 -43.667 -53.167 -85.334 -81.5 -125.001s-57.666 -75.334 -87.999 -107.001s-61.166 -55.167 -92.499 -70.5c-5.33301 -2.66699 -7.33301 -6.16699 -6 -10.5s5 -6.5 11 -6.5h217
c6 0 9.5 2.66699 10.5 8s-1.5 8.33301 -7.5 9c-11.333 2.66699 -22 7.16699 -32 13.5s-15 15.833 -15 28.5c0 16 6.66699 34.333 20 55s28 42 44 64l34.5 49.5c11 16.333 19.5 31.5 25.5 45.5h136v-184c0 -6.66699 -0.333008 -14 -1 -22s-2.16699 -15.5 -4.5 -22.5
s-5.5 -12.833 -9.5 -17.5s-9.33301 -7 -16 -7h-9c-6 0 -9 -3 -9 -9c0 -5.33301 3 -8 9 -8c20.667 -0.666992 41 -1.16699 61 -1.5s40.333 -1.16602 61 -2.49902c28.667 -1.33301 56.834 -2.5 84.501 -3.5s55.834 -1.5 84.501 -1.5c12 0 21.5 2.16699 28.5 6.5
s12 10.166 15 17.499s5 15.5 6 24.5s1.5 18.167 1.5 27.5c0 14 1.33301 26 4 36zM468.995 386.007l-111 0.000976562c4.66699 7.33301 8.16699 12.666 10.5 15.999s5.83301 9 10.5 17v-1l44.5 75l45.5 73v-180z" />
    <glyph glyph-name="Ccedilla" unicode="&#xc7;" horiz-adv-x="618" 
d="M606 180l-24.0039 5.99414c-18 -42 -42.833 -74.833 -74.5 -98.5s-67.834 -35.5 -108.501 -35.5c-42 0 -80.5 9.83301 -115.5 29.5s-65 45.667 -90 78s-44.333 69.5 -58 111.5s-20.5 85.333 -20.5 130c0 44 6 84 18 120s29.167 66.667 51.5 92s49.5 45 81.5 59
s67.667 21 107 21c48 0 89.167 -14 123.5 -42s55.833 -69.667 64.5 -125c1.33301 -4.66699 4.83301 -7.33398 10.5 -8.00098s9.83398 1.33301 12.501 6c9.33301 22.667 14.833 45.334 16.5 68.001s2.5 45.334 2.5 68.001v43c0 4.66699 -4 7.66699 -12 9
c-14.667 1.33301 -29.167 3 -43.5 5s-29.166 4.33301 -44.499 7c-19.333 3.33301 -40.166 6.5 -62.499 9.5s-43.5 4.5 -63.5 4.5c-18 0 -37.333 -1.16699 -58 -3.5s-41.667 -6.5 -63 -12.5s-42.5 -14.167 -63.5 -24.5s-41.167 -23.5 -60.5 -39.5
c-24.667 -21.333 -44.667 -44.333 -60 -69s-27.166 -50.5 -35.499 -77.5s-14 -54.667 -17 -83s-4.5 -56.833 -4.5 -85.5c0 -47.333 6.83301 -90.333 20.5 -129s32.667 -72.5 57 -101.5s53.333 -52.833 87 -71.5s70.834 -31.667 111.501 -39
c-19.333 -15.333 -36 -31.666 -50 -48.999c-4 -3.33301 -4.83301 -6.83301 -2.5 -10.5s6.16602 -5.83398 11.499 -6.50098c16 0 29.833 -5 41.5 -15s17.5 -24.667 17.5 -44s-5.83301 -34.666 -17.5 -45.999s-25.5 -16.333 -41.5 -15l-7 1c-6.66699 0 -10.667 -2.5 -12 -7.5
s1 -8.83301 7 -11.5c6 -3.33301 12.333 -5.66602 19 -6.99902s13.334 -2 20.001 -2c13.333 0 26.5 3.33301 39.5 10s24.833 15.5 35.5 26.5s19.167 23.333 25.5 37s9.5 27.834 9.5 42.501c0 22 -6.33301 38 -19 48s-27.667 15.333 -45 16l25 30
c12 -3.33301 24.333 -5.16602 37 -5.49902s24.334 -0.5 35.001 -0.5c9.33301 0 23.5 0.5 42.5 1.5s38.167 3.83301 57.5 8.5s36.166 12 50.499 22s21.5 24 21.5 42c0 5.33301 -0.166992 10.333 -0.5 15s-0.5 9.66699 -0.5 15c-0.666992 13.333 0.833008 26.833 4.5 40.5
s7.16699 27.834 10.5 42.501z" />
    <glyph glyph-name="Egrave" unicode="&#xc8;" horiz-adv-x="424" 
d="M272 748c-6 3.33301 -12.999 8 -20.999 14l-23 18l-46 32.5c-15.333 10.333 -31 15.5 -47 15.5c-22.667 0 -40.334 -8.66699 -53.001 -26c-2.66699 -2.66699 -3.66699 -5.33398 -3 -8.00098s3 -4.66699 7 -6l88.5 -34c29.667 -11.333 60.5 -18.666 92.5 -21.999z
M362.001 438l4 2l-8 -2h4zM400.001 172l-23.0039 4.00293c-5.33301 -24.667 -16.666 -43.334 -33.999 -56.001s-37.666 -19 -60.999 -19c-18 0 -36.667 4.16699 -56 12.5s-34 20.166 -44 35.499v222h12h30c12.667 0 25.167 -0.333008 37.5 -1s23.5 -2 33.5 -4
s16.667 -4.66699 20 -8c2.66699 -2 4.83398 -5.33301 6.50098 -10s3.16699 -9.66699 4.5 -15l-1 1c2 -9.33301 6.66699 -17.666 14 -24.999c3.33301 -3.33301 7.16602 -4.33301 11.499 -3s6.83301 4 7.5 8c1.33301 9.33301 2.66602 19.166 3.99902 29.499
s2.66602 20.166 3.99902 29.499s2.5 18.666 3.5 27.999s2.16699 18.666 3.5 27.999c1.33301 6 -2.33398 9 -11.001 9l-16.5 -5.5c-7 -2.33301 -12.167 -4.16602 -15.5 -5.49902c-6 -2.66699 -11.5 -5 -16.5 -7s-8.83301 -3 -11.5 -3h-120v219h18
c5.33301 0 10.666 0.166992 15.999 0.5s10.333 0.5 15 0.5c5.33301 0 10.333 0.166992 15 0.5s9.66699 0.5 15 0.5c22.667 0 41.334 -3.83301 56.001 -11.5s22.667 -23.834 24 -48.501c0.666992 -4 3 -6.66699 7 -8s8 -0.333008 12 3c8 8 13.333 20.833 16 38.5
s4.66699 34.167 6 49.5c0.666992 3.33301 1.16699 7 1.5 11s0.5 6.66699 0.5 8c1.33301 4 0.333008 7.16699 -3 9.5s-7.66602 2.5 -12.999 0.5c-9.33301 -3.33301 -27.333 -5.66602 -54 -6.99902s-56.667 -2 -90 -2c-21.333 0 -44.166 0.166992 -68.499 0.5
s-45.5 0.833008 -63.5 1.5c-12.667 0.666992 -24 1 -34 1h-24c-6 0 -10 -2 -12 -6s-0.333008 -7.33301 5 -10c6 -4 11.833 -6.83301 17.5 -8.5s11.5 -3.16699 17.5 -4.5c7.33301 -2 13.833 -5 19.5 -9s8.5 -12.667 8.5 -26v-465c0 -18.667 -2.66699 -35.167 -8 -49.5
s-18 -21.833 -38 -22.5c-6 0 -9.16699 -2.66699 -9.5 -8s2.5 -8.33301 8.5 -9c22 -2 44.5 -3.33301 67.5 -4s46.833 -1 71.5 -1h44c14.667 0 29 0.333008 43 1c11.333 0 21.833 0.166992 31.5 0.5s19.834 0.5 30.501 0.5h29c10 0 19.667 -0.333008 29 -1l3 18
c-1.33301 0 -2.16602 0.166992 -2.49902 0.5s-1.16602 0.5 -2.49902 0.5c3.33301 8.66699 5.5 17.334 6.5 26.001s1.83301 17.334 2.5 26.001c0 6 0.333008 12.667 1 20s1.66699 13.666 3 18.999z" />
    <glyph glyph-name="Eacute" unicode="&#xc9;" horiz-adv-x="462" 
d="M380 829l-4.50098 19.498c-1.66699 7 -4.33398 13.833 -8.00098 20.5s-8.5 12.167 -14.5 16.5s-14 6.5 -24 6.5c-7.33301 0 -15.333 -2 -24 -6s-18 -9 -28 -15s-20.167 -12.667 -30.5 -20s-20.166 -14.666 -29.499 -21.999l-26 -20.5
c-8 -6.33301 -15.667 -11.166 -23 -14.499c-6.66699 -2.66699 -8.16699 -6.66699 -4.5 -12s9.16699 -7.33301 16.5 -6l40.5 15c14.333 5.33301 28.833 10.333 43.5 15s29.334 8.16699 44.001 10.5s29 2.83301 43 1.5l14 -1c4.66699 -0.666992 8.5 0.333008 11.5 3
s4.16699 5.66699 3.5 9zM399.999 446.998c3.33301 1.33301 4.66699 2 4 2l-9 -2h5zM444 126.998l-26.999 5.00293c-6.66699 -28.667 -20 -50.5 -40 -65.5s-43.333 -22.5 -70 -22.5c-10.667 0 -21.667 1.16699 -33 3.5s-22.166 6 -32.499 11s-20 10.833 -29 17.5
s-16.5 14.667 -22.5 24v269h14h35c14.667 0 29.167 -0.5 43.5 -1.5s27.333 -2.66699 39 -5s19.5 -5.5 23.5 -9.5c3.33301 -2 5.83301 -5.83301 7.5 -11.5s3.5 -11.5 5.5 -17.5l-1 2c1.33301 -5.33301 3 -10.5 5 -15.5s5.66699 -9.83301 11 -14.5
c4 -3.33301 8.5 -4.33301 13.5 -3s7.83301 4.33301 8.5 9l4.5 34.5l4.5 34.5c2 11.333 3.66699 22.166 5 32.499l4 32.5c0.666992 3.33301 -0.333008 6 -3 8s-6 3 -10 3l-19.5 -7c-7.66699 -2.66699 -13.834 -4.66699 -18.501 -6
c-6.66699 -3.33301 -12.834 -6.16602 -18.501 -8.49902s-10.167 -3.5 -13.5 -3.5h-140v255h21c6 0 12.167 0.166992 18.5 0.5s12.166 0.5 17.499 0.5c6 0.666992 12 1 18 1h17c26.667 0 48.334 -4.33301 65.001 -13s26 -27.334 28 -56.001
c0.666992 -5.33301 3.33398 -8.5 8.00098 -9.5s9.33398 0.166992 14.001 3.5c4.66699 4.66699 8.5 10.834 11.5 18.501s5.33301 16.334 7 26.001s3 19.5 4 29.5s2.16699 19.333 3.5 28c1.33301 3.33301 2 7.33301 2 12v10c1.33301 5.33301 0 9.16602 -4 11.499
s-8.66699 2.5 -14 0.5c-10.667 -4 -31.667 -6.83301 -63 -8.5s-66.333 -2.5 -105 -2.5c-24.667 0 -51.167 0.166992 -79.5 0.5s-53.166 1.16602 -74.499 2.49902c-14.667 0.666992 -27.667 1 -39 1h-28c-7.33301 0 -12 -2.33301 -14 -7s0 -8.66699 6 -12
c7.33301 -4.66699 14.166 -7.83398 20.499 -9.50098l20.5 -5.5c8.66699 -2 16.167 -5.33301 22.5 -10s9.5 -15 9.5 -31v-551c0 -10.667 -0.666992 -21 -2 -31s-3.83301 -18.833 -7.5 -26.5s-9 -14 -16 -19s-16.167 -7.5 -27.5 -7.5c-7.33301 0 -11.333 -3 -12 -9
s2.66602 -9.33301 9.99902 -10c26 -2.66699 52.333 -4.33398 79 -5.00098s54.334 -1 83.001 -1h51c17.333 0 34 0.333008 50 1c13.333 0 25.666 0.166992 36.999 0.5s23.333 0.5 36 0.5h33c11.333 0 22.666 -0.333008 33.999 -1c2 12 3.66699 25.667 5 41
s2.33301 29.333 3 42c0.666992 7.33301 1.16699 15 1.5 23s1.5 15.333 3.5 22z" />
    <glyph glyph-name="Ecircumflex" unicode="&#xca;" horiz-adv-x="424" 
d="M317 753l-2.99902 10.9971l-53.5 40.5c-17.667 13 -35.5 25.167 -53.5 36.5c-4 2 -8.66699 1.66699 -14 -1c-18 -15.333 -35.833 -31.5 -53.5 -48.5s-34.167 -35.167 -49.5 -54.5c-4 -4 -3.66699 -7.83301 1 -11.5s9.66699 -4.16699 15 -1.5
c15.333 10.667 31.666 20.834 48.999 30.501s35 14.5 53 14.5c14 0 26 -4.5 36 -13.5s18.333 -20.167 25 -33.5c2 -3.33301 4.83301 -5.16602 8.5 -5.49902s7.16699 0.833984 10.5 3.50098l4 4v-1c10 8.66699 18.333 18.667 25 30zM362.001 437.997l4 2l-8 -2h4z
M400.001 171.997l-23.0039 4.00293c-5.33301 -24.667 -16.666 -43.334 -33.999 -56.001s-37.666 -19 -60.999 -19c-18 0 -36.667 4.16699 -56 12.5s-34 20.166 -44 35.499v222h12h30c12.667 0 25.167 -0.333008 37.5 -1s23.5 -2 33.5 -4s16.667 -4.66699 20 -8
c2.66699 -2 4.83398 -5.33301 6.50098 -10s3.16699 -9.66699 4.5 -15l-1 1c2 -9.33301 6.66699 -17.666 14 -24.999c3.33301 -3.33301 7.16602 -4.33301 11.499 -3s6.83301 4 7.5 8c1.33301 9.33301 2.66602 19.166 3.99902 29.499s2.66602 20.166 3.99902 29.499
s2.5 18.666 3.5 27.999s2.16699 18.666 3.5 27.999c1.33301 6 -2.33398 9 -11.001 9l-16.5 -5.5c-7 -2.33301 -12.167 -4.16602 -15.5 -5.49902c-6 -2.66699 -11.5 -5 -16.5 -7s-8.83301 -3 -11.5 -3h-120v219h18c5.33301 0 10.666 0.166992 15.999 0.5s10.333 0.5 15 0.5
c5.33301 0 10.333 0.166992 15 0.5s9.66699 0.5 15 0.5c22.667 0 41.334 -3.83301 56.001 -11.5s22.667 -23.834 24 -48.501c0.666992 -4 3 -6.66699 7 -8s8 -0.333008 12 3c8 8 13.333 20.833 16 38.5s4.66699 34.167 6 49.5c0.666992 3.33301 1.16699 7 1.5 11
s0.5 6.66699 0.5 8c1.33301 4 0.333008 7.16699 -3 9.5s-7.66602 2.5 -12.999 0.5c-9.33301 -3.33301 -27.333 -5.66602 -54 -6.99902s-56.667 -2 -90 -2c-21.333 0 -44.166 0.166992 -68.499 0.5s-45.5 0.833008 -63.5 1.5c-12.667 0.666992 -24 1 -34 1h-24
c-6 0 -10 -2 -12 -6s-0.333008 -7.33301 5 -10c6 -4 11.833 -6.83301 17.5 -8.5s11.5 -3.16699 17.5 -4.5c7.33301 -2 13.833 -5 19.5 -9s8.5 -12.667 8.5 -26v-465c0 -18.667 -2.66699 -35.167 -8 -49.5s-18 -21.833 -38 -22.5c-6 0 -9.16699 -2.66699 -9.5 -8
s2.5 -8.33301 8.5 -9c22 -2 44.5 -3.33301 67.5 -4s46.833 -1 71.5 -1h44c14.667 0 29 0.333008 43 1c11.333 0 21.833 0.166992 31.5 0.5s19.834 0.5 30.501 0.5h29c10 0 19.667 -0.333008 29 -1l3 18c-1.33301 0 -2.16602 0.166992 -2.49902 0.5
s-1.16602 0.5 -2.49902 0.5c3.33301 8.66699 5.5 17.334 6.5 26.001s1.83301 17.334 2.5 26.001c0 6 0.333008 12.667 1 20s1.66699 13.666 3 18.999z" />
    <glyph glyph-name="Edieresis" unicode="&#xcb;" horiz-adv-x="424" 
d="M344 766c0 11.333 -4.66797 22.667 -14.001 34s-20.666 17 -33.999 17c-10.667 0 -20.5 -4.16699 -29.5 -12.5s-13.5 -17.166 -13.5 -26.499c0 -14 6.16699 -25.833 18.5 -35.5s24.833 -14.5 37.5 -14.5l4 1c8.66699 3.33301 16 8.16602 22 14.499s9 13.833 9 22.5z
M180.999 766.001c0 11.333 -4.49902 22.667 -13.499 34s-20.167 17 -33.5 17c-10.667 0 -20.5 -4.16699 -29.5 -12.5s-13.5 -17.166 -13.5 -26.499c0 -14 6.16699 -25.833 18.5 -35.5s25.166 -14.5 38.499 -14.5l4 1c8.66699 3.33301 15.667 8.16602 21 14.499
s8 13.833 8 22.5zM362 438.002l4 2l-8 -2h4zM400 172.002l-23.0039 4.00293c-5.33301 -24.667 -16.666 -43.334 -33.999 -56.001s-37.666 -19 -60.999 -19c-18 0 -36.667 4.16699 -56 12.5s-34 20.166 -44 35.499v222h12h30c12.667 0 25.167 -0.333008 37.5 -1
s23.5 -2 33.5 -4s16.667 -4.66699 20 -8c2.66699 -2 4.83398 -5.33301 6.50098 -10s3.16699 -9.66699 4.5 -15l-1 1c2 -9.33301 6.66699 -17.666 14 -24.999c3.33301 -3.33301 7.16602 -4.33301 11.499 -3s6.83301 4 7.5 8c1.33301 9.33301 2.66602 19.166 3.99902 29.499
s2.66602 20.166 3.99902 29.499s2.5 18.666 3.5 27.999s2.16699 18.666 3.5 27.999c1.33301 6 -2.33398 9 -11.001 9l-16.5 -5.5c-7 -2.33301 -12.167 -4.16602 -15.5 -5.49902c-6 -2.66699 -11.5 -5 -16.5 -7s-8.83301 -3 -11.5 -3h-120v219h18
c5.33301 0 10.666 0.166992 15.999 0.5s10.333 0.5 15 0.5c5.33301 0 10.333 0.166992 15 0.5s9.66699 0.5 15 0.5c22.667 0 41.334 -3.83301 56.001 -11.5s22.667 -23.834 24 -48.501c0.666992 -4 3 -6.66699 7 -8s8 -0.333008 12 3c8 8 13.333 20.833 16 38.5
s4.66699 34.167 6 49.5c0.666992 3.33301 1.16699 7 1.5 11s0.5 6.66699 0.5 8c1.33301 4 0.333008 7.16699 -3 9.5s-7.66602 2.5 -12.999 0.5c-9.33301 -3.33301 -27.333 -5.66602 -54 -6.99902s-56.667 -2 -90 -2c-21.333 0 -44.166 0.166992 -68.499 0.5
s-45.5 0.833008 -63.5 1.5c-12.667 0.666992 -24 1 -34 1h-24c-6 0 -10 -2 -12 -6s-0.333008 -7.33301 5 -10c6 -4 11.833 -6.83301 17.5 -8.5s11.5 -3.16699 17.5 -4.5c7.33301 -2 13.833 -5 19.5 -9s8.5 -12.667 8.5 -26v-465c0 -18.667 -2.66699 -35.167 -8 -49.5
s-18 -21.833 -38 -22.5c-6 0 -9.16699 -2.66699 -9.5 -8s2.5 -8.33301 8.5 -9c22 -2 44.5 -3.33301 67.5 -4s46.833 -1 71.5 -1h44c14.667 0 29 0.333008 43 1c11.333 0 21.833 0.166992 31.5 0.5s19.834 0.5 30.501 0.5h29c10 0 19.667 -0.333008 29 -1l3 18
c-1.33301 0 -2.16602 0.166992 -2.49902 0.5s-1.16602 0.5 -2.49902 0.5c3.33301 8.66699 5.5 17.334 6.5 26.001s1.83301 17.334 2.5 26.001c0 6 0.333008 12.667 1 20s1.66699 13.666 3 18.999z" />
    <glyph glyph-name="Igrave" unicode="&#xcc;" horiz-adv-x="302" 
d="M213 748c-6 3.33301 -13 8.00098 -21 14.001l-24 18c-14.667 11.333 -30 22.166 -46 32.499s-31.667 15.5 -47 15.5c-22 0 -39.333 -8.66699 -52 -26c-2.66699 -2.66699 -3.66699 -5.33398 -3 -8.00098s3 -4.66699 7 -6l87 -34c30 -11.333 61 -18.666 93 -21.999z
M278 76.001c-5.33301 5.33301 -11 8.33105 -17 8.99805s-12.333 1 -19 1c-8.66699 0 -15.334 1.66699 -20.001 5c-2 0.666992 -3.83301 4 -5.5 10s-3.33398 12.833 -5.00098 20.5s-3 14.834 -4 21.501s-1.5 11.667 -1.5 15v459c0 17.333 4.5 28.5 13.5 33.5
s20.5 8.83301 34.5 11.5c6.66699 1.33301 9.83398 4.33301 9.50098 9s-3.83301 7.33398 -10.5 8.00098c-31.333 2 -62.666 3 -93.999 3c-15.333 0 -31.333 -0.166992 -48 -0.5s-32.667 -1.16602 -48 -2.49902c-6 -0.666992 -9.16699 -3.5 -9.5 -8.5s2.5 -7.83301 8.5 -8.5
c14 -2 26.167 -6.33301 36.5 -13s15.5 -17.667 15.5 -33v-461c0 -5.33301 -0.5 -12.166 -1.5 -20.499s-2.5 -16.333 -4.5 -24s-4.83301 -14.167 -8.5 -19.5s-8.5 -8 -14.5 -8c-4.66699 0 -9 1 -13 3c-6 2 -10.5 0.666992 -13.5 -4s-1.83301 -8.33398 3.5 -11.001
c4.66699 -2.66699 11.167 -4.66699 19.5 -6s17 -2.33301 26 -3s17.5 -1 25.5 -1h21h43c12 0 24 0.166992 36 0.5s24.333 0.166016 37 -0.500977z" />
    <glyph glyph-name="Iacute" unicode="&#xcd;" horiz-adv-x="284" 
d="M264 775c-0.666992 4.66699 -1.83496 10.166 -3.50195 16.499s-4 12.333 -7 18s-7.16699 10.334 -12.5 14.001s-12.333 5.5 -21 5.5c-11.333 0 -26 -5.83301 -44 -17.5s-35.333 -23.834 -52 -36.501c-7.33301 -6 -14.666 -11.667 -21.999 -17
s-13.666 -9.66602 -18.999 -12.999c-6 -2 -7.33301 -5.5 -4 -10.5s7.66602 -6.5 12.999 -4.5l35 12.5l38 12.5c12.667 4 25.334 7 38.001 9s24.667 2.66699 36 2l12 -1c4 -0.666992 7.33301 0 10 2s3.66699 4.66699 3 8zM244.999 75.999
c-5.33301 5.33301 -10.8379 8.33496 -16.5049 9.00195s-12.167 1 -19.5 1s-13.666 1.66699 -18.999 5c-1.33301 2 -3 6 -5 12s-3.83301 12.5 -5.5 19.5s-3 13.833 -4 20.5s-1.5 11.667 -1.5 15v459c0 17.333 4.5 28.5 13.5 33.5s20.5 8.83301 34.5 11.5
c6.66699 1.33301 9.83398 4.33301 9.50098 9s-3.83301 7.33398 -10.5 8.00098c-31.333 2 -63 3 -95 3c-31.333 0 -63 -1 -95 -3c-6.66699 -0.666992 -10.167 -3.33398 -10.5 -8.00098s2.83398 -7.66699 9.50098 -9c14 -1.33301 26.167 -5.5 36.5 -12.5
s15.5 -18.167 15.5 -33.5v-461c0 -5.33301 -0.5 -12.166 -1.5 -20.499s-2.5 -16.333 -4.5 -24s-4.83301 -14.167 -8.5 -19.5s-8.5 -8 -14.5 -8c-2 0 -6.33301 1.33301 -13 4c-6 1.33301 -10.667 -0.333984 -14 -5.00098s-2 -8.33398 4 -11.001
c4.66699 -2.66699 11 -4.66699 19 -6s16.5 -2.33301 25.5 -3s17.833 -1 26.5 -1h21h43c12.667 0 24.834 0.166992 36.501 0.5s23.834 0.166016 36.501 -0.500977z" />
    <glyph glyph-name="Icircumflex" unicode="&#xce;" horiz-adv-x="276" 
d="M250 753l-2.99902 10.998l-53.5 40.5c-17.667 13 -35.5 25.167 -53.5 36.5c-4 2 -8.66699 1.66699 -14 -1c-18 -15.333 -35.833 -31.5 -53.5 -48.5s-34.167 -35.167 -49.5 -54.5c-4 -4 -3.66699 -7.83301 1 -11.5s9.66699 -4.16699 15 -1.5
c15.333 10.667 31.666 20.834 48.999 30.501s35 14.5 53 14.5c14 0 26 -4.5 36 -13.5s18.333 -20.167 25 -33.5c2 -3.33301 4.83301 -5.16602 8.5 -5.49902s7.16699 0.833984 10.5 3.50098l4 4v-1c4 4 8.33301 8.66699 13 14s8.66699 10.666 12 15.999zM252.001 76.998
c-4.66699 4 -10.332 6.50098 -16.999 7.50098s-13.334 1.83301 -20.001 2.5c-3.33301 0.666992 -6.83301 1.16699 -10.5 1.5s-7.16699 1.5 -10.5 3.5c-1.33301 0.666992 -2.83301 4 -4.5 10s-3.16699 12.667 -4.5 20s-2.5 14.5 -3.5 21.5s-1.5 11.833 -1.5 14.5v459
c0 8.66699 1.16699 15.667 3.5 21s5.66602 9.5 9.99902 12.5s9.33301 5.33301 15 7s12.167 3.16699 19.5 4.5c6 1.33301 8.83301 4.33301 8.5 9s-3.5 7.33398 -9.5 8.00098c-31.333 2 -62.666 3 -93.999 3c-32.667 0 -64.334 -1 -95.001 -3
c-6.66699 -0.666992 -10.167 -3.33398 -10.5 -8.00098s2.83398 -7.66699 9.50098 -9c13.333 -1.33301 25.166 -5.33301 35.499 -12s15.5 -18 15.5 -34v-461c0 -5.33301 -0.5 -12.166 -1.5 -20.499s-2.5 -16.333 -4.5 -24s-4.83301 -14.167 -8.5 -19.5s-8.5 -8 -14.5 -8
c-4.66699 0 -9 1 -13 3c-5.33301 2 -9.66602 0.666992 -12.999 -4s-2 -8.33398 4 -11.001c7.33301 -3.33301 18 -5.83301 32 -7.5s27 -2.5 39 -2.5h63c12 0 24.167 0.166992 36.5 0.5s24.5 0.166016 36.5 -0.500977z" />
    <glyph glyph-name="Idieresis" unicode="&#xcf;" horiz-adv-x="289" 
d="M269 766c0 11.333 -4.66797 22.667 -14.001 34s-20.666 17 -33.999 17c-10 0 -19.5 -4.16699 -28.5 -12.5s-13.5 -17.166 -13.5 -26.499c0 -14 6 -25.833 18 -35.5s24.667 -14.5 38 -14.5l4 1c8 3.33301 15 8.16602 21 14.499s9 13.833 9 22.5zM109.999 766.001
c0 11.333 -4.66797 22.667 -14.001 34s-20.666 17 -33.999 17c-10 0 -19.5 -4.16699 -28.5 -12.5s-13.5 -17.166 -13.5 -26.499c0 -14 6 -25.833 18 -35.5s24.667 -14.5 38 -14.5l4 1c8 3.33301 15 8.16602 21 14.499s9 13.833 9 22.5zM261.998 76.002
c-4.66699 4 -10.335 6.66699 -17.002 8s-13 2.33301 -19 3c-3.33301 0.666992 -6.83301 1.16699 -10.5 1.5s-7.16699 1.5 -10.5 3.5c-1.33301 0.666992 -2.83301 4 -4.5 10s-3.16699 12.667 -4.5 20s-2.5 14.5 -3.5 21.5s-1.5 11.833 -1.5 14.5v459
c0 8.66699 1.16699 15.667 3.5 21s5.5 9.5 9.5 12.5s9 5.33301 15 7s12.667 3.16699 20 4.5c6 1.33301 8.83301 4.33301 8.5 9s-3.5 7.33398 -9.5 8.00098c-32 2 -63.667 3 -95 3s-63.333 -1 -96 -3c-6 -0.666992 -9.16699 -3.33398 -9.5 -8.00098
s2.83398 -7.66699 9.50098 -9c14 -1.33301 26 -5.5 36 -12.5s15 -18.167 15 -33.5v-461c0 -5.33301 -0.5 -12.166 -1.5 -20.499s-2.5 -16.333 -4.5 -24s-4.83301 -14.167 -8.5 -19.5s-8.5 -8 -14.5 -8c-3.33301 0 -7 0.666992 -11 2
c-5.33301 2 -9.66602 0.666992 -12.999 -4s-2.33301 -8.33398 3 -11.001c6.66699 -3.33301 17 -5.66602 31 -6.99902s27 -2 39 -2h63c12 0 24.167 0.166992 36.5 0.5s24.5 0.166016 36.5 -0.500977z" />
    <glyph glyph-name="Eth" unicode="&#xd0;" 
 />
    <glyph glyph-name="Ntilde" unicode="&#xd1;" horiz-adv-x="804" 
d="M533 803l-18.999 9c-7.33301 -8.66699 -15 -15.667 -23 -21s-16.667 -8 -26 -8c-10 0 -20 1.83301 -30 5.5s-20 7.83398 -30 12.501c-10 5.33301 -20.333 9.83301 -31 13.5s-21.667 5.5 -33 5.5c-12 0 -22.167 -2.33301 -30.5 -7s-15.333 -10.667 -21 -18
s-10.5 -15.5 -14.5 -24.5s-7.33301 -17.833 -10 -26.5c-2 -4.66699 0.166992 -8.16699 6.5 -10.5s11.166 -1.5 14.499 2.5c6 9.33301 13.333 17.166 22 23.499s18 9.5 28 9.5s20 -2 30 -6s20 -8.66699 30 -14s20.333 -9.83301 31 -13.5s21.667 -5.5 33 -5.5
c10.667 0 20 2.33301 28 7s14.833 10.5 20.5 17.5s10.5 14.833 14.5 23.5s7.33301 17 10 25zM787.001 711l-2.00195 17.0039c-24 1.33301 -48 1.83301 -72 1.5s-47.667 -0.5 -71 -0.5h-72c-5.33301 0 -8.83301 -1.66699 -10.5 -5s-0.5 -6.33301 3.5 -9
c3.33301 -4 7.83301 -6.66699 13.5 -8s12.167 -2.66602 19.5 -3.99902l18 -4c6 -1.33301 11.5 -4.16602 16.5 -8.49902s9.16699 -10.833 12.5 -19.5s5 -20.667 5 -36c0 -73.333 1.16699 -146.333 3.5 -219s3.5 -145.667 3.5 -219c0 -5.33301 -0.166992 -10.5 -0.5 -15.5
s-0.5 -10.167 -0.5 -15.5l-541 574c-5.33301 4 -10.666 4 -15.999 0c-4 -4 -7.33301 -7.83301 -10 -11.5s-4 -8.16699 -4 -13.5v-630c0 -16.667 -4.83301 -30.167 -14.5 -40.5s-22.167 -17.166 -37.5 -20.499l-14 -3c-6 -1.33301 -9.5 -4.33301 -10.5 -9
s1.5 -7.66699 7.5 -9c16 -3.33301 33 -3.83301 51 -1.5s35.667 3.16602 53 2.49902l127 -3c5.33301 0 9 1.83301 11 5.5s0.666992 6.83398 -4 9.50098c-7.33301 4.66699 -14.5 8.16699 -21.5 10.5s-13.833 4.16602 -20.5 5.49902c-6 1.33301 -12 3.16602 -18 5.49902
s-11.167 6.16602 -15.5 11.499s-7.83301 12.666 -10.5 21.999s-4 22 -4 38c0 33.333 -0.666992 66.5 -2 99.5l-4 100.5l-4 98c-1.33301 32.667 -2 65.667 -2 99c0 17.333 1 35.666 3 54.999l30 -33l29 -33l116 -128.5l119.5 -130l123 -125.5
c41.667 -40.667 83.834 -79 126.501 -115c4 -2.66699 8.16699 -3.33398 12.5 -2.00098s6.83301 4 7.5 8c8.66699 110.667 12.5 221.667 11.5 333s-1.5 222.666 -1.5 333.999c0 11.333 5.16699 19 15.5 23s20.833 7.66699 31.5 11c2 0.666992 4.16699 2 6.5 4
s4.5 3.33301 6.5 4z" />
    <glyph glyph-name="Ograve" unicode="&#xd2;" horiz-adv-x="704" 
d="M406 748c-6.66699 3.33301 -13.999 8.00098 -21.999 14.001l-23 18c-14.667 11.333 -29.834 22.166 -45.501 32.499s-31.5 15.5 -47.5 15.5c-22.667 0 -40 -8.66699 -52 -26c-2.66699 -2.66699 -3.66699 -5.33398 -3 -8.00098s2.66699 -4.66699 6 -6l88.5 -34
c29.667 -11.333 60.5 -18.666 92.5 -21.999zM679.001 431.001c0 23.333 -4.83008 46.5 -14.4971 69.5s-22.834 44.5 -39.501 64.5s-35.834 38.5 -57.501 55.5s-44.5 31.667 -68.5 44s-48.167 22 -72.5 29s-47.5 10.5 -69.5 10.5c-13.333 0 -26.666 -1.66699 -39.999 -5
c-54 -12 -99.667 -28 -137 -48s-67.5 -45 -90.5 -75s-39.5 -65.333 -49.5 -106s-15 -88 -15 -142c0 -34 10 -68 30 -102s45.333 -64.5 76 -91.5s64.167 -48.833 100.5 -65.5s71.166 -25 104.499 -25c9.33301 0 18.666 0.666992 27.999 2s18.666 3.66602 27.999 6.99902
c18 0.666992 36.5 3.83398 55.5 9.50098s37.5 13.167 55.5 22.5s35 20 51 32s30 24.667 42 38c18.667 20.667 33.5 41.667 44.5 63s19.333 43.333 25 66s9.33398 46 11.001 70s2.5 49.667 2.5 77zM582.004 389.001c0 -32 -4.1709 -63.167 -12.5039 -93.5
s-20.666 -58.5 -36.999 -84.5s-36.333 -48.833 -60 -68.5s-50.834 -35.167 -81.501 -46.5c-40 4.66699 -76.667 16.667 -110 36s-62.166 43.666 -86.499 72.999s-43.166 62.666 -56.499 99.999s-20 76 -20 116c0 35.333 5.66699 67.333 17 96s27.166 53.334 47.499 74.001
s44.833 36.5 73.5 47.5s60.334 16.5 95.001 16.5c36.667 0 69.334 -7.33301 98.001 -22s52.834 -34.167 72.501 -58.5s34.667 -52.666 45 -84.999s15.5 -65.833 15.5 -100.5z" />
    <glyph glyph-name="Oacute" unicode="&#xd3;" horiz-adv-x="704" 
d="M488 775c-0.666992 4.66699 -1.66406 10.167 -2.99707 16.5s-3.5 12.333 -6.5 18s-7.16699 10.334 -12.5 14.001s-12.333 5.5 -21 5.5c-12 0 -26.833 -5.83301 -44.5 -17.5s-34.834 -23.834 -51.501 -36.501l-22.5 -17c-7 -5.33301 -13.5 -9.66602 -19.5 -12.999
c-6 -2 -7.33301 -5.33301 -4 -10s8 -6.33398 14 -5.00098l72.5 25.5c26.333 9 51.166 12.5 74.499 10.5l12 -1c4 -0.666992 7.16699 0 9.5 2s3.16602 4.66699 2.49902 8zM679.003 431c0 23.333 -4.83008 46.5 -14.4971 69.5s-22.834 44.5 -39.501 64.5
s-35.834 38.5 -57.501 55.5s-44.5 31.667 -68.5 44s-48.167 22 -72.5 29s-47.5 10.5 -69.5 10.5c-13.333 0 -26.666 -1.66699 -39.999 -5c-54 -12 -99.667 -28 -137 -48s-67.5 -45 -90.5 -75s-39.5 -65.333 -49.5 -106s-15 -88 -15 -142c0 -34 10 -68 30 -102
s45.333 -64.5 76 -91.5s64.167 -48.833 100.5 -65.5s71.166 -25 104.499 -25c9.33301 0 18.666 0.666992 27.999 2s18.666 3.66602 27.999 6.99902c18 0.666992 36.5 3.83398 55.5 9.50098s37.5 13.167 55.5 22.5s35 20 51 32s30 24.667 42 38
c18.667 20.667 33.5 41.667 44.5 63s19.333 43.333 25 66s9.33398 46 11.001 70s2.5 49.667 2.5 77zM582.006 389c0 -32 -4.1709 -63.167 -12.5039 -93.5s-20.666 -58.5 -36.999 -84.5s-36.333 -48.833 -60 -68.5s-50.834 -35.167 -81.501 -46.5
c-40 4.66699 -76.667 16.667 -110 36s-62.166 43.666 -86.499 72.999s-43.166 62.666 -56.499 99.999s-20 76 -20 116c0 35.333 5.66699 67.333 17 96s27.166 53.334 47.499 74.001s44.833 36.5 73.5 47.5s60.334 16.5 95.001 16.5c36.667 0 69.334 -7.33301 98.001 -22
s52.834 -34.167 72.501 -58.5s34.667 -52.666 45 -84.999s15.5 -65.833 15.5 -100.5z" />
    <glyph glyph-name="Ocircumflex" unicode="&#xd4;" horiz-adv-x="704" 
d="M465 753l-2.99902 10.9961l-53.5 40.5c-17.667 13 -35.5 25.167 -53.5 36.5c-4 2 -8.66699 1.66699 -14 -1c-18 -15.333 -35.833 -31.666 -53.5 -48.999s-34.167 -35.333 -49.5 -54c-4 -4 -3.66699 -7.83301 1 -11.5s9.66699 -4.16699 15 -1.5
c15.333 10.667 31.666 20.834 48.999 30.501s35 14.5 53 14.5c14 0 26 -4.5 36 -13.5s18.333 -20.167 25 -33.5c2 -3.33301 4.83301 -5.16602 8.5 -5.49902s7.16699 0.833984 10.5 3.50098l4 4v-1c10 8.66699 18.333 18.667 25 30zM679.001 430.996
c0 23.333 -4.83008 46.5 -14.4971 69.5s-22.834 44.5 -39.501 64.5s-35.834 38.5 -57.501 55.5s-44.5 31.667 -68.5 44s-48.167 22 -72.5 29s-47.5 10.5 -69.5 10.5c-13.333 0 -26.666 -1.66699 -39.999 -5c-54 -12 -99.667 -28 -137 -48s-67.5 -45 -90.5 -75
s-39.5 -65.333 -49.5 -106s-15 -88 -15 -142c0 -34 10 -68 30 -102s45.333 -64.5 76 -91.5s64.167 -48.833 100.5 -65.5s71.166 -25 104.499 -25c9.33301 0 18.666 0.666992 27.999 2s18.666 3.66602 27.999 6.99902c18 0.666992 36.5 3.83398 55.5 9.50098
s37.5 13.167 55.5 22.5s35 20 51 32s30 24.667 42 38c18.667 20.667 33.5 41.667 44.5 63s19.333 43.333 25 66s9.33398 46 11.001 70s2.5 49.667 2.5 77zM582.004 388.996c0 -32 -4.1709 -63.167 -12.5039 -93.5s-20.666 -58.5 -36.999 -84.5s-36.333 -48.833 -60 -68.5
s-50.834 -35.167 -81.501 -46.5c-40 4.66699 -76.667 16.667 -110 36s-62.166 43.666 -86.499 72.999s-43.166 62.666 -56.499 99.999s-20 76 -20 116c0 35.333 5.66699 67.333 17 96s27.166 53.334 47.499 74.001s44.833 36.5 73.5 47.5s60.334 16.5 95.001 16.5
c36.667 0 69.334 -7.33301 98.001 -22s52.834 -34.167 72.501 -58.5s34.667 -52.666 45 -84.999s15.5 -65.833 15.5 -100.5z" />
    <glyph glyph-name="Otilde" unicode="&#xd5;" horiz-adv-x="704" 
d="M488 803l-19 9c-7.33301 -8.66699 -15 -15.667 -23 -21s-16.667 -8 -26 -8s-19.166 1.83301 -29.499 5.5s-20.166 7.83398 -29.499 12.501c-10.667 5.33301 -21.334 9.83301 -32.001 13.5s-21.667 5.5 -33 5.5s-21.166 -2.33301 -29.499 -7s-15.5 -10.667 -21.5 -18
s-11 -15.5 -15 -24.5s-7.33301 -17.833 -10 -26.5c-2 -4.66699 0.166992 -8.16699 6.5 -10.5s11.166 -1.5 14.499 2.5c6.66699 9.33301 14.167 17.166 22.5 23.499s17.833 9.5 28.5 9.5c9.33301 0 19.166 -2 29.499 -6s20.166 -8.66699 29.499 -14
c10 -5.33301 20.333 -9.83301 31 -13.5s21.667 -5.5 33 -5.5c10.667 0 20 2.33301 28 7s15 10.5 21 17.5s10.833 14.833 14.5 23.5s6.83398 17 9.50098 25zM679 431c0 23.333 -4.83008 46.5 -14.4971 69.5s-22.834 44.5 -39.501 64.5s-35.834 38.5 -57.501 55.5
s-44.5 31.667 -68.5 44s-48.167 22 -72.5 29s-47.5 10.5 -69.5 10.5c-13.333 0 -26.666 -1.66699 -39.999 -5c-54 -12 -99.667 -28 -137 -48s-67.5 -45 -90.5 -75s-39.5 -65.333 -49.5 -106s-15 -88 -15 -142c0 -34 10 -68 30 -102s45.333 -64.5 76 -91.5
s64.167 -48.833 100.5 -65.5s71.166 -25 104.499 -25c9.33301 0 18.666 0.666992 27.999 2s18.666 3.66602 27.999 6.99902c18 0.666992 36.5 3.83398 55.5 9.50098s37.5 13.167 55.5 22.5s35 20 51 32s30 24.667 42 38c18.667 20.667 33.5 41.667 44.5 63
s19.333 43.333 25 66s9.33398 46 11.001 70s2.5 49.667 2.5 77zM582.003 389c0 -32 -4.1709 -63.167 -12.5039 -93.5s-20.666 -58.5 -36.999 -84.5s-36.333 -48.833 -60 -68.5s-50.834 -35.167 -81.501 -46.5c-40 4.66699 -76.667 16.667 -110 36
s-62.166 43.666 -86.499 72.999s-43.166 62.666 -56.499 99.999s-20 76 -20 116c0 35.333 5.66699 67.333 17 96s27.166 53.334 47.499 74.001s44.833 36.5 73.5 47.5s60.334 16.5 95.001 16.5c36.667 0 69.334 -7.33301 98.001 -22s52.834 -34.167 72.501 -58.5
s34.667 -52.666 45 -84.999s15.5 -65.833 15.5 -100.5z" />
    <glyph glyph-name="Odieresis" unicode="&#xd6;" horiz-adv-x="830" 
d="M537 816c0 11.333 -4.66797 22.667 -14.001 34s-20.666 17 -33.999 17c-10 0 -19.5 -4.16699 -28.5 -12.5s-13.5 -17.166 -13.5 -26.499c0 -14 6 -25.833 18 -35.5s24.667 -14.5 38 -14.5l4 1c8 3.33301 15 8.16602 21 14.499s9 13.833 9 22.5zM377.999 816.001
c0 11.333 -4.5 22.667 -13.5 34s-20.167 17 -33.5 17c-10.667 0 -20.5 -4.16699 -29.5 -12.5s-13.5 -17.166 -13.5 -26.499c0 -14 6 -25.833 18 -35.5s24.667 -14.5 38 -14.5l4 1c8 3.33301 15 8.16602 21 14.499s9 13.833 9 22.5zM804.999 349.002
c0 48.667 -7.5 97.8301 -22.5 147.497s-37.833 94.5 -68.5 134.5s-69.334 72.667 -116.001 98s-101.334 38 -164.001 38c-9.33301 0 -19.166 -0.5 -29.499 -1.5s-20.166 -2.5 -29.499 -4.5c-62.667 -13.333 -116 -31.166 -160 -53.499s-80 -50.166 -108 -83.499
s-48.333 -72.666 -61 -117.999s-19 -97.333 -19 -156c0 -57.333 12.5 -108.666 37.5 -153.999s56.667 -83.5 95 -114.5s80.5 -54.667 126.5 -71s89.667 -24.5 131 -24.5c18 0 33.667 1.33301 47 4c46.667 10.667 90.667 25.667 132 45s77.5 43.666 108.5 72.999
s55.5 64 73.5 104s27 85.667 27 137zM703.999 350.998c0 -42 -5.99902 -82.167 -17.999 -120.5s-29.5 -71.833 -52.5 -100.5s-51.5 -51.5 -85.5 -68.5s-73.333 -25.5 -118 -25.5c-47.333 0 -89.5 10.833 -126.5 32.5s-68.167 49.834 -93.5 84.501s-44.5 73.667 -57.5 117
s-19.5 86.666 -19.5 129.999c0 42.667 6.16699 82.834 18.5 120.501s30.333 70.667 54 99s52.667 50.666 87 66.999s73.833 24.5 118.5 24.5c47.333 0 89.166 -10.667 125.499 -32s67 -49 92 -83s43.833 -72.5 56.5 -115.5s19 -86.167 19 -129.5z" />
    <glyph glyph-name="Oslash" unicode="&#xd8;" horiz-adv-x="708" 
d="M683 356c0 42 -5.83789 84.5 -17.5049 127.5s-31.167 81.5 -58.5 115.5c10.667 13.333 20.834 25 30.501 35l31.5 34c4 4 3.66699 8 -1 12l-23 24c-5.33301 2.66699 -10.666 3 -15.999 1c-6 -5.33301 -13 -12.166 -21 -20.499l-20 -20.5l-25 -26
c-31.333 19.333 -64.833 34.333 -100.5 45s-71.834 16 -108.501 16c-47.333 0 -91.166 -8.5 -131.499 -25.5s-75.166 -40.333 -104.499 -70s-52.166 -64.667 -68.499 -105s-24.5 -83.833 -24.5 -130.5c0 -39.333 7.5 -78 22.5 -116s35.167 -72 60.5 -102
c-4.66699 -7.33301 -9.33398 -13.5 -14.001 -18.5l-15 -16.5c-6 -7.33301 -12.167 -14.5 -18.5 -21.5s-12.166 -14.167 -17.499 -21.5c-4 -4 -3 -8 3 -12l24 -19c5.33301 -3.33301 10.333 -3 15 1l26 26l19.5 20l19.5 20c30 -20.667 59.5 -35.334 88.5 -44.001
s62.167 -13 99.5 -13c16 0 31.833 0.5 47.5 1.5s31.167 2.83301 46.5 5.5c30.667 4.66699 61 17.167 91 37.5s56.833 45 80.5 74s42.834 60 57.501 93s22 64.167 22 93.5zM505.995 580l-166.001 -182.498l-167 -180.5c-16.667 28.667 -28.667 59.167 -36 91.5
s-11 64.833 -11 97.5c0 34.667 4.83301 67.167 14.5 97.5s23.834 56.666 42.501 78.999s42 40 70 53s60 19.5 96 19.5c30 0 58.833 -6.33301 86.5 -19s51.167 -31.334 70.5 -56.001zM586.994 351.002c0 -32 -4.66699 -63.167 -14 -93.5s-23 -57.333 -41 -81
s-40.333 -42.667 -67 -57s-57 -21.5 -91 -21.5c-32 0 -62.167 6.16699 -90.5 18.5s-54.5 29.5 -78.5 51.5l103.5 111.5l103.5 111.5l65.5 70.5l66.5 70.5c28.667 -56 43 -116.333 43 -181z" />
    <glyph glyph-name="Ugrave" unicode="&#xd9;" horiz-adv-x="672" 
d="M394 748c-6 3.33301 -12.999 8.00098 -20.999 14.001l-24 18c-14.667 11.333 -29.667 22.166 -45 32.499s-31 15.5 -47 15.5c-22.667 0 -40.334 -8.66699 -53.001 -26c-2.66699 -2.66699 -3.66699 -5.33398 -3 -8.00098s3 -4.66699 7 -6l88 -34
c29.333 -11.333 60 -18.666 92 -21.999zM637.001 662.001l-1.00195 17.002c-29.333 2 -58.666 3.33301 -87.999 4s-59 1 -89 1c-3.33301 0 -6.33301 -1 -9 -3s-3.66699 -4.33301 -3 -7c1.33301 -8 6.33301 -12.667 15 -14s17 -2.33301 25 -3
c4.66699 0 7.66699 -0.333008 9 -1c8 -2.66699 13.167 -7.83398 15.5 -15.501s3.5 -15.834 3.5 -24.501c0 -26.667 0.166992 -56.5 0.5 -89.5s0.5 -62.5 0.5 -88.5c0.666992 -29.333 1 -58.666 1 -87.999v-87c0 -25.333 -4.33301 -48.166 -13 -68.499
s-20.5 -37.666 -35.5 -51.999s-32.667 -25.5 -53 -33.5s-42.5 -12 -66.5 -12c-23.333 0 -45.166 3.83301 -65.499 11.5s-37.833 18.5 -52.5 32.5s-26.167 31 -34.5 51s-12.5 42.333 -12.5 67c0 30 0.166992 59.833 0.5 89.5s0.5 59.5 0.5 89.5v179
c0 16 4.16699 26.833 12.5 32.5s20.166 9.16699 35.499 10.5c6 0.666992 9 3.33398 9 8.00098c0 5.33301 -3 8.33301 -9 9c-33.333 3.33301 -66 5.33301 -98 6s-64.667 1 -98 1c-3.33301 0 -6.33301 -1 -9 -3s-3.66699 -4.33301 -3 -7c1.33301 -8 6.33301 -12.667 15 -14
s17 -2.33301 25 -3c4.66699 0 7.66699 -0.333008 9 -1c8 -2.66699 13.167 -7.83398 15.5 -15.501s3.5 -15.834 3.5 -24.501v-336c0 -2 0.666992 -5.66699 2 -11s2.83301 -11 4.5 -17s3.5 -11.833 5.5 -17.5s3.66699 -9.83398 5 -12.501
c9.33301 -24.667 21.833 -47.667 37.5 -69s33.834 -39.833 54.501 -55.5s43.334 -28 68.001 -37s51 -13.5 79 -13.5c36.667 0 69.667 6.66699 99 20s54.5 31.666 75.5 54.999s37.167 50.333 48.5 81s17 63.667 17 99v315c0 15.333 4.66699 26 14 32s20.666 10.333 33.999 13
z" />
    <glyph glyph-name="Uacute" unicode="&#xda;" horiz-adv-x="672" 
d="M492 775c-0.666992 4.66699 -1.83496 10.166 -3.50195 16.499s-4 12.333 -7 18s-7.16699 10.334 -12.5 14.001s-12.333 5.5 -21 5.5c-11.333 0 -26 -5.83301 -44 -17.5s-35.333 -23.834 -52 -36.501c-7.33301 -6 -14.666 -11.667 -21.999 -17
s-13.666 -9.66602 -18.999 -12.999c-6 -2 -7.33301 -5.5 -4 -10.5s7.66602 -6.5 12.999 -4.5l35 12.5l38 12.5c12.667 4 25.334 7 38.001 9s24.667 2.66699 36 2l12 -1c4 -0.666992 7.33301 0 10 2s3.66699 4.66699 3 8zM636.999 661.999l-1.00195 17.002
c-29.333 2 -58.666 3.33301 -87.999 4s-59 1 -89 1c-3.33301 0 -6.33301 -1 -9 -3s-3.66699 -4.33301 -3 -7c1.33301 -8 6.33301 -12.667 15 -14s17 -2.33301 25 -3c4.66699 0 7.66699 -0.333008 9 -1c8 -2.66699 13.167 -7.83398 15.5 -15.501s3.5 -15.834 3.5 -24.501
c0 -26.667 0.166992 -56.5 0.5 -89.5s0.5 -62.5 0.5 -88.5c0.666992 -29.333 1 -58.666 1 -87.999v-87c0 -25.333 -4.33301 -48.166 -13 -68.499s-20.5 -37.666 -35.5 -51.999s-32.667 -25.5 -53 -33.5s-42.5 -12 -66.5 -12c-23.333 0 -45.166 3.83301 -65.499 11.5
s-37.833 18.5 -52.5 32.5s-26.167 31 -34.5 51s-12.5 42.333 -12.5 67c0 30 0.166992 59.833 0.5 89.5s0.5 59.5 0.5 89.5v179c0 16 4.16699 26.833 12.5 32.5s20.166 9.16699 35.499 10.5c6 0.666992 9 3.33398 9 8.00098c0 5.33301 -3 8.33301 -9 9
c-33.333 3.33301 -66 5.33301 -98 6s-64.667 1 -98 1c-3.33301 0 -6.33301 -1 -9 -3s-3.66699 -4.33301 -3 -7c1.33301 -8 6.33301 -12.667 15 -14s17 -2.33301 25 -3c4.66699 0 7.66699 -0.333008 9 -1c8 -2.66699 13.167 -7.83398 15.5 -15.501s3.5 -15.834 3.5 -24.501
v-336c0 -2 0.666992 -5.66699 2 -11s2.83301 -11 4.5 -17s3.5 -11.833 5.5 -17.5s3.66699 -9.83398 5 -12.501c9.33301 -24.667 21.833 -47.667 37.5 -69s33.834 -39.833 54.501 -55.5s43.334 -28 68.001 -37s51 -13.5 79 -13.5c36.667 0 69.667 6.66699 99 20
s54.5 31.666 75.5 54.999s37.167 50.333 48.5 81s17 63.667 17 99v315c0 15.333 4.66699 26 14 32s20.666 10.333 33.999 13z" />
    <glyph glyph-name="Ucircumflex" unicode="&#xdb;" horiz-adv-x="672" 
d="M462 753l-3.99902 10.998l-53.5 40.5c-17.667 13 -35.834 25.167 -54.501 36.5c-3.33301 2 -7.66602 1.66699 -12.999 -1c-18 -15.333 -35.833 -31.5 -53.5 -48.5s-34.5 -35.167 -50.5 -54.5c-3.33301 -4 -2.83301 -7.83301 1.5 -11.5s9.16602 -4.16699 14.499 -1.5
c15.333 10.667 31.666 20.834 48.999 30.501s35.333 14.5 54 14.5c14.667 0 27 -4.5 37 -13.5s18 -20.167 24 -33.5c2 -3.33301 4.83301 -5.16602 8.5 -5.49902s6.83398 0.5 9.50098 2.5l17 17c6 6 10.667 11.667 14 17zM637.001 661.998l-1.00195 17.002
c-29.333 2 -58.666 3.33301 -87.999 4s-59 1 -89 1c-3.33301 0 -6.33301 -1 -9 -3s-3.66699 -4.33301 -3 -7c1.33301 -8 6.33301 -12.667 15 -14s17 -2.33301 25 -3c4.66699 0 7.66699 -0.333008 9 -1c8 -2.66699 13.167 -7.83398 15.5 -15.501s3.5 -15.834 3.5 -24.501
c0 -26.667 0.166992 -56.5 0.5 -89.5s0.5 -62.5 0.5 -88.5c0.666992 -29.333 1 -58.666 1 -87.999v-87c0 -25.333 -4.33301 -48.166 -13 -68.499s-20.5 -37.666 -35.5 -51.999s-32.667 -25.5 -53 -33.5s-42.5 -12 -66.5 -12c-23.333 0 -45.166 3.83301 -65.499 11.5
s-37.833 18.5 -52.5 32.5s-26.167 31 -34.5 51s-12.5 42.333 -12.5 67c0 30 0.166992 59.833 0.5 89.5s0.5 59.5 0.5 89.5v179c0 16 4.16699 26.833 12.5 32.5s20.166 9.16699 35.499 10.5c6 0.666992 9 3.33398 9 8.00098c0 5.33301 -3 8.33301 -9 9
c-33.333 3.33301 -66 5.33301 -98 6s-64.667 1 -98 1c-3.33301 0 -6.33301 -1 -9 -3s-3.66699 -4.33301 -3 -7c1.33301 -8 6.33301 -12.667 15 -14s17 -2.33301 25 -3c4.66699 0 7.66699 -0.333008 9 -1c8 -2.66699 13.167 -7.83398 15.5 -15.501s3.5 -15.834 3.5 -24.501
v-336c0 -2 0.666992 -5.66699 2 -11s2.83301 -11 4.5 -17s3.5 -11.833 5.5 -17.5s3.66699 -9.83398 5 -12.501c9.33301 -24.667 21.833 -47.667 37.5 -69s33.834 -39.833 54.501 -55.5s43.334 -28 68.001 -37s51 -13.5 79 -13.5c36.667 0 69.667 6.66699 99 20
s54.5 31.666 75.5 54.999s37.167 50.333 48.5 81s17 63.667 17 99v315c0 15.333 4.66699 26 14 32s20.666 10.333 33.999 13z" />
    </font>
</defs>
</svg>
